<svg width="53" height="52" viewBox="0 0 53 52" fill="none" xmlns="http://www.w3.org/2000/svg">
<rect width="53" height="52" rx="12" fill="url(#paint0_linear_1234_11420)"/>
<path d="M22.7273 16.75C21.6353 16.75 20.75 17.6353 20.75 18.7273V24C20.75 27.4518 23.5482 30.25 27 30.25C30.4518 30.25 33.25 27.4518 33.25 24V18.7273C33.25 17.6353 32.3647 16.75 31.2727 16.75H22.7273Z" stroke="white" stroke-width="1.5"/>
<path d="M27 31V32" stroke="white" stroke-width="1.5" stroke-linecap="round"/>
<path d="M30 32.75H24C23.3096 32.75 22.75 33.3096 22.75 34C22.75 34.6904 23.3096 35.25 24 35.25H30C30.6904 35.25 31.25 34.6904 31.25 34C31.25 33.3096 30.6904 32.75 30 32.75Z" stroke="white" stroke-width="1.5"/>
<path d="M20.5 19C19.1193 19 18 20.1193 18 21.5V21.8284C18 22.5786 18.298 23.298 18.8284 23.8284L21 26" stroke="white" stroke-width="1.5" stroke-linecap="round" stroke-linejoin="round"/>
<path d="M33.5 19C34.8807 19 36 20.1193 36 21.5V21.8284C36 22.5786 35.702 23.298 35.1716 23.8284L33 26" stroke="white" stroke-width="1.5" stroke-linecap="round" stroke-linejoin="round"/>
<defs>
<linearGradient id="paint0_linear_1234_11420" x1="26.5" y1="0" x2="26.5" y2="52" gradientUnits="userSpaceOnUse">
<stop stop-color="#FF3E8F"/>
<stop offset="1" stop-color="#FFBA8F"/>
</linearGradient>
</defs>
</svg>
