<svg width="18" height="18" viewBox="0 0 18 18" fill="none" xmlns="http://www.w3.org/2000/svg">
<path d="M8.3373 2.74732C8.6193 2.21639 9.3801 2.21639 9.6621 2.74732L11.1291 5.50946C11.2375 5.71357 11.434 5.8563 11.6616 5.89632L14.7418 6.438C15.334 6.54212 15.569 7.26565 15.1512 7.6979L12.9776 9.9467C12.817 10.1128 12.742 10.3438 12.7742 10.5726L13.2109 13.6695C13.2949 14.2648 12.6793 14.712 12.1392 14.4482L9.3288 13.0759C9.12112 12.9744 8.87827 12.9744 8.6706 13.0759L5.86022 14.4482C5.32001 14.712 4.70454 14.2648 4.78848 13.6695L5.22517 10.5726C5.25745 10.3438 5.18241 10.1128 5.02179 9.9467L2.84818 7.6979C2.43037 7.26565 2.66546 6.54212 3.25755 6.438L6.33783 5.89632C6.56545 5.8563 6.7619 5.71356 6.87031 5.50946L8.3373 2.74732Z" stroke="white" stroke-width="1.5"/>
</svg>
