<svg width="192" height="109" viewBox="0 0 192 109" fill="none" xmlns="http://www.w3.org/2000/svg">
<g clip-path="url(#clip0_1702_3740)">
<path d="M153.217 42.6978H192.001L185.683 47.2496V56.2039C185.683 57.2365 184.845 58.0735 183.811 58.0735H153.217C152.183 58.0735 151.345 57.2365 151.345 56.2039V44.5674C151.345 43.5348 152.183 42.6978 153.217 42.6978Z" fill="#F5F5F5"/>
<path d="M154.834 49.0269C154.834 49.065 160.683 49.0949 167.899 49.0949C175.114 49.0949 180.963 49.065 180.963 49.0269C180.963 48.9889 175.114 48.959 167.899 48.959C160.683 48.959 154.834 48.9889 154.834 49.0269Z" fill="#E0E0E0"/>
<path d="M154.834 52.4644C154.834 52.5025 160.683 52.5324 167.899 52.5324C175.114 52.5324 180.963 52.5025 180.963 52.4644C180.963 52.4264 175.114 52.3965 167.899 52.3965C160.683 52.3965 154.834 52.4264 154.834 52.4644Z" fill="#E0E0E0"/>
<path d="M94.3135 9.65259H92.498V15.7235H94.3135V9.65259Z" fill="#E0E0E0"/>
<path d="M79.1533 8.77222H77.3379V15.7209H79.1533V8.77222Z" fill="#E0E0E0"/>
<path d="M82.9424 7.32373H81.127V15.7209H82.9424V7.32373Z" fill="#E0E0E0"/>
<path d="M86.7334 7.78564H84.918V15.7235H86.7334V7.78564Z" fill="#E0E0E0"/>
<path d="M90.5225 5.10083H88.707V15.7236H90.5225V5.10083Z" fill="#E0E0E0"/>
<path d="M98.1026 5.15234H96.2871V15.7235H98.1026V5.15234Z" fill="#E0E0E0"/>
<path d="M101.895 8.6228H100.079V15.721H101.895V8.6228Z" fill="#E0E0E0"/>
<path d="M105.683 5.61719H103.867V15.7237H105.683V5.61719Z" fill="#E0E0E0"/>
<path d="M109.472 3.33984H107.656V15.7209H109.472V3.33984Z" fill="#E0E0E0"/>
<path d="M113.263 5.56543H111.447V15.7235H113.263V5.56543Z" fill="#E0E0E0"/>
<path d="M161.085 15.1611L176.096 12.8702C177.354 21.0907 171.613 28.89 163.38 30.1455C155.146 31.401 147.335 25.6697 146.077 17.4492C144.82 9.2287 150.56 1.4294 158.794 0.173901C160.105 -0.0271965 161.436 -0.0543717 162.754 0.0923747L161.088 15.1611H161.085Z" fill="#EBEBEB"/>
<path d="M165.954 0.138672L164.131 11.7561L175.552 9.61469C175.552 9.61469 173.872 3.10349 165.952 0.138672H165.954Z" fill="#E0E0E0"/>
<path d="M7.82518 43.3392C7.75985 39.2249 11.0451 35.8226 15.1469 35.7546C19.2514 35.6894 22.6428 38.983 22.7081 43.0974C22.7734 47.2117 19.4882 50.614 15.3864 50.682C11.2819 50.7472 7.8905 47.4536 7.82518 43.3392ZM18.8241 43.1626C18.7914 41.1951 17.1719 39.6189 15.2095 39.6515C13.247 39.6842 11.6766 41.3092 11.7092 43.2767C11.7419 45.2442 13.3614 46.8204 15.3238 46.7878C17.2862 46.7552 18.8567 45.1301 18.8241 43.1626Z" fill="#F5F5F5"/>
<path d="M7.82518 43.3393C7.75985 39.2249 11.0451 35.8226 15.1469 35.7546L15.2095 39.6489C13.247 39.6815 11.6766 41.3065 11.7092 43.274C11.7419 45.2415 13.3614 46.8177 15.3238 46.7851L15.3864 50.6793C11.2819 50.7445 7.8905 47.4509 7.82518 43.3365V43.3393Z" fill="#E0E0E0"/>
<path d="M14.4775 35.1567C19.2788 35.0806 23.1084 38.7982 23.1846 43.6136L18.6419 43.687C18.6038 41.3852 16.851 39.9341 14.5565 39.9721L14.4803 35.1567H14.4775Z" fill="#EBEBEB"/>
<path d="M56.1759 69.5496H46.7148V80.7784H56.1759V69.5496Z" fill="#F5F5F5"/>
<path d="M47.0417 68.8159H4.29004V81.4823H47.0417V68.8159Z" fill="#E0E0E0"/>
<path d="M56.4616 69.8812H45.8955V68.8159H56.4616C56.7556 68.8159 56.9951 69.0551 56.9951 69.3486C56.9951 69.642 56.7556 69.8812 56.4616 69.8812Z" fill="#E0E0E0"/>
<path d="M56.4616 81.4823H45.8955V80.417H56.4616C56.7556 80.417 56.9951 80.6561 56.9951 80.9496C56.9951 81.2431 56.7556 81.4823 56.4616 81.4823Z" fill="#E0E0E0"/>
<path d="M43.6806 68.8159H38.6289V81.4823H43.6806V68.8159Z" fill="#EBEBEB"/>
<path d="M13.4081 68.9573H8.35645V81.6237H13.4081V68.9573Z" fill="#EBEBEB"/>
<path d="M56.1766 71.4057C56.1766 71.4356 54.1298 71.4628 51.6039 71.4628C49.0781 71.4628 47.0312 71.4383 47.0312 71.4057C47.0312 71.3731 49.0781 71.3486 51.6039 71.3486C54.1298 71.3486 56.1766 71.3731 56.1766 71.4057Z" fill="#E0E0E0"/>
<path d="M56.1766 73.0905C56.1766 73.1204 54.1298 73.1476 51.6039 73.1476C49.0781 73.1476 47.0312 73.1231 47.0312 73.0905C47.0312 73.0579 49.0781 73.0334 51.6039 73.0334C54.1298 73.0334 56.1766 73.0579 56.1766 73.0905Z" fill="#E0E0E0"/>
<path d="M56.1766 75.1613C56.1766 75.1912 54.1298 75.2184 51.6039 75.2184C49.0781 75.2184 47.0312 75.1939 47.0312 75.1613C47.0312 75.1287 49.0781 75.1042 51.6039 75.1042C54.1298 75.1042 56.1766 75.1287 56.1766 75.1613Z" fill="#E0E0E0"/>
<path d="M56.1766 77.2348C56.1766 77.2647 54.1298 77.2919 51.6039 77.2919C49.0781 77.2919 47.0312 77.2674 47.0312 77.2348C47.0312 77.2022 49.0781 77.1777 51.6039 77.1777C54.1298 77.1777 56.1766 77.2022 56.1766 77.2348Z" fill="#E0E0E0"/>
<path d="M56.1766 79.3083C56.1766 79.3382 54.1298 79.3654 51.6039 79.3654C49.0781 79.3654 47.0312 79.3409 47.0312 79.3083C47.0312 79.2757 49.0781 79.2512 51.6039 79.2512C54.1298 79.2512 56.1766 79.2757 56.1766 79.3083Z" fill="#E0E0E0"/>
<path d="M35.9121 74.0227H16.6797V76.3027H35.9121V74.0227Z" fill="#EBEBEB"/>
<path d="M56.0809 81.7324H46.4756V88.5752H56.0809V81.7324Z" fill="#FAFAFA"/>
<path d="M46.5814 81.4824H5.70508V88.8197H46.5814V81.4824Z" fill="#F5F5F5"/>
<path d="M46.2852 81.9797H56.609C56.7451 81.9797 56.8567 81.8683 56.8567 81.7324C56.8567 81.5965 56.7451 81.4851 56.609 81.4851H46.2852V81.9824V81.9797Z" fill="#F5F5F5"/>
<path d="M46.2852 88.3252H56.7424C56.805 88.3252 56.8567 88.3768 56.8567 88.4393V88.7084C56.8567 88.7709 56.805 88.8225 56.7424 88.8225H46.2852V88.3252Z" fill="#F5F5F5"/>
<path d="M56.0783 83.0314C56.0783 83.0613 53.9525 83.0885 51.3287 83.0885C48.7048 83.0885 46.5791 83.064 46.5791 83.0314C46.5791 82.9988 48.7048 82.9744 51.3287 82.9744C53.9525 82.9744 56.0783 82.9988 56.0783 83.0314Z" fill="#E0E0E0"/>
<path d="M56.0783 84.3249C56.0783 84.3548 53.9525 84.382 51.3287 84.382C48.7048 84.382 46.5791 84.3575 46.5791 84.3249C46.5791 84.2923 48.7048 84.2678 51.3287 84.2678C53.9525 84.2678 56.0783 84.2923 56.0783 84.3249Z" fill="#E0E0E0"/>
<path d="M56.0783 85.6186C56.0783 85.6485 53.9525 85.6757 51.3287 85.6757C48.7048 85.6757 46.5791 85.6512 46.5791 85.6186C46.5791 85.586 48.7048 85.5615 51.3287 85.5615C53.9525 85.5615 56.0783 85.586 56.0783 85.6186Z" fill="#E0E0E0"/>
<path d="M56.0783 86.9147C56.0783 86.9446 53.9525 86.9718 51.3287 86.9718C48.7048 86.9718 46.5791 86.9473 46.5791 86.9147C46.5791 86.8821 48.7048 86.8577 51.3287 86.8577C53.9525 86.8577 56.0783 86.8821 56.0783 86.9147Z" fill="#E0E0E0"/>
<path d="M57.5364 89.4717H47.7324V108.019H57.5364V89.4717Z" fill="#EBEBEB"/>
<path d="M47.7327 88.8196H1.71484V108.929H47.7327V88.8196Z" fill="#E0E0E0"/>
<path d="M58.3017 108.929H46.4727V107.625H58.3017C58.6637 107.625 58.9549 107.916 58.9549 108.277C58.9549 108.638 58.6637 108.929 58.3017 108.929Z" fill="#E0E0E0"/>
<path d="M46.4756 88.8196H58.6585C58.8245 88.8196 58.9579 88.9527 58.9579 89.1185V89.8251C58.9579 89.9908 58.8245 90.124 58.6585 90.124H46.4756V88.8196Z" fill="#E0E0E0"/>
<path d="M57.5364 91.9584C57.5364 91.9883 55.3426 92.0155 52.6344 92.0155C49.9262 92.0155 47.7324 91.9911 47.7324 91.9584C47.7324 91.9258 49.9262 91.9014 52.6344 91.9014C55.3426 91.9014 57.5364 91.9258 57.5364 91.9584Z" fill="#E0E0E0"/>
<path d="M57.5364 94.3388C57.5364 94.3687 55.3426 94.3959 52.6344 94.3959C49.9262 94.3959 47.7324 94.3714 47.7324 94.3388C47.7324 94.3062 49.9262 94.2817 52.6344 94.2817C55.3426 94.2817 57.5364 94.3062 57.5364 94.3388Z" fill="#E0E0E0"/>
<path d="M57.5364 96.7167C57.5364 96.7466 55.3426 96.7738 52.6344 96.7738C49.9262 96.7738 47.7324 96.7493 47.7324 96.7167C47.7324 96.6841 49.9262 96.6597 52.6344 96.6597C55.3426 96.6597 57.5364 96.6841 57.5364 96.7167Z" fill="#E0E0E0"/>
<path d="M57.5364 99.0947C57.5364 99.1246 55.3426 99.1517 52.6344 99.1517C49.9262 99.1517 47.7324 99.1273 47.7324 99.0947C47.7324 99.0621 49.9262 99.0376 52.6344 99.0376C55.3426 99.0376 57.5364 99.0621 57.5364 99.0947Z" fill="#E0E0E0"/>
<path d="M57.5364 101.472C57.5364 101.502 55.3426 101.529 52.6344 101.529C49.9262 101.529 47.7324 101.505 47.7324 101.472C47.7324 101.44 49.9262 101.415 52.6344 101.415C55.3426 101.415 57.5364 101.44 57.5364 101.472Z" fill="#E0E0E0"/>
<path d="M57.5364 103.853C57.5364 103.883 55.3426 103.91 52.6344 103.91C49.9262 103.91 47.7324 103.886 47.7324 103.853C47.7324 103.82 49.9262 103.796 52.6344 103.796C55.3426 103.796 57.5364 103.82 57.5364 103.853Z" fill="#E0E0E0"/>
<path d="M57.5364 106.231C57.5364 106.261 55.3426 106.288 52.6344 106.288C49.9262 106.288 47.7324 106.264 47.7324 106.231C47.7324 106.198 49.9262 106.174 52.6344 106.174C55.3426 106.174 57.5364 106.198 57.5364 106.231Z" fill="#E0E0E0"/>
<path d="M17.4609 99.9752V101.095C17.4609 102.443 16.7859 103.212 15.4848 103.212C14.1838 103.212 13.5088 102.443 13.5088 101.095V96.7141C13.5088 95.3662 14.1838 94.5972 15.4848 94.5972C16.7859 94.5972 17.4609 95.3662 17.4609 96.7141V97.5321H16.2088V96.6299C16.2088 96.0293 15.9448 95.801 15.5229 95.801C15.1011 95.801 14.837 96.0293 14.837 96.6299V101.179C14.837 101.78 15.1011 101.997 15.5229 101.997C15.9448 101.997 16.2088 101.78 16.2088 101.179V99.9752H17.4609Z" fill="#EBEBEB"/>
<path d="M18.1602 96.7141C18.1602 95.3662 18.8706 94.5972 20.1716 94.5972C21.4726 94.5972 22.183 95.3662 22.183 96.7141V101.095C22.183 102.443 21.4726 103.212 20.1716 103.212C18.8706 103.212 18.1602 102.443 18.1602 101.095V96.7141ZM19.4857 101.179C19.4857 101.78 19.7497 102.008 20.1716 102.008C20.5935 102.008 20.8575 101.78 20.8575 101.179V96.6299C20.8575 96.0293 20.5935 95.801 20.1716 95.801C19.7497 95.801 19.4857 96.0293 19.4857 96.6299V101.179Z" fill="#EBEBEB"/>
<path d="M23.0381 94.6951H24.3636V101.913H26.5438V103.117H23.0381V94.6951Z" fill="#EBEBEB"/>
<path d="M27.0146 96.7141C27.0146 95.3662 27.725 94.5972 29.0261 94.5972C30.3271 94.5972 31.0375 95.3662 31.0375 96.7141V101.095C31.0375 102.443 30.3271 103.212 29.0261 103.212C27.725 103.212 27.0146 102.443 27.0146 101.095V96.7141ZM28.3402 101.179C28.3402 101.78 28.6042 102.008 29.0261 102.008C29.448 102.008 29.712 101.78 29.712 101.179V96.6299C29.712 96.0293 29.448 95.801 29.0261 95.801C28.6042 95.801 28.3402 96.0293 28.3402 96.6299V101.179Z" fill="#EBEBEB"/>
<path d="M33.1573 94.6951V101.193C33.1573 101.793 33.4214 102.011 33.8432 102.011C34.2651 102.011 34.5291 101.793 34.5291 101.193V94.6951H35.7812V101.108C35.7812 102.456 35.1062 103.225 33.8051 103.225C32.5041 103.225 31.8291 102.456 31.8291 101.108V94.6951H33.1546H33.1573Z" fill="#EBEBEB"/>
<path d="M39.4583 103.117C39.3848 102.899 39.3386 102.769 39.3386 102.081V100.758C39.3386 99.9752 39.0745 99.6872 38.4703 99.6872H38.013V103.117H36.6875V94.6951H38.688C40.0626 94.6951 40.6532 95.3337 40.6532 96.6327V97.293C40.6532 98.1599 40.3756 98.7252 39.7849 99.0023C40.4491 99.2795 40.6641 99.9154 40.6641 100.796V102.095C40.6641 102.505 40.675 102.804 40.8083 103.117H39.4583ZM38.013 95.8989V98.486H38.5302C39.0255 98.486 39.3249 98.2686 39.3249 97.5947V96.7658C39.3249 96.1652 39.1208 95.8989 38.6499 95.8989H38.0103H38.013Z" fill="#EBEBEB"/>
<path d="M17.1752 84.3738H16.209L16.2607 84.1238H18.479L18.4245 84.3738H17.461L16.9629 86.8576H16.6771L17.1752 84.3738Z" fill="#E0E0E0"/>
<path d="M20.338 84.8032L18.8355 87.124C18.5824 87.5153 18.3891 87.6349 18.0925 87.6349C17.9019 87.6349 17.706 87.5697 17.6025 87.4501L17.7522 87.2463C17.8421 87.3387 17.9591 87.3957 18.117 87.3957C18.2939 87.3957 18.43 87.3142 18.5906 87.0642L18.7348 86.8468L18.2231 84.8032H18.5035L18.9308 86.5533L20.0549 84.8032H20.3407H20.338Z" fill="#E0E0E0"/>
<path d="M22.6275 85.6537C22.6275 86.3603 22.1349 86.8766 21.4626 86.8766C21.0706 86.8766 20.7985 86.7163 20.6787 86.4282L20.4446 87.6158H20.167L20.7277 84.8031H20.9944L20.9291 85.132C21.1251 84.9146 21.4 84.7896 21.732 84.7896C22.2601 84.7896 22.633 85.1184 22.633 85.6564L22.6275 85.6537ZM22.3472 85.67C22.3472 85.2678 22.0995 85.0287 21.6694 85.0287C21.1577 85.0287 20.7821 85.4309 20.7821 85.9934C20.7821 86.3956 21.0298 86.6293 21.4599 86.6293C21.9716 86.6293 22.3472 86.2271 22.3472 85.6673V85.67Z" fill="#E0E0E0"/>
<path d="M22.9512 86.007C22.9512 85.3086 23.4493 84.7896 24.1406 84.7896C24.7122 84.7896 25.0769 85.1265 25.0769 85.6564C25.0769 86.3603 24.5788 86.8793 23.8875 86.8793C23.3159 86.8793 22.9512 86.5369 22.9512 86.0097V86.007ZM24.7993 85.67C24.7993 85.2678 24.5516 85.0287 24.1216 85.0287C23.6099 85.0287 23.2288 85.4336 23.2288 85.9934C23.2288 86.3956 23.4765 86.6293 23.9065 86.6293C24.4182 86.6293 24.7993 86.2271 24.7993 85.6673V85.67Z" fill="#E0E0E0"/>
<path d="M27.739 84.8032L27.3797 86.6076C27.2355 87.3332 26.8517 87.6348 26.1821 87.6348C25.7956 87.6348 25.4772 87.5261 25.2676 87.325L25.4309 87.1131C25.5942 87.2816 25.8718 87.3875 26.2012 87.3875C26.721 87.3875 26.9959 87.1484 27.0939 86.6538L27.1402 86.4255C26.9442 86.6457 26.6666 86.7788 26.3182 86.7788C25.7738 86.7788 25.4091 86.4636 25.4091 85.95C25.4091 85.2896 25.899 84.7869 26.5822 84.7869C26.9606 84.7869 27.2681 84.9418 27.3852 85.2543L27.4723 84.8004H27.739V84.8032ZM27.2708 85.6266C27.2708 85.2516 27.0177 85.0287 26.5904 85.0287C26.0705 85.0287 25.6949 85.4119 25.6949 85.9337C25.6949 86.3087 25.9453 86.5315 26.3754 86.5315C26.8925 86.5315 27.2708 86.1483 27.2708 85.6239V85.6266Z" fill="#E0E0E0"/>
<path d="M29.5545 84.7869L29.5027 85.0559C29.4755 85.0559 29.4565 85.0505 29.4238 85.0505C28.9856 85.0505 28.6916 85.3005 28.5909 85.8114L28.3841 86.8549H28.1064L28.5147 84.8005H28.7815L28.7107 85.1755C28.8958 84.9065 29.1652 84.7842 29.5572 84.7842L29.5545 84.7869Z" fill="#E0E0E0"/>
<path d="M31.9114 84.8031L31.5004 86.8576H31.2337L31.299 86.5342C31.103 86.7489 30.8308 86.8766 30.4961 86.8766C29.968 86.8766 29.6006 86.5478 29.6006 86.007C29.6006 85.3032 30.0932 84.7896 30.7628 84.7896C31.1547 84.7896 31.4269 84.9499 31.544 85.2352L31.6311 84.8059H31.9087L31.9114 84.8031ZM31.4487 85.67C31.4487 85.2678 31.201 85.0287 30.771 85.0287C30.2593 85.0287 29.8782 85.4336 29.8782 85.9934C29.8782 86.3956 30.1259 86.6293 30.5559 86.6293C31.0676 86.6293 31.4487 86.2271 31.4487 85.6673V85.67Z" fill="#E0E0E0"/>
<path d="M34.5836 85.6537C34.5836 86.3603 34.0909 86.8766 33.4186 86.8766C33.0267 86.8766 32.7545 86.7163 32.6348 86.4282L32.4007 87.6158H32.123L32.6837 84.8031H32.9505L32.8852 85.132C33.0811 84.9146 33.356 84.7896 33.6881 84.7896C34.2161 84.7896 34.589 85.1184 34.589 85.6564L34.5836 85.6537ZM34.3032 85.67C34.3032 85.2678 34.0555 85.0287 33.6255 85.0287C33.1138 85.0287 32.7382 85.4309 32.7382 85.9934C32.7382 86.3956 32.9859 86.6293 33.4159 86.6293C33.9276 86.6293 34.3032 86.2271 34.3032 85.6673V85.67Z" fill="#E0E0E0"/>
<path d="M37.0743 85.4554C37.0743 85.5288 37.0661 85.6076 37.0498 85.6891L36.8157 86.8576H36.5381L36.7722 85.6864C36.783 85.6212 36.7912 85.5587 36.7912 85.4989C36.7912 85.2054 36.6143 85.0369 36.2604 85.0369C35.8222 85.0369 35.5201 85.276 35.4221 85.7543L35.2044 86.8549H34.9268L35.5065 83.9553H35.7841L35.5528 85.1076C35.7487 84.8847 36.0236 84.7842 36.3394 84.7842C36.8048 84.7842 37.0743 85.0342 37.0743 85.4527V85.4554Z" fill="#E0E0E0"/>
<path d="M39.6768 84.8032L38.1744 87.124C37.9213 87.5153 37.728 87.6349 37.4313 87.6349C37.2408 87.6349 37.0448 87.5697 36.9414 87.4501L37.0911 87.2463C37.1809 87.3387 37.298 87.3957 37.4558 87.3957C37.6327 87.3957 37.7688 87.3142 37.9294 87.0642L38.0737 86.8468L37.562 84.8032H37.8423L38.2697 86.5533L39.3938 84.8032H39.6796H39.6768Z" fill="#E0E0E0"/>
<path d="M45.876 0.347932H4.12598L10.9278 5.24763V14.8867C10.9278 15.9982 11.8315 16.9004 12.9447 16.9004H45.876C46.9892 16.9004 47.8929 15.9982 47.8929 14.8867V2.3589C47.8929 1.24743 46.9892 0.345215 45.876 0.345215V0.347932Z" fill="#F5F5F5"/>
<path d="M44.1341 7.16078C44.1341 7.20154 37.8386 7.23415 30.0705 7.23415C22.3024 7.23415 16.0068 7.20154 16.0068 7.16078C16.0068 7.12001 22.3024 7.0874 30.0705 7.0874C37.8386 7.0874 44.1341 7.12001 44.1341 7.16078Z" fill="#E0E0E0"/>
<path d="M44.1341 10.8619C44.1341 10.9027 37.8386 10.9353 30.0705 10.9353C22.3024 10.9353 16.0068 10.9027 16.0068 10.8619C16.0068 10.8212 22.3024 10.7886 30.0705 10.7886C37.8386 10.7886 44.1341 10.8212 44.1341 10.8619Z" fill="#E0E0E0"/>
<path d="M190.672 108.929C190.672 108.967 147.985 109 95.34 109C42.6945 109 0 108.967 0 108.929C0 108.891 42.6782 108.859 95.34 108.859C148.002 108.859 190.672 108.891 190.672 108.929Z" fill="#263238"/>
<path d="M172.759 95.0593C172.759 95.0593 165.544 86.7681 162.822 78.4769C160.1 70.1858 161.393 71.1369 161.393 71.1369C161.393 71.1369 165.067 79.1916 167.86 83.0804C170.65 86.9719 175.62 92.6787 175.62 92.6787L172.762 95.0566L172.759 95.0593Z" fill="#455A64"/>
<path d="M174.196 72.4304C173.962 72.0255 173.344 72.2347 173.415 72.6967C173.856 75.6099 174.806 82.4417 174.768 86.8767C174.719 92.6352 174.768 94.8608 174.768 94.8608H177.77C177.77 94.8608 177.236 82.9581 176.558 79.3275C176.082 76.7838 175.072 73.9576 174.193 72.4304H174.196Z" fill="#455A64"/>
<path d="M175.832 93.8933C175.832 93.8933 177.721 89.9257 178.303 84.9418C178.551 82.8221 178.11 79.9578 177.454 76.1343C177.136 74.2836 177.065 72.8732 177.076 71.8977C177.084 71.1585 178.058 70.9193 178.42 71.5634C178.782 72.2102 179.833 74.4141 180.097 75.7973C180.824 79.572 181.649 81.4579 181.017 85.0396C180.388 88.6213 178.061 94.1352 178.061 94.1352L175.832 93.8933Z" fill="#455A64"/>
<path d="M178.538 94.1351C178.538 94.1351 186.458 77.137 187.008 74.6178C187.558 72.096 189.425 66.2859 189.643 66.6147C189.863 66.9435 190.193 70.0143 188.764 73.5227C187.338 77.031 181.241 94.6542 181.241 94.6542H178.535" fill="#455A64"/>
<path d="M174.967 93.3744C174.967 93.3744 174.888 93.3255 174.744 93.2222C174.602 93.1162 174.39 92.9668 174.131 92.7548C173.603 92.3417 172.863 91.7113 172.003 90.8797C170.275 89.222 168.122 86.6648 166.257 83.5152C164.387 80.3656 163.13 77.2866 162.335 75.0311C161.938 73.9033 161.646 72.9793 161.459 72.3353C161.361 72.0146 161.295 71.7646 161.249 71.5934C161.203 71.4222 161.181 71.3325 161.186 71.3325C161.192 71.3325 161.224 71.4168 161.282 71.5853C161.342 71.7673 161.42 72.0119 161.521 72.3163C161.728 72.9522 162.036 73.868 162.449 74.9903C163.271 77.2296 164.542 80.2922 166.404 83.4282C168.263 86.5643 170.389 89.1215 172.09 90.7927C172.936 91.6352 173.663 92.2738 174.178 92.7032C174.431 92.9233 174.638 93.0809 174.771 93.195C174.907 93.3092 174.975 93.3689 174.972 93.3744H174.967Z" fill="#263238"/>
<path d="M175.832 85.219C175.832 85.219 175.797 85.0424 175.761 84.719C175.723 84.3657 175.674 83.9092 175.614 83.3575C175.489 82.208 175.293 80.621 175.013 78.879C174.733 77.1371 174.42 75.5691 174.177 74.4386C174.06 73.8951 173.962 73.444 173.889 73.0989C173.821 72.7836 173.788 72.607 173.799 72.6043C173.81 72.6016 173.864 72.7728 173.951 73.0853C174.041 73.3978 174.158 73.8516 174.294 74.4141C174.566 75.5392 174.899 77.1072 175.179 78.8546C175.459 80.602 175.636 82.1917 175.731 83.3467C175.78 83.9228 175.81 84.3929 175.824 84.7163C175.838 85.0397 175.84 85.219 175.829 85.219H175.832Z" fill="#263238"/>
<path d="M177.689 71.4275C177.689 71.4275 177.727 71.5009 177.781 71.6422C177.841 71.8025 177.92 72.0118 178.018 72.2727C178.124 72.5472 178.244 72.8841 178.358 73.2836C178.475 73.6831 178.628 74.1315 178.742 74.6451C178.804 74.9005 178.87 75.1668 178.938 75.444C179.003 75.7212 179.052 76.0174 179.112 76.3191C179.243 76.9224 179.322 77.5773 179.417 78.2648C179.572 79.6426 179.656 81.1671 179.605 82.7705C179.539 84.3711 179.346 85.8875 179.093 87.2517C178.949 87.9311 178.821 88.5778 178.649 89.1703C178.568 89.4665 178.5 89.7572 178.413 90.0317C178.325 90.3035 178.241 90.5643 178.159 90.8144C178.007 91.3171 177.825 91.7546 177.678 92.1432C177.533 92.5346 177.389 92.8634 177.267 93.127C177.15 93.3797 177.057 93.5835 176.984 93.7384C176.918 93.877 176.88 93.9504 176.875 93.9477C176.869 93.9477 176.896 93.8689 176.954 93.7248C177.016 93.5672 177.101 93.358 177.207 93.0998C177.321 92.8308 177.457 92.4992 177.591 92.1079C177.727 91.7166 177.904 91.2763 178.048 90.7736C178.124 90.5236 178.206 90.2627 178.29 89.9909C178.372 89.7192 178.437 89.4284 178.516 89.1322C178.682 88.5398 178.802 87.8957 178.943 87.2218C179.186 85.863 179.376 84.3548 179.439 82.765C179.488 81.1726 179.409 79.6562 179.264 78.2838C179.172 77.599 179.098 76.9495 178.976 76.3463C178.919 76.0446 178.875 75.7511 178.813 75.4739C178.747 75.1967 178.687 74.9304 178.628 74.675C178.521 74.1641 178.377 73.713 178.268 73.3135C178.162 72.9113 178.051 72.5716 177.958 72.2944C177.871 72.0281 177.803 71.8161 177.751 71.6531C177.705 71.5063 177.683 71.4275 177.689 71.4248V71.4275Z" fill="#263238"/>
<path d="M189.553 66.9546C189.553 66.9546 189.553 66.9818 189.547 67.0307C189.539 67.0905 189.525 67.1638 189.512 67.2508C189.476 67.4437 189.433 67.7318 189.357 68.096C189.204 68.827 188.948 69.8786 188.554 71.1559C188.159 72.4331 187.617 73.9305 186.975 75.5746C186.335 77.2214 185.592 79.0123 184.89 80.92C184.177 82.8249 183.627 84.6837 183.11 86.3713C182.598 88.0589 182.111 89.5753 181.643 90.8281C181.178 92.0808 180.731 93.0673 180.391 93.7358C180.228 94.0728 180.083 94.3228 179.988 94.4967C179.945 94.5755 179.906 94.638 179.877 94.6924C179.852 94.7359 179.836 94.7576 179.833 94.7549C179.833 94.7549 179.841 94.7304 179.86 94.6842C179.887 94.6299 179.917 94.5619 179.955 94.4831C180.04 94.3065 180.176 94.051 180.328 93.7086C180.647 93.0347 181.077 92.0455 181.526 90.79C181.981 89.5372 182.454 88.0209 182.958 86.3306C183.467 84.643 184.014 82.776 184.73 80.8656C185.435 78.9525 186.183 77.1616 186.828 75.5202C187.476 73.8816 188.028 72.3924 188.437 71.1233C188.848 69.8542 189.117 68.8107 189.291 68.0851C189.378 67.7236 189.433 67.4383 189.479 67.2481C189.501 67.1611 189.517 67.0905 189.531 67.0307C189.544 66.9818 189.55 66.9573 189.555 66.9573L189.553 66.9546Z" fill="#263238"/>
<path d="M165.127 63.1989C164.629 62.7043 163.799 63.2206 164.006 63.8946C164.216 64.5767 164.534 65.4571 165.002 66.449C166.091 68.7589 169.289 77.0501 170.789 81.6047C172.286 86.1566 174.395 94.6515 174.395 94.6515L177.593 94.1325C177.593 94.1325 174.667 80.1753 171.81 75.1451C169.512 71.1042 167.215 65.2642 165.13 63.1962L165.127 63.1989Z" fill="#455A64"/>
<path d="M171.66 84.4527C171.66 84.4527 171.728 84.5858 171.826 84.8358C171.921 85.0858 172.049 85.4527 172.193 85.9065C172.487 86.8169 172.849 88.0887 173.211 89.5018C173.573 90.9149 173.875 92.2003 174.085 93.1352C174.18 93.5754 174.262 93.9477 174.324 94.2412C174.379 94.5021 174.401 94.6488 174.39 94.6515C174.379 94.6543 174.332 94.5129 174.259 94.2548C174.18 93.964 174.082 93.5971 173.965 93.1623C173.72 92.2031 173.399 90.9394 173.042 89.5426C172.68 88.1322 172.337 86.8577 172.073 85.9392C171.948 85.5071 171.842 85.1429 171.758 84.8521C171.681 84.5967 171.643 84.4527 171.654 84.45L171.66 84.4527Z" fill="#263238"/>
<path d="M175.999 94.3934C175.999 94.3934 175.991 94.3635 175.98 94.3091C175.969 94.2439 175.958 94.1597 175.944 94.0564C175.912 93.8363 175.882 93.5075 175.814 93.089C175.697 92.2492 175.487 91.0427 175.144 89.567C174.804 88.0914 174.306 86.3576 173.647 84.4662C172.991 82.5748 172.169 80.5313 171.236 78.417C169.355 74.1913 167.474 70.4438 166.241 67.6719C165.618 66.2887 165.133 65.1609 164.815 64.3756C164.652 63.9842 164.537 63.6744 164.456 63.4679C164.42 63.3701 164.39 63.294 164.366 63.2288C164.347 63.1744 164.339 63.1472 164.341 63.1445C164.344 63.1445 164.358 63.169 164.382 63.2206C164.409 63.2831 164.445 63.3592 164.486 63.4516C164.581 63.669 164.709 63.9679 164.875 64.3484C165.212 65.1256 165.71 66.2452 166.347 67.6203C167.61 70.3759 169.505 74.1152 171.388 78.3464C172.322 80.466 173.141 82.5151 173.792 84.4146C174.442 86.3142 174.929 88.0561 175.259 89.5399C175.588 91.0209 175.781 92.2356 175.876 93.0808C175.934 93.502 175.953 93.8308 175.977 94.0537C175.985 94.1569 175.991 94.2412 175.996 94.3064C175.999 94.3635 175.999 94.3934 175.996 94.3934H175.999Z" fill="#263238"/>
<path d="M177.59 94.1352C177.59 94.1352 177.541 93.945 177.482 93.5999C177.419 93.2249 177.335 92.7303 177.234 92.1324C177.013 90.8959 176.676 89.1921 176.194 87.3387C175.715 85.4826 175.176 83.8304 174.76 82.6455C174.556 82.0749 174.387 81.602 174.259 81.2433C174.139 80.9118 174.079 80.727 174.09 80.7242C174.101 80.7188 174.183 80.8955 174.321 81.2216C174.46 81.5449 174.651 82.0178 174.874 82.6075C175.318 83.7842 175.878 85.4364 176.36 87.2979C176.845 89.1594 177.163 90.8715 177.354 92.1161C177.443 92.7384 177.514 93.2439 177.55 93.5945C177.588 93.945 177.604 94.138 177.593 94.1407L177.59 94.1352Z" fill="#263238"/>
<path d="M184.153 93.676H171.671V108.859H184.153V93.676Z" fill="#F15C59"/>
<g opacity="0.3">
<path d="M184.153 93.676H171.671V108.859H184.153V93.676Z" fill="black"/>
</g>
<path d="M180.171 93.676H169.099V108.859H180.171V93.676Z" fill="#F15C59"/>
<path d="M17.9063 88.3958C15.7806 87.0371 12.8329 87.0099 10.7643 88.4556C8.79911 89.828 7.80293 92.3227 7.89003 94.7141C7.97712 97.1055 9.13662 100.027 11.3086 101.285L17.6777 101.261C19.7109 99.766 21.0881 97.361 21.1834 94.8418C21.2787 92.3227 20.0348 89.7573 17.909 88.3986L17.9063 88.3958Z" fill="#455A64"/>
<path d="M14.7711 101.513C14.7575 101.513 14.7439 101.318 14.7303 100.967C14.7194 100.576 14.7058 100.076 14.6867 99.4752C14.6541 98.2169 14.6051 96.4777 14.5207 94.5564C14.4363 92.6352 14.3329 90.8987 14.254 89.6432C14.2186 89.0453 14.1886 88.5453 14.1641 88.154C14.1451 87.8007 14.1424 87.6077 14.156 87.605C14.1696 87.6023 14.1995 87.798 14.2431 88.1458C14.2866 88.4964 14.3383 89.0045 14.3955 89.6323C14.5098 90.8878 14.6377 92.627 14.7221 94.5483C14.8065 96.4696 14.8337 98.2115 14.8283 99.4725C14.8283 100.103 14.8174 100.614 14.8065 100.964C14.7956 101.318 14.782 101.511 14.7684 101.511L14.7711 101.513Z" fill="#263238"/>
<path d="M8.53266 94.1707C8.52721 94.2277 8.18154 94.244 7.75966 94.2087C7.33778 94.1734 6.99755 94.1 7.00299 94.0457C7.00844 93.9886 7.35411 93.9723 7.77599 94.0076C8.19787 94.0429 8.5381 94.1163 8.53266 94.1707Z" fill="#263238"/>
<path d="M8.64979 92.0264C8.62802 92.078 8.32861 91.9965 7.98294 91.8416C7.63727 91.6894 7.37598 91.5237 7.39775 91.472C7.41953 91.4204 7.71893 91.5019 8.0646 91.6568C8.41027 91.809 8.67156 91.9748 8.64979 92.0264Z" fill="#263238"/>
<path d="M9.75772 90.4339C9.72778 90.4801 9.39299 90.3225 9.0446 90.0345C8.69621 89.7464 8.47574 89.4475 8.51657 89.4094C8.5574 89.3714 8.83502 89.5997 9.17253 89.8768C9.51003 90.1568 9.78766 90.385 9.75772 90.4339Z" fill="#263238"/>
<path d="M10.8677 88.9312C10.816 88.953 10.6554 88.703 10.5084 88.3714C10.3615 88.0399 10.2825 87.7518 10.3342 87.7301C10.386 87.7083 10.5465 87.9584 10.6935 88.2899C10.8405 88.6214 10.9194 88.9095 10.8677 88.9312Z" fill="#263238"/>
<path d="M12.6125 87.8632C12.5636 87.8876 12.3894 87.6186 12.275 87.249C12.158 86.8794 12.1498 86.5615 12.2043 86.5506C12.2614 86.5397 12.3567 86.8305 12.4683 87.1865C12.5799 87.5425 12.6643 87.836 12.6125 87.8604V87.8632Z" fill="#263238"/>
<path d="M15.5247 86.6621C15.5764 86.6811 15.5465 86.9094 15.4512 87.1703C15.3587 87.4339 15.2389 87.6295 15.1872 87.6132C15.1355 87.5942 15.1654 87.3659 15.2607 87.105C15.3532 86.8414 15.473 86.6458 15.5247 86.6621Z" fill="#263238"/>
<path d="M17.6858 87.5886C17.7239 87.6294 17.5851 87.8196 17.3755 88.0126C17.1659 88.2055 16.9673 88.3278 16.9291 88.2871C16.891 88.2463 17.0299 88.0561 17.2394 87.8631C17.449 87.6702 17.6477 87.5479 17.6858 87.5886Z" fill="#263238"/>
<path d="M19.586 88.8144C19.6186 88.8606 19.4472 89.0291 19.2076 89.1921C18.9681 89.3552 18.7476 89.4476 18.715 89.4014C18.6823 89.3552 18.8511 89.1867 19.0933 89.0236C19.3328 88.8606 19.5533 88.7682 19.586 88.8144Z" fill="#263238"/>
<path d="M20.9354 90.6406C20.9572 90.6922 20.6905 90.8553 20.3393 91.0047C19.9882 91.1542 19.6861 91.233 19.6643 91.1814C19.6426 91.1297 19.9093 90.9667 20.2577 90.8172C20.6088 90.6678 20.9109 90.5889 20.9327 90.6406H20.9354Z" fill="#263238"/>
<path d="M21.4665 92.6352C21.4746 92.6896 21.2024 92.7711 20.8622 92.8119C20.522 92.8554 20.2389 92.8418 20.2335 92.7874C20.228 92.7331 20.4975 92.6516 20.8377 92.6108C21.178 92.5673 21.461 92.5809 21.4665 92.6352Z" fill="#263238"/>
<path d="M21.744 95.089C21.7222 95.1406 21.4337 95.0646 21.0989 94.9205C20.7641 94.7765 20.5137 94.6162 20.5355 94.5645C20.5573 94.5129 20.8458 94.589 21.1806 94.733C21.5154 94.877 21.7658 95.0374 21.744 95.089Z" fill="#263238"/>
<path d="M21.5015 97.1951C21.4825 97.2467 21.1177 97.1597 20.7367 96.9097C20.3529 96.6624 20.127 96.3635 20.1678 96.3255C20.2087 96.2847 20.4863 96.5048 20.8483 96.7385C21.2076 96.975 21.5206 97.1407 21.5015 97.1951Z" fill="#263238"/>
<path d="M20.402 99.1109C20.3694 99.1544 20.0781 98.9832 19.8005 98.6842C19.5202 98.3853 19.3732 98.0837 19.4167 98.0538C19.463 98.0212 19.6808 98.2603 19.9475 98.5484C20.2142 98.8364 20.4374 99.0701 20.402 99.1136V99.1109Z" fill="#263238"/>
<path d="M9.97543 99.3366C10.0026 99.3855 9.69508 99.5948 9.29497 99.804C8.89214 100.013 8.54647 100.141 8.51925 100.092C8.49204 100.043 8.7996 99.8339 9.19971 99.6247C9.60254 99.4154 9.94821 99.2877 9.97543 99.3366Z" fill="#263238"/>
<path d="M9.02203 97.6028C9.04653 97.6544 8.80157 97.8147 8.47495 97.9615C8.15105 98.1082 7.86798 98.187 7.84349 98.1354C7.81899 98.0838 8.06395 97.9234 8.39057 97.7767C8.71447 97.6299 8.99754 97.5511 9.02203 97.6028Z" fill="#263238"/>
<path d="M8.32292 96.0673C8.33109 96.1216 8.02897 96.2113 7.65063 96.2657C7.2723 96.32 6.95657 96.3173 6.9484 96.263C6.94024 96.2086 7.24236 96.1189 7.62069 96.0646C7.99903 96.0102 8.31476 96.0129 8.32292 96.0673Z" fill="#263238"/>
<path d="M10.6197 95.2195C10.636 95.2712 10.342 95.4098 9.95009 95.4532C9.55814 95.4994 9.24241 95.4288 9.24513 95.3744C9.24786 95.3174 9.55542 95.2929 9.92559 95.2494C10.2958 95.2087 10.6006 95.1625 10.6169 95.2195H10.6197Z" fill="#263238"/>
<path d="M12.5279 93.3253C12.5442 93.377 12.3101 93.4965 11.9944 93.5264C11.6786 93.559 11.4282 93.4884 11.4337 93.434C11.4391 93.377 11.6814 93.3552 11.9753 93.3253C12.2693 93.2981 12.5115 93.271 12.5279 93.3253Z" fill="#263238"/>
<path d="M12.8925 91.8064C12.8735 91.858 12.6203 91.8199 12.3264 91.7194C12.0324 91.6189 11.8092 91.4938 11.8283 91.4395C11.8473 91.3879 12.1005 91.4259 12.3944 91.5265C12.6884 91.627 12.9116 91.752 12.8925 91.8064Z" fill="#263238"/>
<path d="M13.5926 90.2709C13.5545 90.309 13.3803 90.1949 13.2551 89.9802C13.1299 89.7655 13.119 89.559 13.1707 89.5426C13.2251 89.5263 13.3204 89.6867 13.4293 89.8769C13.5381 90.0671 13.6307 90.2302 13.5899 90.2682L13.5926 90.2709Z" fill="#263238"/>
<path d="M12.7484 96.5565C12.762 96.6109 12.5415 96.7114 12.2585 96.7794C12.0952 96.8201 11.9455 96.8392 11.8475 96.8392L11.8066 96.7196C11.8801 96.706 11.9264 96.7087 11.9373 96.7305C11.9455 96.7522 11.9182 96.7903 11.8584 96.8337L11.8175 96.7142C11.9046 96.668 12.0462 96.6191 12.2095 96.5783C12.4925 96.5104 12.7348 96.4968 12.7484 96.5511V96.5565Z" fill="#263238"/>
<path d="M13.1404 99.2497C13.1622 99.3013 12.8818 99.4616 12.5171 99.6029C12.1524 99.747 11.8394 99.8203 11.8176 99.7687C11.7958 99.7171 12.0762 99.5595 12.4409 99.4154C12.8056 99.2714 13.1186 99.198 13.1404 99.2497Z" fill="#263238"/>
<path d="M10.9874 98.0538C11.0065 98.1082 10.8187 98.2169 10.571 98.3011C10.3233 98.3853 10.1083 98.4098 10.0892 98.3582C10.0702 98.3038 10.258 98.1951 10.5057 98.1109C10.7533 98.0266 10.9684 98.0022 10.9874 98.0538Z" fill="#263238"/>
<path d="M11.1504 92.5753C11.1368 92.6297 10.8129 92.5971 10.4373 92.4639C10.0617 92.3307 9.78953 92.1514 9.81403 92.1025C9.83853 92.0508 10.1406 92.1432 10.5054 92.271C10.8701 92.4014 11.1641 92.5182 11.1504 92.5726V92.5753Z" fill="#263238"/>
<path d="M16.3659 91.9775C16.3959 92.0237 16.2135 92.2003 15.9577 92.3688C15.7018 92.5373 15.4677 92.6351 15.4378 92.5889C15.4078 92.5427 15.5902 92.3688 15.8461 92.1976C16.1019 92.0291 16.336 91.9313 16.3659 91.9775Z" fill="#263238"/>
<path d="M16.6494 94.6814C16.6603 94.7358 16.4698 94.8227 16.2194 94.8744C15.9717 94.926 15.7621 94.9233 15.7485 94.8689C15.7376 94.8146 15.9281 94.7276 16.1785 94.676C16.4262 94.6244 16.6358 94.6271 16.6494 94.6814Z" fill="#263238"/>
<path d="M16.9785 97.7196C16.954 97.7713 16.6791 97.6925 16.3606 97.5457C16.0422 97.399 15.8054 97.2386 15.8299 97.187C15.8544 97.1354 16.1293 97.2142 16.4477 97.3609C16.7662 97.5077 17.003 97.668 16.9785 97.7196Z" fill="#263238"/>
<path d="M16.2816 100.679C16.238 100.714 16.0584 100.568 15.8815 100.353C15.7045 100.136 15.5957 99.9317 15.6365 99.8964C15.68 99.861 15.8597 100.008 16.0366 100.222C16.2135 100.44 16.3224 100.644 16.2816 100.679Z" fill="#263238"/>
<path d="M16.1404 89.9884C16.1758 90.0318 16.056 90.1813 15.8519 90.2819C15.6477 90.3851 15.4572 90.3906 15.4436 90.3362C15.4273 90.2819 15.577 90.1922 15.7593 90.0998C15.9417 90.0074 16.1023 89.9422 16.1377 89.9884H16.1404Z" fill="#263238"/>
<path d="M18.6954 92.714C18.7145 92.7656 18.4777 92.896 18.1538 92.9395C17.8299 92.9857 17.5686 92.9232 17.5713 92.8689C17.574 92.8118 17.8244 92.7792 18.1266 92.7384C18.4287 92.6977 18.6764 92.6596 18.6954 92.714Z" fill="#263238"/>
<path d="M18.1838 90.2682C18.2083 90.3171 17.9742 90.4856 17.6395 90.5916C17.3047 90.6976 17.0162 90.6976 17.008 90.6432C16.9998 90.5862 17.2584 90.4992 17.5769 90.3987C17.8953 90.2981 18.1566 90.2193 18.1811 90.2709L18.1838 90.2682Z" fill="#263238"/>
<path d="M19.2533 96.5048C19.2533 96.5592 18.8505 96.5945 18.366 96.5048C17.8815 96.4179 17.5168 96.2439 17.5359 96.1923C17.5549 96.138 17.9333 96.2222 18.4014 96.3037C18.8696 96.3907 19.2533 96.445 19.2506 96.5021L19.2533 96.5048Z" fill="#263238"/>
<path d="M18.3036 100.059C18.271 100.103 17.9743 99.929 17.6803 99.6328C17.3837 99.3366 17.2122 99.0403 17.2557 99.0077C17.302 98.9724 17.5388 99.2034 17.8246 99.4887C18.1104 99.7768 18.339 100.013 18.3036 100.059Z" fill="#263238"/>
<path d="M14.129 87.374C14.159 87.4175 13.3179 87.7572 12.3462 88.7817C11.3745 89.7818 10.3729 91.5482 10.1252 93.6814C10.0082 94.7412 10.1089 95.7685 10.2586 96.6843C10.4165 97.6001 10.6288 98.4153 10.822 99.0947C11.018 99.7741 11.1976 100.318 11.3174 100.693C11.4371 101.07 11.5025 101.28 11.4889 101.285C11.4753 101.29 11.3882 101.089 11.2439 100.72C11.0996 100.35 10.9009 99.8121 10.6859 99.1355C10.4736 98.4588 10.2477 97.6436 10.0762 96.7169C9.91293 95.7929 9.80406 94.7494 9.92382 93.6597C10.1769 91.4775 11.2248 89.6785 12.2428 88.6839C12.7491 88.1784 13.2254 87.8414 13.5738 87.6458C13.7425 87.5398 13.8868 87.4827 13.9821 87.4338C14.0773 87.3903 14.129 87.3686 14.1318 87.3767L14.129 87.374Z" fill="#263238"/>
<path d="M16.8996 101.413C16.8561 101.391 17.3569 100.619 17.8141 99.2334C18.285 97.861 18.6742 95.831 18.3612 93.6271C18.2143 92.5265 17.8958 91.5074 17.4957 90.6378C17.0793 89.7791 16.5431 89.0753 16.0205 88.5834C15.4788 88.1051 14.9453 87.8306 14.5725 87.6703C14.1968 87.5127 13.9709 87.4773 13.9737 87.461C13.9737 87.4556 14.0308 87.4583 14.1397 87.4746C14.2458 87.4937 14.4037 87.529 14.5997 87.5996C14.9889 87.7409 15.5387 87.9991 16.113 88.4774C16.671 88.9747 17.2235 89.6758 17.6644 90.559C18.0836 91.4449 18.4129 92.4803 18.5626 93.5999C18.8811 95.8473 18.4619 97.9072 17.9502 99.2823C17.8359 99.6328 17.6862 99.9345 17.5773 100.204C17.4467 100.464 17.3378 100.693 17.2398 100.872C17.033 101.228 16.9132 101.421 16.9023 101.413H16.8996Z" fill="#263238"/>
<path d="M9.02246 100.935H20.2336L20.3017 103.174H9.02246V100.935Z" fill="#F15C59"/>
<path d="M9.97461 102.054L10.6197 108.891H18.8151L19.471 102.128L9.97461 102.054Z" fill="#F15C59"/>
<path d="M20.3021 103.201C20.3021 103.258 17.779 103.301 14.6652 103.301C11.5515 103.301 9.02832 103.255 9.02832 103.201C9.02832 103.147 11.5515 103.1 14.6652 103.1C17.779 103.1 20.3021 103.147 20.3021 103.201Z" fill="#263238"/>
<path d="M19.1616 105.283C19.1616 105.283 19.0963 105.446 18.9221 105.709C18.7452 105.97 18.4676 106.34 18.0538 106.734L18.0021 106.783L17.9504 106.728C17.4115 106.163 16.6684 105.47 15.7539 104.81L15.8791 104.804C15.5661 105.079 15.2395 105.364 14.9047 105.658C14.5073 106.003 14.1208 106.34 13.7534 106.658L13.6908 106.712L13.6282 106.658C12.9314 106.071 12.2945 105.538 11.7555 105.087L11.8644 105.076C11.4779 105.546 11.154 105.943 10.8955 106.255C10.6614 106.533 10.528 106.679 10.5144 106.671C10.5035 106.663 10.6151 106.495 10.8274 106.204C11.0697 105.88 11.3772 105.47 11.7419 104.984L11.7882 104.921L11.8508 104.973C12.3979 105.416 13.043 105.938 13.7506 106.511H13.6227C13.9902 106.19 14.3739 105.853 14.7686 105.508C15.1034 105.215 15.4327 104.932 15.7457 104.658L15.8056 104.606L15.8682 104.652C16.7909 105.329 17.5285 106.046 18.0538 106.633H17.9504C18.7806 105.875 19.1262 105.258 19.1589 105.283H19.1616Z" fill="#263238"/>
<path d="M153.843 23.4414H35.1932C33.003 23.4414 31.2275 25.2141 31.2275 27.4008V103.057C31.2275 105.244 33.003 107.016 35.1932 107.016H153.843C156.033 107.016 157.809 105.244 157.809 103.057V27.4008C157.809 25.2141 156.033 23.4414 153.843 23.4414Z" fill="#455A64"/>
<path d="M27.0848 101.616H164.224V104.092C164.224 106.761 162.054 108.929 159.379 108.929H31.9269C29.254 108.929 27.082 106.763 27.082 104.092V101.616H27.0848Z" fill="#455A64"/>
<path d="M82.0381 100.834L83.7419 103.535H107.689L109.267 100.834H82.0381Z" fill="#263238"/>
<path d="M156.72 100.834C156.72 100.88 128.625 100.915 93.9764 100.915C59.3276 100.915 31.2275 100.88 31.2275 100.834C31.2275 100.788 59.3167 100.752 93.9764 100.752C128.636 100.752 156.72 100.788 156.72 100.834Z" fill="#263238"/>
<path d="M35.7426 28.2461H152.795C153.287 28.2461 153.685 28.6456 153.685 29.1347V97.7333C153.685 98.2251 153.284 98.6219 152.795 98.6219H35.7426C35.2499 98.6219 34.8525 98.2224 34.8525 97.7333V29.1347C34.8525 28.6429 35.2526 28.2461 35.7426 28.2461Z" fill="#EBEBEB"/>
<path d="M153.559 98.728H34.7246L34.8525 33.5073H153.559V98.728Z" fill="white"/>
<path d="M44.599 30.9636C44.599 31.488 44.1744 31.912 43.6491 31.912C43.1238 31.912 42.6992 31.488 42.6992 30.9636C42.6992 30.4391 43.1238 30.0151 43.6491 30.0151C44.1744 30.0151 44.599 30.4391 44.599 30.9636Z" fill="#263238"/>
<path d="M38.8451 30.9636C38.8451 31.488 38.4205 31.912 37.8952 31.912C37.3699 31.912 36.9453 31.488 36.9453 30.9636C36.9453 30.4391 37.3699 30.0151 37.8952 30.0151C38.4205 30.0151 38.8451 30.4391 38.8451 30.9636Z" fill="#263238"/>
<path d="M41.6078 30.9636C41.6078 31.488 41.1832 31.912 40.6579 31.912C40.1326 31.912 39.708 31.488 39.708 30.9636C39.708 30.4391 40.1326 30.0151 40.6579 30.0151C41.1832 30.0151 41.6078 30.4391 41.6078 30.9636Z" fill="#263238"/>
<path d="M153.687 92.4285H34.7246V98.7277H153.687V92.4285Z" fill="#263238"/>
<path d="M51.0209 37.385H44.0176L40.5146 43.4397L44.0176 49.497H51.0209L54.5239 43.4397L51.0209 37.385Z" fill="#EBEBEB"/>
<path d="M44.589 44.6244C44.276 44.2793 43.9603 43.9287 43.7317 43.5211C43.503 43.1135 43.3669 42.6406 43.4431 42.1786C43.4867 41.9096 43.601 41.6541 43.6201 41.3824C43.6446 41.0074 43.4867 40.6161 43.6201 40.2655C43.8269 39.7166 44.5673 39.6323 45.0164 39.2546C45.3648 38.9584 45.5362 38.4801 45.92 38.2328C46.2548 38.0154 46.6876 38.0208 47.0822 38.0779C47.4769 38.1349 47.877 38.2328 48.2717 38.1811C48.5547 38.1431 48.8187 38.029 49.0964 37.961C49.374 37.8931 49.6816 37.8741 49.9265 38.0181C50.1715 38.1621 50.3103 38.51 50.1497 38.7437C50.6097 38.5317 51.1922 38.8904 51.3174 39.3769C51.4426 39.866 51.1922 40.3932 50.8029 40.7166C50.4137 41.04 49.9102 41.1895 49.4148 41.2818C48.0104 41.5454 46.4834 41.396 45.2722 40.6378" fill="#263238"/>
<path d="M51.0828 46.1219C51.0366 45.2551 50.7916 43.4778 50.5548 41.8717C50.299 40.1434 48.7557 38.9042 47.011 39.0211L46.8368 39.0319C44.9751 39.2656 44.134 40.975 44.4198 42.8283L44.9669 49.4998H49.5123C49.5123 49.4998 49.4062 48.3286 49.4035 48.3177C49.4035 48.3177 51.1808 47.9182 51.0828 46.1247V46.1219Z" fill="#FFBE9D"/>
<path d="M49.4036 48.2877C49.4036 48.2877 48.2741 48.4562 47.0166 47.7795C47.0166 47.7795 47.6562 49.0323 49.439 48.7524L49.4036 48.2877Z" fill="#EB996E"/>
<path d="M49.9758 43.4098C49.9894 43.5457 49.886 43.668 49.7444 43.6843C49.6029 43.7006 49.4777 43.6055 49.4641 43.4723C49.4505 43.3365 49.5539 43.2142 49.6927 43.1979C49.8343 43.1816 49.9595 43.2767 49.9731 43.4125L49.9758 43.4098Z" fill="#263238"/>
<path d="M50.226 42.774C50.1961 42.8093 49.9919 42.6788 49.717 42.6979C49.4421 42.7142 49.2489 42.8691 49.2162 42.8365C49.1999 42.8229 49.2298 42.7604 49.3115 42.6897C49.3931 42.6191 49.5374 42.5484 49.7089 42.5375C49.8803 42.5267 50.03 42.581 50.1171 42.6408C50.207 42.7006 50.2396 42.7576 50.2233 42.774H50.226Z" fill="#263238"/>
<path d="M47.3684 43.5946C47.382 43.7305 47.2786 43.8528 47.137 43.8691C46.9955 43.8854 46.8703 43.7903 46.8567 43.6571C46.8431 43.5213 46.9465 43.399 47.0853 43.3827C47.2268 43.3664 47.352 43.4615 47.3657 43.5974L47.3684 43.5946Z" fill="#263238"/>
<path d="M47.5151 43.0049C47.4851 43.0402 47.281 42.9098 47.0061 42.9288C46.7312 42.9451 46.5379 43.1 46.5053 43.0674C46.4889 43.0538 46.5189 42.9913 46.6032 42.9207C46.6849 42.85 46.8292 42.7794 47.0006 42.7685C47.1721 42.7576 47.3218 42.812 47.4089 42.8717C47.4987 42.9315 47.5314 42.9886 47.5151 43.0049Z" fill="#263238"/>
<path d="M48.6558 44.9832C48.6558 44.9669 48.8218 44.9261 49.0995 44.8718C49.1702 44.8609 49.2355 44.8419 49.2437 44.793C49.2573 44.7414 49.2219 44.668 49.1838 44.5865C49.1049 44.4207 49.026 44.2468 48.9389 44.0647C48.5986 43.3201 48.3455 42.7086 48.3755 42.6951C48.4054 42.6815 48.7075 43.2739 49.0477 44.0185C49.1294 44.2033 49.2083 44.3772 49.2845 44.5457C49.3172 44.6245 49.3689 44.7115 49.339 44.8202C49.3226 44.8745 49.2737 44.9153 49.2301 44.9316C49.1866 44.9479 49.1457 44.9506 49.1103 44.956C48.8327 44.9886 48.6585 45.0022 48.6558 44.9859V44.9832Z" fill="#263238"/>
<path d="M47.515 41.9208C47.4932 41.9968 47.2156 41.9805 46.8944 42.0403C46.5705 42.0947 46.3174 42.2061 46.2684 42.1436C46.2466 42.1137 46.2874 42.0403 46.3881 41.9588C46.4889 41.88 46.6494 41.7985 46.8427 41.7659C47.0359 41.7305 47.2156 41.7496 47.3381 41.7903C47.4605 41.8311 47.5232 41.8854 47.515 41.9208Z" fill="#263238"/>
<path d="M50.0705 41.9832C50.0269 42.0484 49.831 41.9968 49.6023 42.0076C49.3737 42.0131 49.1832 42.0783 49.1342 42.0158C49.1124 41.9859 49.1396 41.9207 49.2186 41.8555C49.2975 41.7902 49.4336 41.7332 49.5914 41.7277C49.7493 41.7223 49.8881 41.7685 49.9725 41.8283C50.0569 41.8881 50.0895 41.9506 50.0678 41.9832H50.0705Z" fill="#263238"/>
<path d="M44.6571 44.1436C44.6244 44.1327 43.3968 43.8609 43.5193 45.0866C43.6418 46.3094 44.9701 45.9127 44.9673 45.8774C44.9673 45.842 44.6571 44.1463 44.6571 44.1463V44.1436Z" fill="#FFBE9D"/>
<path d="M44.4232 45.4724C44.4232 45.4724 44.4042 45.4887 44.3688 45.5104C44.3361 45.5294 44.2763 45.5457 44.2082 45.5294C44.0748 45.4941 43.9442 45.3012 43.917 45.081C43.9034 44.9696 43.917 44.8609 43.9469 44.7712C43.9741 44.6789 44.0286 44.6109 44.0912 44.5919C44.1538 44.5701 44.2055 44.6055 44.2218 44.6381C44.2409 44.6707 44.2354 44.6952 44.2436 44.6979C44.2463 44.7006 44.2681 44.6761 44.2518 44.6245C44.2436 44.6 44.2273 44.5729 44.1946 44.5538C44.1619 44.5321 44.1184 44.524 44.0721 44.5348C43.9796 44.5511 43.9006 44.6462 43.868 44.7468C43.8299 44.8473 43.8108 44.9696 43.8272 45.0946C43.8598 45.3392 44.0095 45.5593 44.1919 45.5919C44.279 45.6055 44.3498 45.5729 44.3851 45.5403C44.4205 45.505 44.4232 45.4778 44.4205 45.4778L44.4232 45.4724Z" fill="#EB996E"/>
<path d="M50.4629 40.1949C50.3785 40.6813 49.3905 41.127 48.5685 41.1053C47.8118 41.0835 47.4389 40.7085 46.8891 40.4422C46.6569 40.3299 46.3838 40.2991 46.0698 40.3498C45.6888 40.4123 45.4901 40.8607 45.2751 41.1814C45.6833 42.07 45.5173 43.1027 45.3458 44.0647C45.3268 44.1706 45.3023 44.2848 45.2206 44.3582C45.0818 44.4804 44.8586 44.4071 44.7253 44.2821C44.5075 44.0837 44.4095 43.7902 44.3388 43.5049C44.1755 42.8554 44.1156 42.176 44.2163 41.5156C44.3197 40.8553 44.5919 40.2112 45.0464 39.7193C45.6126 39.1025 46.4373 38.7465 47.2756 38.703C48.1112 38.6595 48.9523 38.9177 49.6518 39.3769C49.9757 39.5889 50.2805 39.8525 50.4629 40.1949Z" fill="#263238"/>
<path d="M48.8348 45.6027C48.6252 45.5049 48.4184 45.4098 48.2088 45.3119C48.1734 45.2956 48.1353 45.2793 48.0945 45.282C48.0509 45.2875 48.0156 45.3201 47.9856 45.3554C47.8414 45.5293 47.8032 45.7956 47.9176 45.994C48.0292 46.1924 48.2932 46.2957 48.5028 46.2087C48.7232 46.1163 48.8321 45.8609 48.8484 45.6217L48.8321 45.6027H48.8348Z" fill="#EB996E"/>
<path d="M48.5249 46.255C48.5249 46.255 48.3942 46.3555 48.1574 46.2876C48.0431 46.2523 47.9152 46.1653 47.8335 46.024C47.7519 45.8854 47.7219 45.6897 47.7927 45.5131C47.8253 45.4261 47.8798 45.3473 47.9451 45.2875C47.9778 45.2577 48.0104 45.2305 48.0513 45.2087C48.0921 45.1789 48.1765 45.1761 48.2146 45.2006C48.3561 45.2794 48.4541 45.3473 48.5493 45.4098C48.7317 45.5321 48.8406 45.6137 48.8297 45.6327C48.8188 45.649 48.6936 45.5973 48.4976 45.4968C48.3833 45.437 48.2744 45.3799 48.1656 45.3229C48.1384 45.3147 48.1411 45.3147 48.1166 45.3283C48.0921 45.3446 48.0621 45.3664 48.0404 45.3908C47.9914 45.4397 47.9505 45.4995 47.9261 45.5675C47.8716 45.7033 47.8907 45.8528 47.9505 45.9669C48.0104 46.0811 48.103 46.1572 48.1955 46.1979C48.3833 46.2794 48.5221 46.236 48.5276 46.2577L48.5249 46.255Z" fill="#263238"/>
<path d="M48.3283 43.4396C48.3147 43.4396 48.3175 43.3255 48.2603 43.1352C48.2059 42.9477 48.0752 42.6732 47.7921 42.464C47.5172 42.2547 47.0681 42.1379 46.6354 42.3009C46.2053 42.4504 45.8352 42.907 45.8406 43.4396C45.8352 43.9722 46.2053 44.4288 46.6354 44.5782C47.0681 44.7413 47.5172 44.6244 47.7921 44.4152C48.0752 44.2059 48.2086 43.9315 48.2603 43.744C48.3147 43.5537 48.312 43.4369 48.3283 43.4396C48.3338 43.4396 48.3365 43.4668 48.3392 43.5211C48.342 43.5755 48.3392 43.657 48.3147 43.7575C48.2739 43.9586 48.1514 44.2576 47.852 44.494C47.5635 44.7304 47.0709 44.8717 46.5891 44.7005C46.1101 44.5429 45.6909 44.0347 45.6963 43.4396C45.6909 42.8445 46.1101 42.3363 46.5891 42.1787C47.0736 42.0047 47.5635 42.1461 47.852 42.3852C48.1514 42.6216 48.2739 42.9233 48.3147 43.1216C48.3365 43.2222 48.342 43.3037 48.3392 43.3581C48.3392 43.4124 48.3338 43.4396 48.3283 43.4396Z" fill="#263238"/>
<path d="M51.3853 43.3199C51.3717 43.3199 51.3717 43.2085 51.32 43.0237C51.2683 42.8416 51.1403 42.5753 50.8627 42.3715C50.596 42.1677 50.1578 42.0563 49.7359 42.2139C49.3167 42.3579 48.9574 42.8036 48.9629 43.3226C48.9574 43.8417 49.3194 44.2846 49.7359 44.4314C50.1578 44.589 50.596 44.4776 50.8627 44.2738C51.1403 44.0699 51.2683 43.8036 51.32 43.6216C51.3744 43.434 51.3717 43.3226 51.3853 43.3253C51.3907 43.3253 51.3935 43.3525 51.3962 43.4069C51.3989 43.4585 51.3962 43.5373 51.3744 43.6379C51.3363 43.8335 51.2165 44.1243 50.9253 44.358C50.645 44.589 50.1659 44.7276 49.6923 44.5591C49.2242 44.4042 48.8159 43.9096 48.8213 43.3281C48.8159 42.7465 49.2242 42.2519 49.6923 42.097C50.1632 41.9285 50.6422 42.0671 50.9253 42.2981C51.2165 42.5291 51.3363 42.8226 51.3744 43.0183C51.3962 43.1161 51.3989 43.1949 51.3962 43.2493C51.3962 43.3009 51.3907 43.3308 51.3853 43.3308V43.3199Z" fill="#263238"/>
<path d="M48.8922 43.0374C48.865 43.0646 48.7425 42.9858 48.5792 42.9912C48.4159 42.9912 48.2989 43.0755 48.2689 43.0483C48.2308 43.0293 48.3451 42.8526 48.5765 42.8472C48.8079 42.8445 48.9276 43.0157 48.8922 43.0347V43.0374Z" fill="#263238"/>
<path d="M45.8468 43.2575C45.8713 43.2901 45.6318 43.5048 45.3161 43.7412C45.0003 43.9777 44.7227 44.1434 44.7009 44.1108C44.6764 44.0782 44.916 43.8635 45.2317 43.6271C45.5474 43.3907 45.8251 43.2249 45.8468 43.2575Z" fill="#263238"/>
<path d="M71.1084 43.38C71.1084 43.418 67.9592 43.4506 64.0752 43.4506C60.1911 43.4506 57.042 43.418 57.042 43.38C57.042 43.3419 60.1911 43.3093 64.0752 43.3093C67.9592 43.3093 71.1084 43.3419 71.1084 43.38Z" fill="#263238"/>
<path d="M64.6054 44.8473C64.6054 44.8853 62.9342 44.9179 60.8711 44.9179C58.8079 44.9179 57.1367 44.8853 57.1367 44.8473C57.1367 44.8092 58.8079 44.7766 60.8711 44.7766C62.9342 44.7766 64.6054 44.8092 64.6054 44.8473Z" fill="#263238"/>
<path d="M113.244 54.2363C113.244 54.2363 116.981 56.0544 118.296 60.7502C119.61 65.4461 123.628 77.675 123.628 77.675C123.628 77.675 125.925 80.3735 126.173 82.3709C126.418 84.3683 125.928 89.2027 125.187 90.105C124.45 91.0072 123.396 90.8577 123.396 90.8577L113.726 89.9419L109.918 64.4841L113.244 54.2363Z" fill="#F15C59"/>
<path d="M81.2652 53.7906C81.2652 53.7906 74.3518 55.9564 72.6289 57.8397L78.2903 84.1372L78.2005 92.4338H110.982C110.982 92.0234 111.276 64.8862 111.276 64.8862L113.244 54.2362L101.592 52.1872L99.2946 50.3855L86.3306 51.0404L84.3627 53.0052L81.268 53.7878L81.2652 53.7906Z" fill="#F15C59"/>
<g opacity="0.3">
<path d="M83.8914 76.6043C83.7907 76.3814 83.6465 76.1396 83.407 76.0907C83.0123 76.0091 82.7483 76.4765 82.6149 76.8543C81.5507 79.8653 80.1408 82.6345 78.309 85.2487L78.2246 89.287C80.1353 87.6809 82.0188 85.9607 83.2382 83.784C84.4576 81.6072 84.923 78.8761 83.8942 76.6043H83.8914Z" fill="black"/>
</g>
<path d="M72.6288 57.8425C72.6288 57.8425 70.3506 60.9432 69.4034 62.9678C68.4562 64.9923 60.6174 81.9932 60.1465 83.7487C59.6729 85.5042 58.4563 91.0344 62.0382 92.3171H69.4034L76.7959 77.3897L77.1742 60.0655L72.6261 57.8425H72.6288Z" fill="#F15C59"/>
<path d="M69.8774 81.534C69.8774 81.534 69.7141 81.3899 69.3738 81.197C69.0363 81.0068 68.5083 80.7866 67.8278 80.6372C67.4876 80.5638 67.1093 80.504 66.701 80.4796C66.2927 80.4551 65.8545 80.4605 65.4081 80.5638C64.5154 80.7622 63.6281 81.3274 62.9286 82.1182C62.2182 82.909 61.7827 83.8438 61.5241 84.7243C61.2628 85.6075 61.1512 86.4364 61.0804 87.1293C61.0124 87.825 60.9852 88.3903 60.9607 88.7816C60.9498 88.9637 60.9389 89.1131 60.9335 89.2327C60.9253 89.336 60.9199 89.3903 60.9144 89.3903C60.909 89.3903 60.9062 89.336 60.9062 89.2327C60.9062 89.1131 60.9062 88.9637 60.9062 88.7816C60.9144 88.3903 60.9253 87.8223 60.9797 87.1212C61.0369 86.4228 61.1403 85.5858 61.3962 84.6863C61.6493 83.7922 62.093 82.8329 62.8197 82.0231C63.5355 81.2133 64.4501 80.6345 65.3782 80.4361C65.8409 80.3328 66.2927 80.3301 66.7065 80.3627C67.1202 80.3926 67.5039 80.4578 67.8469 80.5393C68.5355 80.7024 69.0635 80.9388 69.3983 81.1481C69.5644 81.254 69.6868 81.3492 69.7631 81.4198C69.8393 81.4905 69.8774 81.5312 69.8719 81.534H69.8774Z" fill="#263238"/>
<path d="M66.3818 78.561C66.3818 78.561 66.4689 78.5366 66.6295 78.5202C66.7901 78.5012 67.0242 78.4958 67.3127 78.5121C67.6012 78.5257 67.9442 78.5746 68.3171 78.6616C68.6872 78.754 69.09 78.8898 69.4902 79.0773C69.8875 79.2703 70.2468 79.4958 70.5517 79.7268C70.8538 79.9633 71.1069 80.197 71.3002 80.4144C71.4934 80.629 71.6377 80.8138 71.7221 80.9497C71.8092 81.0856 71.8554 81.1617 71.8473 81.1671C71.8255 81.1834 71.6268 80.8872 71.2267 80.4823C71.028 80.2785 70.7721 80.0556 70.4727 79.8328C70.1679 79.6127 69.8168 79.3953 69.4276 79.2078C69.0356 79.023 68.6464 78.8898 68.2844 78.792C67.9197 78.6996 67.5876 78.6425 67.3045 78.6181C66.7384 78.5637 66.3846 78.5936 66.3818 78.5664V78.561Z" fill="#263238"/>
<path d="M73.0421 77.743C73.0421 77.743 72.9197 77.743 72.7019 77.7158C72.4842 77.6886 72.1684 77.656 71.7792 77.6261C71.0008 77.5663 69.9175 77.5528 68.7308 77.6941C67.5468 77.8381 66.4962 78.1071 65.7531 78.3463C65.3802 78.4658 65.0808 78.5718 64.8767 78.6506C64.6725 78.7267 64.5555 78.7648 64.5528 78.7566C64.5501 78.7485 64.6562 78.6914 64.8576 78.599C65.0563 78.5039 65.3503 78.3843 65.7232 78.2512C66.4635 77.9849 67.5196 77.6968 68.7172 77.5528C69.9121 77.4115 71.0089 77.4413 71.7901 77.5256C72.1821 77.5664 72.4978 77.6153 72.7128 77.6587C72.9278 77.7022 73.0476 77.7294 73.0449 77.7403L73.0421 77.743Z" fill="#263238"/>
<path d="M94.0225 63.2178C94.0225 63.2178 93.9953 63.1906 93.9463 63.1281C93.8946 63.0575 93.8266 62.9678 93.7449 62.8591C93.5653 62.6091 93.3149 62.264 93.0046 61.8346C92.3677 60.9378 91.4831 59.6905 90.4379 58.2203L90.5522 58.204C90.1548 59.3671 89.7166 60.6525 89.2566 62.0031L89.2267 62.0873L89.1532 62.0384C89.1042 62.0085 89.0525 61.9732 89.0008 61.9406C88.3911 61.5547 87.8522 61.09 87.3976 60.5872C86.9431 60.0818 86.5647 59.5437 86.2517 59.0056C85.6257 57.9268 85.2474 56.8642 84.9915 55.9647C84.7357 55.0625 84.6023 54.3125 84.5152 53.7989C84.4717 53.5516 84.439 53.3559 84.4118 53.2064C84.3982 53.1385 84.3846 53.0896 84.3764 53.0543C84.3628 53.0244 84.3573 53.0053 84.3601 53.0053C84.39 52.9918 84.4689 53.2771 84.5696 53.7907C84.6758 54.3016 84.8228 55.0462 85.0895 55.9403C85.3562 56.8316 85.74 57.8833 86.366 58.9431C86.679 59.4731 87.0519 60.0003 87.501 60.4976C87.9529 60.9894 88.4809 61.446 89.077 61.8237C89.1287 61.8563 89.1804 61.8889 89.2267 61.9188L89.1232 61.9569C89.5887 60.6063 90.0296 59.3236 90.4297 58.1632L90.4705 58.0409L90.544 58.1469C91.5702 59.628 92.4411 60.8862 93.0672 61.7911C93.3666 62.2286 93.6034 62.5819 93.7776 62.8374C93.8538 62.9515 93.9136 63.0439 93.9626 63.1173C94.0035 63.1825 94.0225 63.2151 94.0198 63.2178H94.0225Z" fill="#263238"/>
<g opacity="0.3">
<path d="M102.558 75.77C102.253 78.8109 102.926 81.9415 104.453 84.5884C105.977 87.238 108.214 89.5968 110.998 90.8659C111.088 88.1674 110.958 84.9879 111.047 82.2894L102.558 75.77Z" fill="black"/>
</g>
<path d="M102.25 72.2183C102.25 72.2183 101.061 72.5472 101.953 74.9848C102.846 77.4197 103.143 77.2729 103.739 79.5529C104.335 81.8302 105.029 83.9119 106.071 85.2C107.114 86.4881 110.984 89.1132 110.984 89.1132L114.457 85.844C114.457 85.844 113.886 83.4064 114.022 81.7514C114.158 80.0964 114.506 76.0337 114.457 75.3408C114.408 74.6478 113.663 72.9629 113.663 72.9629V71.8107L111.877 66.324C111.877 66.324 110.884 65.8783 110.538 67.4627L109.942 65.7805C109.942 65.7805 109 65.6311 108.752 67.5632C108.505 69.4954 108.951 72.1694 108.951 72.1694L108.456 75.5392L107.713 77.8164L107.068 77.9143C107.068 77.9143 106.096 77.6507 105.565 75.8245C105.034 74.001 103.595 71.8216 102.255 72.2183H102.25Z" fill="#FFBE9D"/>
<path d="M113.289 80.8328C113.289 80.8328 113.281 80.7893 113.273 80.7078C113.268 80.6127 113.26 80.4931 113.249 80.3436C113.23 80.0121 113.205 79.5528 113.175 78.9794C113.121 77.7973 113.047 76.1505 112.96 74.2292L112.976 74.2699C112.816 74.0797 112.533 74.0227 112.274 74.0879C112.01 74.1504 111.776 74.3134 111.629 74.558C111.327 75.0444 111.308 75.6803 111.215 76.2945C111.028 77.6832 110.848 79.0039 110.685 80.2105C110.603 80.811 110.516 81.3844 110.396 81.9143C110.282 82.4443 110.121 82.928 109.966 83.3601C109.814 83.7922 109.678 84.1835 109.593 84.5368C109.509 84.89 109.473 85.1998 109.482 85.4553C109.493 85.9662 109.642 86.2271 109.618 86.2325C109.612 86.2325 109.585 86.17 109.533 86.0423C109.493 85.9118 109.435 85.7162 109.424 85.458C109.408 85.1998 109.435 84.8792 109.514 84.5205C109.593 84.1617 109.724 83.765 109.871 83.3302C110.021 82.8954 110.173 82.4198 110.282 81.8926C110.393 81.3681 110.475 80.7974 110.554 80.1969C110.715 78.9903 110.889 77.6696 111.074 76.2809C111.117 75.9711 111.15 75.6668 111.205 75.3597C111.259 75.0553 111.343 74.7509 111.512 74.4901C111.67 74.2237 111.948 74.0281 112.242 73.9601C112.533 73.8868 112.878 73.952 113.077 74.1911L113.091 74.2102V74.2319C113.159 76.1532 113.213 77.8 113.254 78.9849C113.268 79.5583 113.281 80.0175 113.289 80.3518C113.289 80.5012 113.292 80.6208 113.292 80.7159C113.292 80.7974 113.292 80.8409 113.287 80.8409L113.289 80.8328Z" fill="#EB996E"/>
<path d="M111.392 74.5908C111.392 74.5908 111.33 74.4848 111.245 74.281C111.164 74.0772 111.055 73.7755 110.954 73.3924C110.853 73.0119 110.758 72.5472 110.704 72.0282C110.676 71.7673 110.657 71.4901 110.69 71.2021C110.72 70.914 110.804 70.6096 110.989 70.3542C111.147 70.1313 111.371 69.952 111.624 69.8786L111.678 69.8623L111.705 69.9112C112.209 70.7971 112.644 71.5798 112.952 72.1423C113.093 72.4059 113.21 72.626 113.308 72.8081C113.39 72.9657 113.431 73.0527 113.423 73.0581C113.415 73.0636 113.36 72.982 113.265 72.8326C113.159 72.6586 113.028 72.444 112.873 72.1885C112.544 71.6369 112.092 70.8651 111.583 69.9819L111.664 70.0145C111.447 70.0797 111.248 70.2346 111.107 70.4384C110.94 70.6721 110.859 70.9493 110.829 71.2211C110.799 71.4955 110.813 71.7646 110.834 72.02C110.881 72.5336 110.962 72.9929 111.052 73.3734C111.139 73.7538 111.232 74.0582 111.297 74.2674C111.362 74.4767 111.4 74.5908 111.392 74.5962V74.5908Z" fill="#EB996E"/>
<path d="M110.563 75.0364C110.563 75.0364 110.541 74.925 110.53 74.7211C110.522 74.4874 110.508 74.1994 110.495 73.8597C110.47 73.1314 110.448 72.1259 110.432 71.0144C110.424 69.903 110.38 68.8948 110.476 68.1638C110.522 67.7996 110.595 67.5088 110.661 67.3159C110.726 67.1202 110.78 67.0197 110.789 67.0251C110.813 67.0333 110.636 67.4545 110.574 68.1773C110.506 68.8975 110.563 69.903 110.574 71.0144C110.59 72.1259 110.595 73.1314 110.595 73.8597C110.593 74.1994 110.587 74.4874 110.584 74.7239C110.579 74.9277 110.571 75.0391 110.563 75.0418V75.0364Z" fill="#EB996E"/>
<path d="M107.626 84.1701C107.607 84.1538 107.822 83.8983 108.091 83.4336C108.227 83.2026 108.366 82.9146 108.494 82.5885C108.617 82.2569 108.728 81.8846 108.804 81.4852C108.875 81.083 108.9 80.6971 108.9 80.3438C108.894 79.9905 108.864 79.6726 108.818 79.4117C108.728 78.8845 108.614 78.5693 108.638 78.5611C108.646 78.5584 108.682 78.6345 108.736 78.7758C108.793 78.9171 108.856 79.1291 108.916 79.3927C108.976 79.659 109.017 79.9824 109.03 80.3411C109.038 80.7025 109.014 81.0993 108.943 81.5096C108.867 81.92 108.75 82.3004 108.617 82.6347C108.478 82.9662 108.325 83.257 108.176 83.4853C108.029 83.7135 107.895 83.8902 107.792 84.0016C107.691 84.1157 107.631 84.1755 107.623 84.1674L107.626 84.1701Z" fill="#EB996E"/>
<path d="M113.722 82.4661L116.735 83.5096C116.735 83.5096 119.612 82.0231 121.596 83.5096C123.581 84.9961 125.303 88.9121 124.759 90.4964C124.759 90.4964 123.39 92.184 122.348 92.4313C121.305 92.6786 117.255 91.7003 115.57 91.3443C113.88 90.9883 110.979 89.105 110.979 89.105L113.719 82.4634L113.722 82.4661Z" fill="#FFBE9D"/>
<path d="M114.093 86.9012C114.093 86.9012 114.071 86.8061 114.06 86.6349C114.049 86.4311 114.033 86.1892 114.016 85.9093C113.984 85.2951 113.943 84.4473 113.929 83.507C113.916 82.5667 113.943 81.7162 114 81.102C114.027 80.7949 114.06 80.5476 114.09 80.3764C114.12 80.2052 114.142 80.1128 114.152 80.1155C114.174 80.1183 114.128 80.496 114.098 81.1074C114.068 81.7189 114.057 82.5667 114.071 83.5043C114.087 84.4228 114.103 85.2544 114.114 85.9066C114.117 86.2137 114.114 86.4637 114.114 86.6349C114.109 86.8061 114.101 86.9012 114.093 86.9012Z" fill="#EB996E"/>
<path d="M124.03 83.3926C124.008 83.4144 123.698 82.985 123.028 82.4904C122.367 81.9958 121.295 81.4686 120.026 81.398C118.755 81.33 117.631 81.7349 116.921 82.1534C116.199 82.5719 115.845 82.9633 115.826 82.9388C115.821 82.9334 115.905 82.8328 116.074 82.6698C116.243 82.5067 116.51 82.2893 116.869 82.0665C117.579 81.6181 118.728 81.186 120.034 81.2566C121.341 81.33 122.435 81.8871 123.091 82.4089C123.423 82.6698 123.665 82.9171 123.815 83.0964C123.967 83.2758 124.038 83.3872 124.033 83.3899L124.03 83.3926Z" fill="#263238"/>
<path d="M123.644 80.8844C123.625 80.9142 123.222 80.5066 122.389 80.1941C121.57 79.8734 120.299 79.7267 118.995 80.0936C118.345 80.2756 117.748 80.5338 117.24 80.8218C116.731 81.1126 116.306 81.4306 115.968 81.7186C115.631 82.0067 115.372 82.2594 115.195 82.4333C115.019 82.61 114.921 82.7051 114.912 82.6997C114.907 82.6942 114.991 82.5855 115.157 82.3953C115.323 82.2078 115.571 81.9442 115.906 81.6425C116.238 81.3409 116.662 81.0094 117.177 80.7077C117.691 80.4088 118.296 80.1397 118.96 79.955C120.296 79.5799 121.6 79.7484 122.427 80.099C122.846 80.2702 123.157 80.4686 123.355 80.6208C123.459 80.6941 123.527 80.7648 123.576 80.8083C123.625 80.8545 123.649 80.8789 123.644 80.8816V80.8844Z" fill="#263238"/>
<path d="M123.668 78.7104C123.66 78.7376 123.135 78.5773 122.259 78.4604C121.82 78.3979 121.295 78.3626 120.713 78.3626C120.13 78.3707 119.491 78.4197 118.826 78.5311C118.165 78.6506 117.547 78.8246 116.995 79.0148C116.448 79.2132 115.966 79.4251 115.577 79.6344C114.795 80.0447 114.354 80.3736 114.338 80.3518C114.333 80.3437 114.439 80.2594 114.64 80.11C114.738 80.0339 114.863 79.9469 115.013 79.8545C115.163 79.7621 115.332 79.648 115.528 79.5474C115.914 79.3273 116.399 79.1045 116.948 78.8952C117.504 78.6968 118.13 78.5175 118.799 78.3952C119.471 78.2811 120.119 78.2349 120.71 78.2349C121.301 78.243 121.831 78.2892 122.269 78.3653C122.49 78.3925 122.686 78.4441 122.86 78.4794C123.034 78.5148 123.181 78.5555 123.298 78.5909C123.538 78.6615 123.666 78.705 123.663 78.7131L123.668 78.7104Z" fill="#263238"/>
<path d="M100.576 52.0977C100.576 52.0977 100.715 52.3585 100.786 52.8966C100.859 53.432 100.848 54.2363 100.671 55.231C100.582 55.7283 100.462 56.2745 100.282 56.8588C100.094 57.443 99.8113 58.0409 99.4902 58.6659C98.8424 59.916 98.0231 61.2775 97.0786 62.7313L96.967 62.9025V62.6987C96.967 61.7394 96.9643 60.7312 96.9616 59.6823L97.0678 59.7339C96.2566 60.3861 95.4047 61.0736 94.5256 61.7829L94.5473 61.7503C93.9594 63.6145 93.5702 65.6907 93.4178 67.8512C93.1701 71.1584 93.3688 74.3216 93.5267 77.1913C93.66 80.0637 93.7471 82.6535 93.837 84.8248C93.924 86.9989 94.003 88.7544 94.0683 89.9691C94.1037 90.5697 94.1309 91.0398 94.15 91.3659C94.1608 91.5208 94.169 91.6404 94.1745 91.7301C94.1799 91.8116 94.1772 91.8551 94.1772 91.8551C94.1772 91.8551 94.169 91.8143 94.1581 91.7328C94.15 91.6458 94.1363 91.5235 94.12 91.3713C94.0901 91.0534 94.052 90.5805 94.0111 89.9745C93.9295 88.7598 93.8342 87.0043 93.7362 84.8303C93.6383 82.6562 93.5239 80.0692 93.3933 77.1994C93.23 74.3325 93.0258 71.1611 93.2735 67.843C93.4287 65.6744 93.8179 63.5874 94.414 61.7123L94.4194 61.6932L94.4357 61.6797C95.3149 60.9731 96.1695 60.2883 96.9807 59.6361L97.0868 59.5518V59.6877C97.0868 60.734 97.0841 61.7422 97.0814 62.7042L96.9698 62.6715C98.8397 59.7774 100.361 57.261 100.595 55.2255C100.783 54.2391 100.805 53.4428 100.742 52.9075C100.715 52.6384 100.663 52.4401 100.631 52.3042C100.587 52.171 100.571 52.1031 100.571 52.1031L100.576 52.0977Z" fill="#263238"/>
<path d="M95.6963 87.1538H95.5983C95.2037 87.162 94.8525 87.5207 94.8525 87.9147C94.8525 88.3088 95.2009 88.6702 95.5929 88.6838C95.9875 88.6974 96.3604 88.3604 96.3849 87.9691C96.4121 87.5777 96.0855 87.1946 95.6936 87.1565L95.6963 87.1538Z" fill="white"/>
<path d="M95.6963 76.6804H95.5983C95.2037 76.6886 94.8525 77.0473 94.8525 77.4413C94.8525 77.8354 95.2009 78.1968 95.5929 78.2104C95.9875 78.224 96.3604 77.887 96.3849 77.4957C96.4121 77.1044 96.0855 76.7212 95.6936 76.6831L95.6963 76.6804Z" fill="white"/>
<path d="M95.5927 67.3105C95.9873 67.324 96.3602 66.9871 96.3847 66.5957C96.4119 66.2044 96.0853 65.8212 95.6934 65.7832H95.5954C95.2007 65.7914 94.8496 66.1501 94.8496 66.5441C94.8496 66.9381 95.198 67.2996 95.5899 67.3132L95.5927 67.3105Z" fill="white"/>
<path d="M83.8427 39.8253C82.8874 38.7709 81.9266 37.7029 81.2298 36.4637C80.533 35.2245 80.1193 33.7761 80.3506 32.3738C80.484 31.5532 80.8351 30.7732 80.8896 29.9417C80.9658 28.8003 80.4867 27.6073 80.8896 26.5393C81.5237 24.868 83.7774 24.6099 85.1438 23.4549C86.208 22.5554 86.7251 21.0961 87.8982 20.3379C88.9216 19.6776 90.2363 19.6911 91.442 19.8624C92.6478 20.0336 93.8618 20.3379 95.0702 20.1749C95.9303 20.058 96.7414 19.7129 97.5852 19.5036C98.429 19.2944 99.368 19.24 100.119 19.6748C100.87 20.1097 101.292 21.1749 100.8 21.8896C102.199 21.2456 103.976 22.3353 104.36 23.8245C104.744 25.3137 103.976 26.9252 102.789 27.9062C101.603 28.89 100.07 29.3465 98.5569 29.6319C94.27 30.439 89.6212 29.9824 85.9276 27.6671" fill="#263238"/>
<path d="M98.9106 54.2147C98.701 52.595 98.5296 51.2444 98.5187 51.0759C98.5187 51.0759 103.941 49.8585 103.641 44.3854C103.497 41.7412 102.754 36.3143 102.027 31.4146C101.246 26.1535 96.5399 22.3761 91.2242 22.7294L90.6962 22.7647C85.0184 23.4767 82.4545 28.6917 83.3255 34.336L86.3875 53.269C86.3875 53.269 87.694 57.4567 90.492 58.1823L94.0195 63.2151L94.602 61.0493L97.2313 58.7638C97.2313 58.7638 97.8355 58.1116 98.5268 56.8371C99.093 55.7936 98.9732 54.7229 98.9052 54.2147H98.9106Z" fill="#FFBE9D"/>
<path d="M98.5242 50.9943C98.5242 50.9943 95.0811 51.5079 91.2461 49.4453C91.2461 49.4453 93.1976 53.2689 98.6304 52.4101L98.5215 50.9943H98.5242Z" fill="#EB996E"/>
<path d="M100.269 36.1188C100.313 36.5292 99.9973 36.9042 99.5672 36.9585C99.1372 37.0102 98.7561 36.7194 98.7126 36.309C98.6717 35.8987 98.9847 35.5209 99.4121 35.4693C99.8421 35.4177 100.223 35.7085 100.267 36.1215L100.269 36.1188Z" fill="#263238"/>
<path d="M101.034 34.1784C100.945 34.2871 100.321 33.8876 99.4802 33.9474C98.6392 33.9936 98.0485 34.4665 97.9505 34.3713C97.9016 34.3279 97.9887 34.1376 98.2445 33.9257C98.4976 33.7137 98.9358 33.4936 99.4612 33.461C99.9865 33.4284 100.441 33.5914 100.708 33.7735C100.98 33.9556 101.081 34.1322 101.034 34.1811V34.1784Z" fill="#263238"/>
<path d="M92.3163 36.6867C92.3599 37.097 92.0441 37.472 91.6141 37.5264C91.184 37.578 90.803 37.2872 90.7594 36.8769C90.7186 36.4666 91.0316 36.0888 91.4589 36.0372C91.889 35.9856 92.27 36.2763 92.3136 36.6894L92.3163 36.6867Z" fill="#263238"/>
<path d="M92.7678 34.8876C92.6779 34.9963 92.0546 34.5969 91.2136 34.6566C90.3726 34.7028 89.7819 35.1757 89.6839 35.0806C89.6349 35.0371 89.722 34.8469 89.9779 34.6349C90.2283 34.4229 90.6692 34.2028 91.1918 34.1702C91.7171 34.1376 92.1717 34.3006 92.4384 34.4827C92.7106 34.6648 92.8113 34.8414 92.765 34.8903L92.7678 34.8876Z" fill="#263238"/>
<path d="M96.2411 40.9178C96.233 40.8716 96.7501 40.7438 97.5911 40.5808C97.8034 40.5455 98.0049 40.4884 98.0321 40.3389C98.0729 40.1813 97.9667 39.9558 97.847 39.7112C97.6102 39.2057 97.3625 38.6758 97.1012 38.1187C96.0615 35.8496 95.2939 33.9799 95.3865 33.9392C95.479 33.8984 96.3935 35.7028 97.4333 37.972C97.6837 38.5318 97.9232 39.0644 98.1518 39.5753C98.2498 39.8144 98.4077 40.0808 98.3206 40.4096C98.2743 40.5726 98.1246 40.7004 97.9885 40.7466C97.8524 40.7982 97.7327 40.8091 97.6265 40.8226C96.7773 40.9259 96.2466 40.964 96.2411 40.9178Z" fill="#263238"/>
<path d="M92.7647 31.5778C92.6967 31.8115 91.8502 31.7599 90.8704 31.9447C89.8878 32.1104 89.1093 32.4529 88.9651 32.2545C88.8998 32.1594 89.025 31.9365 89.3325 31.6919C89.6374 31.4501 90.1327 31.2055 90.7207 31.0995C91.3086 30.9963 91.8584 31.0533 92.2286 31.1756C92.6014 31.2979 92.7947 31.4637 92.7675 31.5751L92.7647 31.5778Z" fill="#263238"/>
<path d="M100.56 31.7653C100.424 31.9664 99.8303 31.8061 99.1335 31.8441C98.434 31.8577 97.8542 32.0588 97.7045 31.8686C97.6392 31.7762 97.7181 31.5778 97.9658 31.3794C98.2081 31.1837 98.6245 31.0071 99.1035 30.9881C99.5826 30.9718 100.01 31.1158 100.266 31.2952C100.524 31.4745 100.62 31.6647 100.56 31.7626V31.7653Z" fill="#263238"/>
<path d="M84.0471 38.3579C83.9518 38.3226 80.2093 37.4964 80.5795 41.2303C80.9496 44.9615 84.9997 43.7468 84.997 43.6381C84.9915 43.5293 84.0498 38.3606 84.0498 38.3606L84.0471 38.3579Z" fill="#FFBE9D"/>
<path d="M83.3392 42.4125C83.3229 42.4016 83.2793 42.4641 83.1732 42.5266C83.0697 42.5864 82.8901 42.638 82.6887 42.5837C82.2804 42.4777 81.8857 41.8853 81.8014 41.214C81.7578 40.8743 81.7986 40.5455 81.8912 40.2656C81.9783 39.9803 82.1361 39.7737 82.3321 39.7194C82.5254 39.6542 82.6778 39.7602 82.7349 39.8607C82.7948 39.9613 82.7785 40.0373 82.8003 40.0401C82.8112 40.0482 82.8738 39.9694 82.8302 39.8172C82.8084 39.7439 82.754 39.6623 82.6587 39.5971C82.5608 39.5319 82.4274 39.5101 82.2886 39.5373C82.0028 39.5862 81.7687 39.877 81.6653 40.1841C81.5455 40.4939 81.4938 40.8662 81.5428 41.2466C81.6408 41.9967 82.0953 42.6625 82.6533 42.763C82.9228 42.8065 83.1351 42.706 83.2385 42.6054C83.3446 42.5021 83.3555 42.4152 83.3419 42.4097L83.3392 42.4125Z" fill="#EB996E"/>
<path d="M101.755 26.3165C101.499 27.803 98.4807 29.1617 95.9793 29.0911C93.6739 29.0231 92.5335 27.8818 90.8569 27.0692C90.1492 26.7268 89.3163 26.6335 88.3582 26.7893C87.1933 26.9795 86.5918 28.3492 85.9385 29.3302C87.1824 32.0396 86.6789 35.1892 86.1535 38.1241C86.0964 38.4475 86.0229 38.7981 85.7752 39.0155C85.3561 39.3851 84.6729 39.1649 84.2619 38.7872C83.6005 38.1812 83.2984 37.2844 83.0833 36.4175C82.5907 34.4392 82.4002 32.3657 82.7132 30.3493C83.0262 28.3329 83.8618 26.3763 85.2417 24.8707C86.9647 22.9902 89.4851 21.9059 92.0354 21.7755C94.5858 21.645 97.147 22.4331 99.2809 23.8299C100.272 24.4767 101.197 25.2784 101.758 26.3219" fill="#263238"/>
<path d="M96.7907 42.8065C96.1565 42.5103 95.5196 42.2141 94.8854 41.9206C94.7765 41.869 94.6595 41.8173 94.5397 41.8336C94.4036 41.8527 94.2975 41.9532 94.2104 42.0565C93.7694 42.5918 93.6578 43.3962 93.9981 43.9995C94.341 44.6028 95.144 44.9207 95.7863 44.6544C96.4613 44.3745 96.7907 43.5919 96.8424 42.8636L96.7907 42.8038V42.8065Z" fill="#EB996E"/>
<path d="M95.8459 44.7903C95.8514 44.8066 95.7588 44.8609 95.5683 44.9017C95.3805 44.937 95.0865 44.9533 94.749 44.8419C94.4143 44.7359 94.0359 44.475 93.8018 44.0565C93.565 43.6489 93.478 43.0755 93.6848 42.5564C93.7828 42.2983 93.9379 42.07 94.1257 41.8906C94.221 41.801 94.3217 41.7249 94.436 41.6569C94.4959 41.6243 94.5694 41.5917 94.6565 41.5863C94.7409 41.5809 94.8171 41.6026 94.877 41.6298C95.0022 41.6841 95.0811 41.7439 95.1736 41.7983C95.2635 41.8526 95.3478 41.907 95.4322 41.9586C95.5955 42.0619 95.7507 42.157 95.8949 42.2494C96.4611 42.6081 96.7986 42.8445 96.7795 42.8798C96.7605 42.9124 96.3849 42.7358 95.7942 42.4233C95.6445 42.3418 95.4839 42.2548 95.3125 42.1624C95.2254 42.1135 95.1355 42.0646 95.0457 42.0157C94.9559 41.9667 94.8552 41.9042 94.7763 41.8743C94.6892 41.8445 94.6511 41.8472 94.5667 41.8934C94.4823 41.945 94.3925 42.0157 94.3163 42.0917C94.1584 42.2466 94.0305 42.4396 93.9461 42.6597C93.7719 43.0972 93.8345 43.5728 94.0278 43.9342C94.2183 44.2984 94.5259 44.5375 94.8144 44.6571C95.1056 44.7794 95.3723 44.7957 95.552 44.7957C95.7343 44.7903 95.835 44.7739 95.8432 44.7957L95.8459 44.7903Z" fill="#263238"/>
<path d="M95.2471 36.211C95.2253 36.211 95.2498 35.8632 95.0974 35.2653C94.9477 34.681 94.5557 33.8196 93.6739 33.1511C93.2356 32.825 92.6858 32.5505 92.0517 32.4391C91.4229 32.3331 90.7098 32.3521 90.0348 32.6103C89.6946 32.7299 89.3652 32.9065 89.0658 33.1321C88.761 33.3522 88.4833 33.6266 88.2547 33.9446C87.7838 34.5723 87.5171 35.3767 87.5089 36.2056C87.5171 37.0344 87.7811 37.8415 88.2547 38.4693C88.4833 38.7872 88.761 39.0617 89.0658 39.2845C89.3679 39.5101 89.6946 39.6894 90.0348 39.8063C90.7098 40.0645 91.4229 40.0835 92.0517 39.9775C92.6858 39.8661 93.2356 39.5916 93.6739 39.2655C94.5557 38.5997 94.9477 37.7383 95.0974 37.1513C95.2498 36.5534 95.2253 36.2056 95.2471 36.2056C95.2471 36.2056 95.2498 36.2273 95.2498 36.2681C95.2498 36.3197 95.2498 36.3795 95.2498 36.4529C95.2498 36.5344 95.2471 36.6349 95.2253 36.7545C95.209 36.8741 95.1954 37.01 95.1518 37.1621C95.0892 37.4665 94.9504 37.8279 94.7299 38.2138C94.5067 38.597 94.1828 38.9992 93.7365 39.3416C93.2928 39.6813 92.7294 39.9694 92.0761 40.0889C91.4284 40.2031 90.6935 40.1868 89.994 39.9259C89.6401 39.8063 89.2999 39.6215 88.9869 39.3878C88.6711 39.1595 88.3826 38.8769 88.1458 38.5481C87.6559 37.8986 87.3783 37.0643 87.3701 36.2029C87.3783 35.3414 87.6559 34.5071 88.1458 33.8576C88.3826 33.5288 88.6711 33.2462 88.9869 33.0179C89.2999 32.7869 89.6401 32.6021 89.994 32.4826C90.6935 32.219 91.4284 32.2027 92.0761 32.3195C92.7294 32.4391 93.2928 32.7299 93.7365 33.0668C94.1828 33.4092 94.5067 33.8114 94.7299 34.1946C94.9504 34.5805 95.0892 34.9419 95.1518 35.2463C95.1954 35.3958 95.209 35.5343 95.2253 35.6539C95.2443 35.7735 95.2498 35.874 95.2498 35.9556C95.2498 36.0289 95.2498 36.0914 95.2498 36.1404C95.2498 36.1811 95.2498 36.2029 95.2471 36.2029V36.211Z" fill="#263238"/>
<path d="M104.567 35.847C104.545 35.847 104.567 35.5073 104.42 34.9257C104.273 34.355 103.892 33.5153 103.032 32.8685C102.607 32.5506 102.071 32.2816 101.453 32.1756C100.841 32.0723 100.146 32.0913 99.4878 32.3441C99.1557 32.4582 98.8373 32.6321 98.5433 32.8522C98.2467 33.0669 97.9772 33.336 97.754 33.6458C97.294 34.2572 97.0354 35.0398 97.0273 35.8497C97.0354 36.6595 97.294 37.4421 97.7513 38.0536C97.9745 38.3634 98.2439 38.6297 98.5406 38.8471C98.8346 39.0672 99.153 39.2411 99.4851 39.3553C100.144 39.6053 100.835 39.627 101.45 39.521C102.068 39.4123 102.604 39.1433 103.029 38.8281C103.889 38.1786 104.27 37.3416 104.414 36.7709C104.561 36.1894 104.54 35.8497 104.561 35.8497C104.567 35.8497 104.567 35.9339 104.561 36.0915C104.561 36.1703 104.559 36.2709 104.54 36.385C104.523 36.5019 104.51 36.635 104.469 36.7818C104.335 37.3633 103.962 38.2302 103.089 38.9069C102.656 39.2384 102.106 39.521 101.469 39.6352C100.838 39.7466 100.122 39.7303 99.4388 39.4748C99.0959 39.358 98.7638 39.1786 98.459 38.9504C98.1514 38.7275 97.871 38.4531 97.6397 38.1324C97.1607 37.4992 96.8912 36.6867 96.8857 35.847C96.8939 35.0072 97.1634 34.1947 97.6424 33.5615C97.8738 33.2408 98.1541 32.9637 98.4617 32.7435C98.7665 32.518 99.0986 32.3386 99.4415 32.2218C100.125 31.9663 100.841 31.95 101.472 32.0614C102.109 32.1783 102.659 32.4609 103.092 32.7897C103.965 33.4664 104.338 34.3306 104.471 34.9148C104.512 35.0616 104.529 35.1947 104.542 35.3116C104.561 35.4257 104.567 35.5263 104.564 35.6051C104.567 35.7654 104.567 35.847 104.564 35.847H104.567Z" fill="#263238"/>
<path d="M96.9622 34.9855C96.9458 35.0018 96.856 34.9257 96.6927 34.8469C96.5294 34.7681 96.2845 34.692 96.0068 34.6974C95.7319 34.7001 95.487 34.7871 95.3264 34.8714C95.1631 34.9556 95.0787 35.0344 95.0624 35.0208C95.0487 35.0099 95.1113 34.9012 95.2747 34.7871C95.4352 34.673 95.6965 34.5616 96.0041 34.5561C96.3089 34.5507 96.5757 34.6512 96.7417 34.7599C96.9077 34.8686 96.9758 34.9746 96.9622 34.9855Z" fill="#263238"/>
<path d="M87.6749 35.6594C87.6994 35.692 86.9345 36.3007 85.9683 37.0181C85.002 37.7383 84.2018 38.2954 84.1773 38.2655C84.1528 38.2328 84.9177 37.6268 85.8839 36.9067C86.8502 36.1866 87.6504 35.6295 87.6749 35.6594Z" fill="#263238"/>
<g opacity="0.3">
<path d="M84.455 53.345C84.0767 57.0327 85.4811 60.9269 88.4425 63.1607C88.6738 63.3373 88.9678 63.5086 89.24 63.4107C89.4305 63.3428 89.553 63.1607 89.6537 62.9841C90.4975 61.5248 90.7805 59.9133 90.5383 58.2447C90.0701 59.4785 89.6673 60.6878 89.1937 61.9786C86.6134 60.4133 85.0021 57.087 84.455 53.3423V53.345Z" fill="black"/>
</g>
<path opacity="0.3" d="M94.4854 61.7313L96.6601 60.9378L97.0194 64.6092C97.0194 64.6092 99.3656 60.34 100.337 58.3915C101.309 56.443 100.808 53.0054 100.808 53.0054C100.808 53.0054 101.157 56.0001 98.8049 59.8182L97.0302 62.6988V59.6823L94.4854 61.7286V61.7313Z" fill="black"/>
<g opacity="0.3">
<path d="M69.1939 80.3899C68.2249 79.9334 67.109 79.8709 66.0448 79.9959C64.9207 80.1263 63.7911 80.4714 62.9092 81.1807C62.0274 81.89 61.4313 83.0096 61.5402 84.1347L61.649 84.151C62.4084 82.102 63.9163 80.61 65.8624 80.428C67.8085 80.2486 69.7056 81.1128 71.042 82.5368C70.9114 81.4742 70.1629 80.8492 69.1939 80.3899Z" fill="black"/>
</g>
<g opacity="0.3">
<path d="M124.171 82.4851C123.442 81.6998 122.419 81.2242 121.363 81.0394C119.509 80.716 117.519 81.2921 116.123 82.5531L116.537 82.2161C117.59 81.5992 118.804 81.2351 120.026 81.2704C121.246 81.3057 122.468 81.7568 123.352 82.5966C124.166 83.3683 124.653 84.4146 125.119 85.4337C125.301 84.3793 124.898 83.2678 124.169 82.4824L124.171 82.4851Z" fill="black"/>
</g>
<path d="M110.157 65.4352C110.157 65.4352 110.184 65.3265 110.255 65.139C110.34 64.9243 110.443 64.6607 110.565 64.3482C110.83 63.6824 111.189 62.7612 111.573 61.7394C111.954 60.7149 112.283 59.7828 112.52 59.1061C112.631 58.7909 112.727 58.5246 112.803 58.3072C112.871 58.1196 112.914 58.0164 112.923 58.0191C112.931 58.0218 112.906 58.1305 112.855 58.3235C112.803 58.5164 112.721 58.7963 112.615 59.1387C112.403 59.8235 112.087 60.7638 111.706 61.7883C111.325 62.8128 110.947 63.7286 110.661 64.3863C110.517 64.7151 110.397 64.9787 110.31 65.1608C110.223 65.3428 110.171 65.4407 110.163 65.4352H110.157Z" fill="#263238"/>
<path d="M75.8433 65.7016C75.8052 65.7098 75.5086 64.4163 75.1819 62.8129C74.8553 61.2096 74.6212 59.9052 74.6593 59.897C74.6974 59.8889 74.9941 61.1824 75.3207 62.7857C75.6474 64.3891 75.8814 65.6935 75.8433 65.7016Z" fill="#263238"/>
<path d="M75.3282 81.8682C75.4153 81.9117 74.332 73.4004 74.332 73.4004C74.332 73.4004 75.0152 66.9408 75.399 66.6419L75.4099 64.3619C75.4099 64.3619 76.4687 63.7206 76.7517 64.7559C76.7517 64.7559 77.6908 63.9434 77.8541 65.8783C78.0174 67.8132 78.0528 69.7942 78.0528 69.7942L80.1404 75.0065L80.4833 75.1804C80.4833 75.1804 80.9324 71.0959 81.1937 70.4954C81.455 69.8948 81.6347 68.4328 82.6227 68.6529C83.6134 68.873 83.6951 69.691 83.5182 71.0226C83.3413 72.3541 83.1181 73.7319 83.2024 74.5907C83.2868 75.4494 83.676 77.3462 83.5563 78.849C83.4365 80.3518 82.6118 81.9416 81.7435 83.0558C80.878 84.17 79.2231 86.4744 78.3222 87.1701C78.0092 87.412 75.3309 81.8655 75.3309 81.8655L75.3282 81.8682Z" fill="#FFBE9D"/>
<path d="M76.3822 74.9413C76.3822 74.9413 76.374 74.8108 76.3876 74.5771C76.4067 74.3163 76.4284 73.9847 76.4557 73.588C76.5183 72.7537 76.6163 71.6014 76.7333 70.3296C76.7932 69.6965 76.8503 69.0905 76.902 68.5388C76.9293 68.2643 76.9456 68.0062 76.9102 67.7697C76.8775 67.5333 76.785 67.3295 76.6489 67.1827C76.374 66.8838 76.0175 66.8077 75.797 66.8104C75.5656 66.8104 75.4459 66.8702 75.4404 66.8566C75.4404 66.8512 75.4676 66.8376 75.5248 66.8132C75.5847 66.7914 75.6745 66.7642 75.7943 66.7561C76.0283 66.7398 76.4094 66.7996 76.7224 67.1175C76.8775 67.2751 76.9864 67.5034 77.0245 67.7534C77.0681 68.0062 77.0517 68.2752 77.03 68.5524C76.981 69.1068 76.9265 69.71 76.8721 70.3459C76.7551 71.6177 76.6408 72.7673 76.5537 73.5988C76.5074 73.9929 76.4693 74.3244 76.4393 74.5826C76.4094 74.8136 76.3876 74.944 76.3795 74.9413H76.3822Z" fill="#EB996E"/>
<path d="M77.5056 71.46C77.5246 71.4763 77.2932 71.6801 77.1354 72.1312C76.9666 72.5742 76.9067 73.2427 76.787 73.9683C76.6754 74.6966 76.5638 75.3542 76.4794 75.8271C76.3923 76.3026 76.3297 76.5934 76.3107 76.5907C76.2916 76.588 76.3188 76.2891 76.3814 75.8108C76.4413 75.3325 76.5366 74.6721 76.6482 73.9438C76.7652 73.221 76.8414 72.5497 77.0428 72.0905C77.1381 71.8622 77.2524 71.6964 77.345 71.5932C77.4375 71.4899 77.5028 71.4491 77.5056 71.4546V71.46Z" fill="#EB996E"/>
<path d="M76.7383 64.6418C76.7383 64.6418 76.7737 64.7342 76.8118 64.9109C76.8499 65.0848 76.8962 65.3375 76.9479 65.6528C77.0513 66.2805 77.1657 67.1528 77.2391 68.123C77.3099 69.0932 77.3262 69.9736 77.3154 70.6095C77.3099 70.9275 77.3017 71.1857 77.2881 71.3623C77.2773 71.5389 77.2664 71.6368 77.2555 71.6368C77.2337 71.6368 77.231 71.2427 77.2147 70.6095C77.1983 69.9736 77.1684 69.0986 77.0976 68.1339C77.0269 67.1691 76.9289 66.2968 76.8499 65.6664C76.771 65.0359 76.7193 64.6473 76.7383 64.6418Z" fill="#EB996E"/>
<path d="M82.7622 72.6231C82.7839 72.6557 82.4573 72.8052 82.0599 72.6829C81.6598 72.5634 81.4747 72.2563 81.5101 72.2427C81.5428 72.2155 81.7496 72.4465 82.1008 72.5498C82.4492 72.6612 82.7513 72.5851 82.7622 72.6259V72.6231Z" fill="#EB996E"/>
<path d="M75.4455 80.8084L69.9284 83.1237H66.6404C66.6404 83.1237 63.3906 84.1373 62.8898 87.1783C62.3889 90.2219 62.3182 91.7872 63.7471 92.1622C65.1761 92.5372 69.2125 92.5807 71.2131 91.9176C73.2136 91.2546 78.4531 87.0315 78.4531 87.0315L78.9594 83.977L75.4428 80.8057L75.4455 80.8084Z" fill="#FFBE9D"/>
<path d="M76.7379 84.1699C76.7379 84.1699 76.6753 84.1265 76.5801 84.0259C76.4821 83.9308 76.3623 83.7732 76.2208 83.5721C75.9486 83.1644 75.6492 82.5476 75.4505 81.8301C75.2436 81.1127 75.1565 80.4415 75.1103 79.9578C75.0694 79.474 75.0694 79.1724 75.0885 79.1697C75.1103 79.1697 75.1429 79.4659 75.2083 79.9442C75.279 80.4225 75.3825 81.0828 75.5839 81.7894C75.7798 82.4987 76.0575 83.1047 76.3024 83.5177C76.5501 83.9281 76.7515 84.1509 76.7325 84.1699H76.7379Z" fill="#EB996E"/>
<path d="M79.1395 85.1374C79.1096 85.1266 79.3573 84.7081 79.4525 83.958C79.4988 83.5857 79.4934 83.1319 79.3872 82.6455C79.2811 82.159 79.0497 81.659 78.7122 81.1916C78.3774 80.7215 77.9991 80.3138 77.6834 79.9198C77.3622 79.5257 77.1063 79.1426 76.9376 78.7947C76.7688 78.4469 76.6899 78.1398 76.6599 77.9251C76.6327 77.7104 76.6436 77.5909 76.6518 77.5909C76.679 77.5854 76.6708 78.0773 77.0274 78.7485C77.2016 79.0828 77.4629 79.4524 77.7841 79.8355C78.1052 80.2214 78.4863 80.6291 78.8292 81.1073C79.1749 81.5829 79.4172 82.1101 79.5179 82.6129C79.6213 83.1156 79.6131 83.5857 79.5532 83.9662C79.4934 84.3494 79.3872 84.6456 79.3001 84.8412C79.2593 84.9391 79.2185 85.0124 79.1885 85.0614C79.1613 85.1103 79.1423 85.1347 79.1395 85.132V85.1374Z" fill="#EB996E"/>
<path d="M70.6357 71.873C70.6003 71.892 69.9988 70.7968 69.2911 69.4299C68.5834 68.063 68.039 66.9407 68.0717 66.9216C68.1071 66.9026 68.7086 67.9978 69.4163 69.3647C70.124 70.7316 70.6683 71.8539 70.6357 71.873Z" fill="white"/>
<path d="M79.558 61.9596C79.5226 61.9433 79.8955 61.0329 80.3881 59.9241C80.8835 58.8154 81.3136 57.9295 81.349 57.9458C81.3843 57.9621 81.0114 58.8725 80.5188 59.9812C80.0234 61.09 79.5934 61.9759 79.558 61.9596Z" fill="white"/>
<path d="M88.2924 68.3947C88.2625 68.4192 87.7017 67.7942 87.0431 66.9979C86.3817 66.2017 85.8727 65.5359 85.9026 65.5114C85.9326 65.487 86.4933 66.112 87.1519 66.9082C87.8133 67.7045 88.3223 68.3703 88.2924 68.3947Z" fill="white"/>
<path d="M86.284 77.2455C86.2513 77.2238 86.6732 76.5879 87.2258 75.827C87.7783 75.0661 88.2519 74.4682 88.2818 74.4927C88.3145 74.5144 87.8926 75.1503 87.3401 75.9112C86.7875 76.6721 86.3139 77.27 86.284 77.2455Z" fill="white"/>
<path d="M83.5779 89.7491C83.5616 89.7572 83.4364 89.5507 83.2595 89.2028C83.0798 88.855 82.8485 88.3686 82.6171 87.8223C82.383 87.2734 82.1952 86.7706 82.0673 86.4011C81.9421 86.0315 81.8768 85.7978 81.8958 85.7923C81.9149 85.7869 82.0129 86.007 82.1626 86.3657C82.334 86.7734 82.53 87.2462 82.7478 87.768C82.971 88.287 83.1751 88.7544 83.352 89.1621C83.5072 89.5181 83.5997 89.7409 83.5806 89.7518L83.5779 89.7491Z" fill="white"/>
<path d="M91.2644 84.4334C91.2563 84.4714 90.5159 84.36 89.6123 84.1861C88.7059 84.0121 87.9792 83.8382 87.9874 83.8002C87.9955 83.7621 88.7359 83.8736 89.6395 84.0475C90.5459 84.2214 91.2726 84.3953 91.2644 84.4334Z" fill="white"/>
<path d="M97.2255 72.7507C97.1956 72.7235 97.9033 71.9191 98.8015 70.949C99.6997 69.9815 100.454 69.2179 100.481 69.2451C100.511 69.2723 99.8031 70.0767 98.9049 71.0468C98.0067 72.0142 97.2527 72.7779 97.2255 72.7507Z" fill="white"/>
<path d="M103.225 88.3304C103.195 88.3548 102.315 87.3385 101.259 86.0585C100.203 84.7785 99.3732 83.7214 99.4031 83.697C99.4331 83.6725 100.312 84.6889 101.368 85.9688C102.424 87.2488 103.255 88.3059 103.225 88.3304Z" fill="white"/>
<path d="M65.9925 81.6915C66.0116 81.7295 65.2087 82.1372 64.3322 82.8084C63.4531 83.4742 62.8461 84.1427 62.8134 84.1128C62.7998 84.1019 62.9332 83.9199 63.1836 83.6508C63.4313 83.3845 63.8015 83.0367 64.2451 82.697C64.6888 82.36 65.1243 82.0964 65.4482 81.9252C65.7721 81.7567 65.9844 81.6752 65.9925 81.6915Z" fill="white"/>
<path d="M68.2357 75.6858C68.2684 75.7076 67.9826 76.194 67.5961 76.7728C67.2096 77.3517 66.8721 77.8028 66.8395 77.781C66.8068 77.7593 67.0926 77.2728 67.4791 76.694C67.8656 76.1152 68.2031 75.6641 68.2357 75.6858Z" fill="white"/>
<path d="M73.2895 81.5828C73.2596 81.6018 72.9738 81.1262 72.8268 80.4659C72.6744 79.8082 72.7261 79.2566 72.7615 79.2593C72.805 79.2593 72.8186 79.7946 72.9656 80.4333C73.1099 81.0719 73.3276 81.5638 73.2895 81.5801V81.5828Z" fill="white"/>
<path d="M74.0385 62.8536C74.044 62.8917 73.5758 62.9922 72.9906 63.0738C72.4054 63.158 71.9264 63.1933 71.9209 63.1553C71.9155 63.1172 72.3837 63.0167 72.9688 62.9352C73.554 62.8509 74.0331 62.8156 74.0385 62.8536Z" fill="white"/>
<path d="M77.8329 56.133C77.8519 56.1684 77.4409 56.432 76.9156 56.7227C76.3903 57.0135 75.9467 57.2228 75.9303 57.1874C75.9113 57.1521 76.3223 56.8885 76.8476 56.5977C77.3729 56.307 77.8138 56.0977 77.8329 56.133Z" fill="white"/>
<path d="M88.5043 58.9728C88.4744 58.9973 88.0035 58.4321 87.4537 57.7119C86.9039 56.9918 86.4847 56.3912 86.5174 56.3667C86.5474 56.3423 87.0182 56.9075 87.568 57.6277C88.1178 58.3478 88.537 58.9484 88.5043 58.9728Z" fill="white"/>
<path d="M102.051 65.7287C102.024 65.7531 101.528 65.2449 101.071 64.5058C100.608 63.7666 100.372 63.1008 100.404 63.0872C100.442 63.0709 100.736 63.7041 101.191 64.4324C101.643 65.1607 102.084 65.7042 102.051 65.7314V65.7287Z" fill="white"/>
<path d="M107.223 67.43C107.259 67.4463 107.008 68.0768 106.662 68.835C106.317 69.5959 106.009 70.1992 105.971 70.1829C105.936 70.1666 106.186 69.5361 106.532 68.7779C106.877 68.017 107.185 67.4137 107.223 67.43Z" fill="white"/>
<path d="M107.944 60.3834C107.914 60.4078 107.299 59.7203 106.57 58.8453C105.84 57.9702 105.274 57.2392 105.304 57.2147C105.334 57.1903 105.949 57.8778 106.678 58.7529C107.408 59.6279 107.974 60.3589 107.944 60.3834Z" fill="white"/>
<path d="M100.048 54.6602C100.01 54.6602 99.9526 54.0732 99.9254 53.3422C99.8955 52.6139 99.9064 52.0215 99.9445 52.0188C99.9826 52.0188 100.04 52.6058 100.067 53.3368C100.097 54.0651 100.086 54.6575 100.048 54.6602Z" fill="white"/>
<path d="M106.488 54.3042C106.494 54.3423 105.74 54.4754 104.809 54.6005C103.875 54.7255 103.116 54.7934 103.11 54.7554C103.105 54.7173 103.856 54.5841 104.79 54.4591C105.723 54.3341 106.483 54.2662 106.488 54.3042Z" fill="white"/>
<path d="M116.63 61.742C116.594 61.7584 116.143 60.8969 115.617 59.818C115.095 58.7392 114.697 57.8478 114.733 57.8315C114.768 57.8152 115.22 58.6767 115.745 59.7555C116.268 60.8344 116.665 61.7257 116.63 61.742Z" fill="white"/>
<path d="M114.92 68.169C114.882 68.1608 114.988 67.4678 115.157 66.6227C115.325 65.7748 115.494 65.0954 115.532 65.1036C115.57 65.1117 115.464 65.8047 115.295 66.6499C115.127 67.495 114.958 68.1771 114.92 68.169Z" fill="white"/>
<path d="M119.624 73.2344C119.585 73.248 119.226 72.3132 118.815 71.1474C118.407 69.9815 118.105 69.025 118.143 69.0114C118.181 68.9978 118.54 69.9326 118.951 71.0984C119.36 72.2643 119.662 73.2208 119.624 73.2344Z" fill="white"/>
<path d="M118.97 76.1967C118.962 76.232 118.312 76.0961 117.596 75.7048C116.877 75.3189 116.407 74.8488 116.434 74.8243C116.461 74.7917 116.962 75.2048 117.664 75.5825C118.364 75.963 118.984 76.1559 118.97 76.1967Z" fill="white"/>
<path d="M124.996 82.9552C124.961 82.9715 124.743 82.5584 124.509 82.034C124.275 81.5095 124.114 81.0719 124.149 81.0556C124.185 81.0393 124.403 81.4524 124.637 81.9769C124.871 82.5014 125.031 82.9389 124.996 82.9552Z" fill="white"/>
<path d="M89.406 92.3794C89.3679 92.3848 89.2726 91.844 89.1937 91.1755C89.1147 90.507 89.0848 89.9608 89.1229 89.9554C89.161 89.9499 89.2563 90.4907 89.3352 91.1592C89.4141 91.8277 89.4441 92.374 89.406 92.3794Z" fill="white"/>
<path d="M107.895 91.9122C107.857 91.904 107.936 91.3769 108.072 90.7355C108.208 90.0942 108.35 89.5806 108.388 89.5887C108.426 89.5969 108.347 90.1241 108.211 90.7654C108.075 91.4067 107.933 91.9204 107.895 91.9122Z" fill="white"/>
<path d="M111.439 38.0264L113.829 33.8197C112.77 32.1049 112.161 30.0885 112.161 27.9281C112.161 21.7131 117.207 16.6748 123.432 16.6748C129.657 16.6748 134.703 21.7131 134.703 27.9281C134.703 34.1431 129.657 39.1814 123.432 39.1814C120.832 39.1814 118.44 38.3009 116.535 36.8253V36.8307L111.439 38.0291V38.0264Z" fill="#FAFAFA"/>
<path d="M111.439 38.0264C111.681 37.9721 113.296 37.6025 116.545 36.8606L116.597 36.8497L116.564 36.8062V36.8008L116.513 36.8497C117.155 37.347 117.925 37.8362 118.832 38.2465C119.738 38.6487 120.778 38.9748 121.924 39.127C122.495 39.2004 123.094 39.2466 123.709 39.2167C124.017 39.2004 124.33 39.1922 124.646 39.1651C124.959 39.1189 125.277 39.0699 125.598 39.021C126.875 38.7683 128.178 38.2846 129.398 37.5318C130.614 36.7791 131.741 35.76 132.645 34.5072C133.546 33.2544 134.229 31.7707 134.55 30.1592C134.866 28.5477 134.841 26.8221 134.417 25.1508C133.99 23.4849 133.192 21.8598 132 20.5228L131.54 20.0174C131.387 19.8462 131.208 19.7076 131.045 19.55C130.873 19.4032 130.718 19.2347 130.533 19.1043L129.991 18.6994C129.817 18.5581 129.624 18.4439 129.43 18.3298C129.24 18.2129 129.049 18.0988 128.859 17.9819C128.657 17.8841 128.459 17.789 128.26 17.6912C128.059 17.5988 127.865 17.4901 127.656 17.4221C126.017 16.7726 124.273 16.5253 122.601 16.6476C120.93 16.7672 119.333 17.2455 117.963 18.0173C116.589 18.7809 115.429 19.8027 114.534 20.9413C113.636 22.0827 113.004 23.3382 112.612 24.591C112.223 25.8492 112.117 27.0965 112.122 28.2515C112.155 29.4091 112.367 30.4771 112.675 31.412C112.983 32.3495 113.388 33.1566 113.805 33.8333V33.8007C112.297 36.4992 111.559 37.8172 111.442 38.0237C111.562 37.8172 112.316 36.51 113.862 33.8333L113.873 33.817L113.862 33.8007C113.451 33.124 113.053 32.3196 112.751 31.3875C112.452 30.4554 112.245 29.3983 112.218 28.2488C112.218 27.102 112.327 25.8682 112.716 24.6236C113.108 23.3844 113.736 22.1425 114.626 21.0147C115.514 19.8896 116.662 18.8814 118.023 18.1287C119.379 17.3678 120.96 16.8976 122.61 16.7808C124.259 16.6639 125.985 16.9085 127.601 17.5499C127.808 17.6151 127.999 17.7238 128.197 17.8162C128.393 17.9113 128.592 18.0064 128.788 18.1042C128.976 18.2184 129.164 18.3325 129.352 18.4466C129.542 18.5608 129.733 18.6722 129.904 18.8135L130.438 19.213C130.62 19.3407 130.772 19.5065 130.941 19.6532C131.102 19.8081 131.281 19.9467 131.431 20.1152L131.886 20.6152C133.064 21.9359 133.851 23.542 134.273 25.1861C134.692 26.8356 134.719 28.5422 134.409 30.1347C134.093 31.7272 133.421 33.1974 132.531 34.4338C131.641 35.6758 130.527 36.6867 129.324 37.4313C128.121 38.1813 126.831 38.6623 125.568 38.915C125.25 38.964 124.934 39.0129 124.626 39.0591C124.313 39.0863 124.006 39.0944 123.701 39.1134C123.091 39.146 122.498 39.0998 121.932 39.0292C120.794 38.8824 119.763 38.5618 118.862 38.1677C117.961 37.7655 117.193 37.2845 116.551 36.7954L116.341 36.635L116.502 36.8443V36.8497L116.526 36.7954C113.287 37.5807 111.676 37.9693 111.437 38.0291L111.439 38.0264Z" fill="#263238"/>
<path d="M126.475 27.458C126.475 28.064 126.967 28.5586 127.577 28.5586C128.187 28.5586 128.679 28.0667 128.679 27.458C128.679 26.8493 128.187 26.3574 127.577 26.3574C126.967 26.3574 126.475 26.8493 126.475 27.458Z" fill="#263238"/>
<path d="M122.067 27.458C122.067 28.064 122.56 28.5586 123.17 28.5586C123.779 28.5586 124.272 28.0667 124.272 27.458C124.272 26.8493 123.779 26.3574 123.17 26.3574C122.56 26.3574 122.067 26.8493 122.067 27.458Z" fill="#263238"/>
<path d="M117.669 26.9091C117.364 27.4363 117.547 28.1076 118.072 28.4119C118.6 28.7163 119.272 28.5342 119.577 28.0097C119.882 27.4825 119.7 26.8113 119.174 26.507C118.646 26.2026 117.974 26.3847 117.669 26.9091Z" fill="#263238"/>
</g>
<defs>
<clipPath id="clip0_1702_3740">
<rect width="192" height="109" fill="white"/>
</clipPath>
</defs>
</svg>
