<svg width="139" height="115" viewBox="0 0 139 115" fill="none" xmlns="http://www.w3.org/2000/svg">
<path d="M62.9013 105.775C92.1551 105.775 115.87 82.0966 115.87 52.8876C115.87 23.6786 92.1551 0 62.9013 0C33.6475 0 9.93262 23.6786 9.93262 52.8876C9.93262 82.0966 33.6475 105.775 62.9013 105.775Z" fill="#FC9999"/>
<path d="M77.047 105.194V107.234H48.5143L26.7646 95.4293V93.5933L48.9301 105.194H77.047Z" fill="#8E8E8E"/>
<path d="M77.047 105.194H48.9301L26.7646 93.5933H54.8816L77.047 105.194Z" fill="#B7B7B7"/>
<path d="M51.9042 104.303H48.444L45.7129 102.873H49.1763L51.9042 104.303Z" fill="#8E8E8E"/>
<path d="M48.246 102.393H44.7858L42.0547 100.966H45.5181L48.246 102.393Z" fill="#8E8E8E"/>
<path d="M45.1503 100.561H41.6901L38.959 99.1301H42.4224L45.1503 100.561Z" fill="#8E8E8E"/>
<path d="M41.4912 98.6512H38.0277L35.2998 97.2239H38.7632L41.4912 98.6512Z" fill="#8E8E8E"/>
<path d="M56.0839 104.025H52.6205L49.8926 102.598H53.356L56.0839 104.025Z" fill="#8E8E8E"/>
<path d="M52.9882 102.192H49.5248L46.7969 100.762H50.2603L52.9882 102.192Z" fill="#8E8E8E"/>
<path d="M49.33 100.283H45.8666L43.1387 98.8523H46.5989L49.33 100.283Z" fill="#8E8E8E"/>
<path d="M56.8388 101.851H53.3786L50.6475 100.423H54.1109L56.8388 101.851Z" fill="#8E8E8E"/>
<path d="M53.7431 100.018H50.2829L47.5518 98.5874H51.0152L53.7431 100.018Z" fill="#8E8E8E"/>
<path d="M50.0849 98.1083H46.6215L43.8936 96.6777H47.357L50.0849 98.1083Z" fill="#8E8E8E"/>
<path d="M69.5959 104.475H66.1325L63.4014 103.045H66.8648L69.5959 104.475Z" fill="#8E8E8E"/>
<path d="M65.9367 102.566H62.4733L59.7422 101.139H63.2056L65.9367 102.566Z" fill="#8E8E8E"/>
<path d="M62.8378 100.733H59.3776L56.6465 99.3025H60.1099L62.8378 100.733Z" fill="#8E8E8E"/>
<path d="M59.1796 98.8236H55.7194L52.9883 97.3962H56.4517L59.1796 98.8236Z" fill="#8E8E8E"/>
<path d="M73.7724 104.198H70.3122L67.5811 102.77H71.0445L73.7724 104.198Z" fill="#8E8E8E"/>
<path d="M70.6767 102.365H67.2165L64.4854 100.934H67.9488L70.6767 102.365Z" fill="#8E8E8E"/>
<path d="M67.0185 100.455H63.5551L60.8271 99.0247H64.2906L67.0185 100.455Z" fill="#8E8E8E"/>
<path d="M95.0099 115H66.893L52.5371 107.47H80.654L95.0099 115Z" fill="#D5E0E0"/>
<path d="M75.5088 114.096H67.3282L63.1484 111.903H71.3322L75.5088 114.096Z" fill="#F15C59"/>
<path d="M78.0635 113.956C78.0123 113.956 77.9611 113.943 77.9164 113.921L68.2136 108.831C68.0569 108.748 67.9961 108.556 68.0793 108.4C68.1624 108.243 68.3543 108.186 68.511 108.266L78.2138 113.355C78.3705 113.438 78.4312 113.63 78.3481 113.786C78.2905 113.895 78.1786 113.959 78.0635 113.959V113.956Z" fill="#B7B7B7"/>
<path d="M81.3291 113.77C81.2779 113.77 81.2268 113.758 81.182 113.735L71.4792 108.645C71.3225 108.562 71.2617 108.371 71.3449 108.214C71.428 108.058 71.6199 108 71.7766 108.08L81.4794 113.17C81.6361 113.253 81.6969 113.445 81.6137 113.601C81.5562 113.71 81.4442 113.774 81.3291 113.774V113.77Z" fill="#B7B7B7"/>
<path d="M85.7676 114.051C85.7164 114.051 85.6652 114.039 85.6205 114.016L75.9177 108.926C75.761 108.843 75.7002 108.652 75.7834 108.495C75.8665 108.339 76.0584 108.281 76.2151 108.361L85.9179 113.451C86.0746 113.534 86.1353 113.726 86.0522 113.882C85.9946 113.991 85.8827 114.055 85.7676 114.055V114.051Z" fill="#B7B7B7"/>
<path d="M89.0293 113.863C88.9781 113.863 88.927 113.85 88.8822 113.828L79.1794 108.738C79.0227 108.655 78.9619 108.464 79.0451 108.307C79.1282 108.151 79.3201 108.093 79.4768 108.173L89.1796 113.263C89.3363 113.346 89.3971 113.537 89.3139 113.694C89.2563 113.802 89.1444 113.866 89.0293 113.866V113.863Z" fill="#B7B7B7"/>
<path d="M118.348 29.1468L123.82 26.3017C126.001 26.8733 128.371 26.8414 130.677 26.0814C137.034 23.9835 140.485 17.1375 138.384 10.7896C136.283 4.44168 129.426 0.996306 123.069 3.09418C116.714 5.18887 113.264 12.0381 115.365 18.386C115.972 20.2221 116.98 21.8186 118.259 23.1054L118.352 29.15L118.348 29.1468Z" fill="#FC9999"/>
<path d="M130.29 22.9872V23.7791H129.605H124.984H124.274V21.512L130.29 22.9872Z" fill="#8E8E8E"/>
<path d="M124.984 23.7791H129.605C129.605 23.7791 129.497 24.7338 127.281 24.7338C125.064 24.7338 124.984 23.7791 124.984 23.7791Z" fill="#B7B7B7"/>
<path d="M130.29 20.8286V22.9872L124.274 21.5119V20.8286H124.703H129.992H130.29Z" fill="#B7B7B7"/>
<path d="M134.444 11.3292C134.444 13.9379 133.03 16.221 130.923 17.4504L129.992 20.8287H124.703L123.775 17.4504C121.668 16.221 120.251 13.9379 120.251 11.3292C120.251 7.41759 123.43 4.24683 127.347 4.24683C131.265 4.24683 134.441 7.41759 134.441 11.3292H134.444Z" fill="#F15C59"/>
<path d="M124.501 12.9705C124.475 12.8012 124.216 12.8747 124.242 13.0407C124.639 15.5792 125.035 18.1178 125.432 20.6563C125.457 20.8255 125.716 20.7521 125.691 20.5861C125.294 18.0475 124.898 15.509 124.501 12.9705Z" fill="white"/>
<path d="M130.126 12.715C129.697 15.3877 129.269 18.0603 128.844 20.7298C128.818 20.899 129.074 20.9692 129.103 20.8C129.531 18.1274 129.96 15.4547 130.385 12.7853C130.411 12.6161 130.155 12.5458 130.126 12.715Z" fill="white"/>
<path d="M130.849 14.6436C130.648 15.1961 130.028 15.5696 129.445 15.4579C128.953 15.3621 128.576 14.9981 128.317 14.5766C128.556 14.2317 128.729 13.8294 128.819 13.4558C128.915 13.0631 128.94 12.6543 128.883 12.252C128.841 11.9455 128.697 11.5559 128.342 11.5112C127.93 11.4569 127.719 11.8688 127.651 12.2105C127.565 12.6479 127.565 13.1014 127.645 13.5388C127.706 13.8773 127.821 14.2253 127.987 14.5479C127.952 14.5926 127.917 14.6341 127.878 14.6756C127.648 14.9246 127.36 15.1577 127.005 15.1769C126.67 15.1961 126.433 14.9853 126.26 14.7235C126.439 14.468 126.561 14.1647 126.625 13.8645C126.718 13.4207 126.759 12.9289 126.727 12.4787C126.705 12.1275 126.462 11.7156 126.049 11.8337C125.624 11.955 125.553 12.4723 125.525 12.8427C125.493 13.2674 125.547 13.7017 125.675 14.1072C125.739 14.3084 125.825 14.5223 125.937 14.7203C125.765 14.9214 125.537 15.0683 125.246 15.1162C124.444 15.2503 124.14 14.4297 123.983 13.8039C123.942 13.6378 123.683 13.7081 123.724 13.8741C123.897 14.567 124.236 15.3972 125.08 15.394C125.486 15.394 125.822 15.2152 126.075 14.947C126.139 15.0364 126.209 15.1162 126.289 15.1865C126.596 15.4611 127.012 15.509 127.392 15.3557C127.674 15.2408 127.92 15.046 128.128 14.8065C128.374 15.1801 128.707 15.4898 129.129 15.6495C129.916 15.9464 130.814 15.4962 131.096 14.7171C131.153 14.5542 130.897 14.4872 130.837 14.6468L130.849 14.6436ZM125.819 12.6479C125.845 12.4787 125.876 12.2744 126.011 12.153C126.174 12.0061 126.359 12.1019 126.43 12.2839C126.497 12.4532 126.468 12.6575 126.465 12.8331C126.459 13.0215 126.452 13.2099 126.433 13.3951C126.398 13.7464 126.305 14.1423 126.12 14.4648C125.838 13.9092 125.729 13.2642 125.819 12.6479ZM128.144 14.2541C127.856 13.6187 127.763 12.8523 127.933 12.169C127.971 12.0157 128.045 11.8305 128.211 11.7794C128.374 11.7283 128.486 11.8688 128.544 12.0029C128.665 12.2775 128.659 12.6256 128.633 12.9194C128.595 13.4047 128.429 13.8869 128.163 14.2988C128.157 14.2828 128.147 14.2669 128.141 14.2541H128.144Z" fill="white"/>
<path d="M51.9874 42.7079L46.2949 43.5892C44.9677 45.2241 43.1673 46.5077 41.015 47.207C35.0699 49.1388 28.6803 45.8946 26.7455 39.9586C24.8107 34.0226 28.0599 27.6428 34.005 25.7109C39.9469 23.7791 46.3365 27.0233 48.2713 32.9593C48.8309 34.6772 48.9557 36.4334 48.7094 38.1066L51.9874 42.7047V42.7079Z" fill="white"/>
<path d="M46.5026 32.8347L35.9044 43.4167L30.1416 37.6595L32.9335 34.8687L35.9044 37.8351L43.7076 30.0439L46.5026 32.8347Z" fill="#F15C59"/>
<path d="M110.705 56.0967L103.484 64.188L101.638 69.1597L101.261 64.4978L100.503 58.8172L100.58 57.7667L101.012 51.8307C99.8123 51.9425 98.645 51.9105 97.5481 51.7125C93.2308 50.9462 89.9368 47.6541 89.5243 40.5303C89.2716 36.1908 89.8089 32.9211 90.5348 30.5645C91.5998 27.1032 93.0804 25.6184 93.0804 25.6184C93.0804 25.6184 98.4819 34.6517 105.639 35.6512C105.639 35.6512 106.95 32.5634 108.994 33.4735C111.04 34.3835 111.04 40.5271 107.798 41.3317C107.372 45.5818 107.993 49.9372 109.592 53.8998C109.899 54.6566 110.254 55.4166 110.705 56.0967Z" fill="#FF9971"/>
<path d="M103.643 44.0044C105.242 44.0044 106.537 42.7106 106.537 41.1146C106.537 39.5186 105.242 38.2249 103.643 38.2249C102.045 38.2249 100.749 39.5186 100.749 41.1146C100.749 42.7106 102.045 44.0044 103.643 44.0044Z" fill="#F9785A"/>
<path d="M104.616 51.1187L100.785 54.9376L101.012 51.8307C102.189 51.7253 103.401 51.4795 104.616 51.1187Z" fill="#2E303D"/>
<path d="M100.785 54.9374L100.58 57.7666C100.58 57.7666 96.4289 59.6249 94.5261 64.0155C94.1136 62.6808 94.1583 61.2215 94.4558 59.8517C94.7915 58.319 95.4247 56.8725 96.0644 55.4452C96.6112 54.2222 97.1677 52.9928 97.5482 51.7124C98.6452 51.9104 99.8124 51.9423 101.012 51.8306L100.785 54.9374Z" fill="#2E303D"/>
<path d="M93.9252 37.0242L95.5722 43.95C95.5722 43.95 92.7036 44.8154 92.3262 44.1257C91.9489 43.4391 93.9252 37.0242 93.9252 37.0242Z" fill="#F9785A"/>
<path d="M134.29 57.6037C133.433 54.1009 131.351 51.0706 128.982 48.4108C127.063 46.2586 124.93 44.3108 122.905 42.2576C122.272 41.2263 121.677 40.1725 121.15 39.0805C119.167 34.9965 118.128 30.5038 116.087 26.4517C114.044 22.3965 110.619 18.6222 106.129 17.9229C99.5343 16.8947 93.2406 22.7317 86.6814 21.5024C86.4224 24.8328 87.7976 28.2558 90.292 30.4846L90.5382 30.5613C91.4529 27.5917 92.6681 26.0813 92.9975 25.7109C93.3909 27.6715 94.7564 29.284 96.106 30.7081C97.6826 32.3749 99.4607 33.9236 101.616 34.7826C102.547 35.153 103.535 35.3829 104.536 35.4244C104.901 35.517 105.268 35.5968 105.642 35.6479C105.642 35.6479 106.954 32.5602 108.997 33.4702C111.044 34.3802 111.044 40.5238 107.801 41.3284C107.376 45.5785 107.996 49.9339 109.595 53.8965C109.902 54.6533 110.257 55.4133 110.708 56.0934C110.986 56.5181 111.303 56.9108 111.671 57.2557C111.802 57.3802 111.939 57.4984 112.086 57.6101C114.898 59.7527 119.039 58.4691 122.349 59.7112C125.413 60.8607 127.312 64.0794 127.811 67.3108C128.313 70.5423 127.661 73.828 127.015 77.0339L127.072 77.053C127.136 76.8614 127.197 76.6666 127.258 76.4751C131.553 74.9551 134.098 70.306 134.303 65.7302C134.92 63.0672 134.943 60.2604 134.29 57.6037ZM99.1665 33.0487C98.2678 32.3941 97.446 31.6373 96.672 30.8423C95.9141 30.0631 95.1658 29.2585 94.5422 28.3644C94.0721 27.6907 93.6755 26.9594 93.4388 26.1771C94.5422 27.8439 98.1335 32.822 102.873 34.8592C101.539 34.5175 100.283 33.8629 99.1665 33.0519V33.0487ZM134.277 64.1241C133.967 59.4973 131.725 55.1802 129.138 51.3069C127.376 48.6726 125.429 46.1469 123.695 43.4966C124.926 44.7131 126.18 45.9138 127.383 47.1591C129.922 49.7902 132.327 52.7279 133.548 56.2211C134.431 58.7469 134.652 61.4802 134.277 64.1241Z" fill="#2E303D"/>
<path d="M92.7197 37.0849C92.7197 38.0811 92.1568 38.889 91.4629 38.889C90.7689 38.889 90.2061 38.0811 90.2061 37.0849C90.2061 36.0886 90.7689 35.2808 91.4629 35.2808C92.1568 35.2808 92.7197 36.0886 92.7197 37.0849Z" fill="#2E303D"/>
<path d="M99.2275 36.8261C99.2275 37.8223 98.6647 38.6302 97.9707 38.6302C97.2767 38.6302 96.7139 37.8223 96.7139 36.8261C96.7139 35.8298 97.2767 35.022 97.9707 35.022C98.6647 35.022 99.2275 35.8298 99.2275 36.8261Z" fill="#2E303D"/>
<path d="M92.2654 32.9178C91.6418 32.8859 91.0149 32.9465 90.4073 33.0806C90.0811 33.1541 89.8573 33.55 89.9596 33.8661C90.0715 34.2078 90.3945 34.3898 90.7463 34.3132C90.8966 34.2812 91.0501 34.2557 91.2004 34.2333C91.5522 34.1918 91.9072 34.1791 92.2622 34.1982C92.598 34.2174 92.9178 33.8917 92.9018 33.5596C92.8858 33.1988 92.6203 32.9401 92.2622 32.921L92.2654 32.9178Z" fill="#2E303D"/>
<path d="M99.9183 33.4894C99.8224 33.3393 99.6977 33.2627 99.5346 33.1956C98.8118 32.905 98.0027 32.7901 97.2288 32.8699C97.0561 32.8891 96.9058 32.9306 96.7779 33.0583C96.666 33.1701 96.5828 33.3521 96.5892 33.5085C96.602 33.8247 96.8738 34.1823 97.2288 34.1472C97.5486 34.1152 97.8684 34.1216 98.1882 34.1567C98.5336 34.211 98.8694 34.2972 99.1924 34.4282C99.3363 34.4856 99.557 34.4377 99.6849 34.3643C99.816 34.2877 99.9439 34.1344 99.9791 33.9811C100.017 33.8183 100.008 33.6331 99.9151 33.4894H99.9183Z" fill="#2E303D"/>
<path d="M100.404 46.2937C100.867 47.4369 100.432 48.6918 99.4315 49.0973C98.4305 49.5028 97.2441 48.9025 96.7804 47.7594C96.3166 46.6162 96.7516 45.3613 97.7525 44.9558C98.7535 44.5503 99.9432 45.1506 100.404 46.2937Z" fill="#E56B45"/>
<path d="M100.749 44.7036C100.749 44.7036 101.706 47.4337 98.9489 48.3438C96.7039 49.0846 95.7605 47.6125 95.5078 47.108L100.749 44.7036Z" fill="white"/>
<path d="M127.012 77.0372L127.07 77.0563C126.181 79.812 125.17 82.5772 124.15 85.186C120.997 93.2486 117.748 99.8232 117.648 100.018C114.534 95.7233 108.732 92.8718 106.849 92.0257C106.462 91.8532 106.241 91.7638 106.241 91.7638L105.055 95.3146C105.154 95.4072 105.256 95.4998 105.352 95.5892L94.5972 97.0197V92.594C94.5972 92.594 94.3317 92.0193 93.9384 91.106C93.4011 89.8607 92.624 87.9832 91.9748 86.0928C91.2616 84.0173 90.702 81.9258 90.7691 80.639C90.9482 77.3246 98.2205 64.5425 98.2205 64.5425C98.2301 66.3849 98.6395 67.8729 98.6395 67.8729C98.6714 67.675 98.745 67.4642 98.8537 67.2503C98.8857 67.3876 99.9155 71.628 101.837 74.8403L105.931 67.8729C106.1 68.3104 106.267 68.7989 106.417 69.3354C106.417 69.3354 110.958 62.004 111.668 57.2622C111.799 57.3835 111.937 57.5017 112.084 57.6135C114.895 59.756 119.036 58.4724 122.346 59.7145C125.41 60.864 127.31 64.0827 127.809 67.3141C128.311 70.5456 127.658 73.8313 127.012 77.0372Z" fill="#F15C59"/>
<path d="M124.15 85.1892L126.066 102.001H117.438L118.154 100.759C117.997 100.507 117.828 100.261 117.649 100.018C117.748 99.8233 120.997 93.2486 124.15 85.1892Z" fill="#F15C59"/>
<path d="M117.648 100.018C117.828 100.261 117.997 100.506 118.154 100.759L117.437 102.001L113.827 108.275C113.827 108.275 112.557 102.314 105.352 95.589C105.256 95.4996 105.154 95.407 105.055 95.3144L106.241 91.7637C106.241 91.7637 106.462 91.8531 106.849 92.0255C108.732 92.8717 114.534 95.7231 117.648 100.018Z" fill="#FC7474"/>
<path d="M113.826 108.275C113.826 108.275 105.566 108.422 82.4729 107.091C82.4729 107.091 77.0778 110.82 74.8872 110.584C72.6933 110.348 68.3664 106.292 67.2983 104.606C66.2334 102.921 69.0188 100.404 69.0188 100.404C69.0188 100.404 69.0476 99.1335 70.7969 98.3927C71.5772 98.0638 73.7167 98.1085 75.853 98.2586C78.5137 98.4501 81.1681 98.8078 81.1681 98.8078L87.5929 97.952L94.5965 97.0196L105.351 95.5891C112.557 102.314 113.826 108.275 113.826 108.275Z" fill="#FF9971"/>
<path d="M111.668 57.259C110.958 62.0039 106.417 69.3353 106.417 69.3353C106.267 68.7989 106.1 68.3103 105.931 67.8729C104.834 65.0374 103.484 64.188 103.484 64.188L110.705 56.0967C110.984 56.5214 111.3 56.9141 111.668 57.259Z" fill="white"/>
<path d="M105.931 67.8728L101.837 74.8402C99.9153 71.628 98.8855 67.3875 98.8535 67.2502C99.4963 65.9506 101.262 64.4977 101.262 64.4977L101.639 69.1597L103.484 64.188C103.484 64.188 104.834 65.0374 105.931 67.8728Z" fill="#D7F2ED"/>
<path d="M98.2072 84.6943H103.196L103.394 94.8995H96.0165L95.8662 84.6943H98.2072ZM101.635 90.4675V85.6746H97.6251V90.4675H101.635Z" fill="white"/>
<path d="M101.635 85.6746H97.625V90.4674H101.635V85.6746Z" fill="#F15C59"/>
<path d="M100.503 58.8171L101.261 64.4977C101.261 64.4977 99.4959 65.9506 98.8531 67.247C98.7443 67.4641 98.6708 67.6748 98.6388 67.8728C98.6388 67.8728 98.2295 66.3848 98.2199 64.5424C98.2103 62.585 98.6484 60.2221 100.503 58.8171Z" fill="white"/>
<path d="M99.4926 83.1392L100.724 84.6942H98.207L99.4926 83.1392Z" fill="#B7B7B7"/>
<path d="M94.5262 64.0155C96.429 59.625 100.58 57.7666 100.58 57.7666L100.503 58.8171C98.6484 60.2221 98.2103 62.585 98.2199 64.5424C98.2199 64.5424 90.9476 77.3244 90.7685 80.6389C90.7013 81.9257 91.261 84.0172 91.9742 86.0927L91.5392 86.2013L88.418 84.6878L88.5171 84.4866C88.5171 84.4866 92.489 70.4305 94.088 65.1938C94.2128 64.7819 94.3599 64.3891 94.5262 64.0155Z" fill="#F15C59"/>
<path d="M94.5968 92.594V97.0196L87.5932 97.952L66.2784 97.9073C62.6711 99.456 60.8066 99.539 59.4123 98.8461C58.8431 98.8844 56.7068 99.1207 56.1375 99.1558C56.0832 99.7689 55.8945 100.315 55.386 100.315C54.2315 100.315 52.9427 97.7413 52.9427 97.7413C52.9427 97.7413 52.5877 100.315 51.4301 99.6955C50.2756 99.0728 50.5858 95.5508 50.5858 95.5508C50.5858 95.5508 47.9634 98.1181 47.6084 97.1506C47.2535 96.1799 48.9868 91.5722 53.2977 91.1731C57.6086 90.7739 67.3434 92.5046 67.3434 92.5046L86.6498 89.2795L93.938 91.106C94.3314 92.0192 94.5968 92.594 94.5968 92.594Z" fill="#FF9971"/>
<path d="M93.9378 91.106L86.6496 89.2795C86.2019 85.7 87.3915 84.1897 87.3915 84.1897L88.4181 84.6878L91.9743 86.0928C92.6235 87.9831 93.4006 89.8607 93.9378 91.106Z" fill="#FC7474"/>
<path d="M79.2683 91.0677C79.7256 91.3806 79.8504 92.0065 79.5721 92.4854C77.3175 92.1949 76.7803 91.1699 76.7803 91.1699C76.9658 90.8569 77.3335 90.4865 77.6949 90.4674C78.1362 90.4482 78.7119 90.6877 79.2683 91.0677Z" fill="#ED694F"/>
<path d="M79.5719 92.4855L78.2095 94.8324C76.4155 94.5738 75.4561 93.3891 75.4561 93.3891L76.78 91.1699C76.78 91.1699 77.3173 92.1949 79.5719 92.4855Z" fill="#FF9076"/>
<path d="M78.21 94.8324L76.0865 98.4918L72.46 98.4151L75.4565 93.3892C75.4565 93.3892 76.4159 94.5738 78.21 94.8324Z" fill="#F15C59"/>
<path d="M113.151 69.6292C112.275 72.3881 111.396 75.1469 110.519 77.9089C109.646 80.655 108.773 83.4043 107.897 86.1504C107.401 87.7086 106.906 89.2637 106.41 90.8219C106.346 91.0167 106.656 91.1029 106.717 90.9081C107.593 88.1493 108.473 85.3904 109.349 82.6284C110.222 79.8823 111.095 77.133 111.971 74.3869C112.467 72.8287 112.963 71.2737 113.458 69.7154C113.522 69.5206 113.212 69.4344 113.151 69.6292Z" fill="#2E303D"/>
<path d="M123.99 85.6425C122.151 89.2922 120.463 93.0186 118.927 96.8056C118.496 97.8753 118.074 98.9482 117.667 100.024C117.594 100.216 117.904 100.299 117.974 100.11C119.41 96.3139 121.003 92.5747 122.746 88.909C123.242 87.8681 123.747 86.8335 124.265 85.8021C124.358 85.6201 124.083 85.4573 123.99 85.6425Z" fill="#2E303D"/>
<path d="M97.7851 64.9128C96.2628 67.7291 94.7054 70.5263 93.2311 73.365C91.8975 75.9258 90.7239 78.6719 90.7335 81.6096C90.7399 83.1359 91.0724 84.6622 91.8304 85.9969C91.9327 86.1757 92.2077 86.0161 92.1054 85.8373C90.7239 83.4105 90.8486 80.4537 91.6449 77.8577C92.0734 76.4559 92.6874 75.1244 93.3558 73.8216C94.053 72.4613 94.7949 71.1266 95.5209 69.7823C96.3684 68.2145 97.2158 66.6434 98.0633 65.0756C98.1624 64.8936 97.8842 64.734 97.7883 64.916L97.7851 64.9128Z" fill="#2E303D"/>
<path d="M105.915 68.2434C104.188 72.1453 102.457 76.0473 100.731 79.9493C100.308 80.9009 99.8895 81.8492 99.4673 82.8008C98.8213 78.9116 98.5431 74.9617 98.6518 71.0214C98.6838 69.8527 98.751 68.684 98.8469 67.5153C98.8629 67.311 98.5431 67.311 98.5271 67.5153C98.1785 71.6632 98.2489 75.843 98.7382 79.9749C98.8725 81.1052 99.0388 82.2324 99.2339 83.3532C99.2339 83.3819 99.2403 83.4107 99.253 83.433C99.269 83.4841 99.3074 83.5128 99.3522 83.5224C99.4161 83.548 99.4897 83.5352 99.5249 83.4522C99.5249 83.4522 99.5249 83.4458 99.5281 83.4458C99.5377 83.4298 99.5473 83.4139 99.5505 83.3947C101.271 79.5119 102.988 75.629 104.709 71.7462C105.201 70.6318 105.697 69.5174 106.19 68.3998C106.273 68.2146 105.998 68.0518 105.915 68.2402V68.2434Z" fill="#2E303D"/>
<path d="M94.3734 97.0963C92.106 97.3166 89.8386 97.5401 87.5713 97.7605C87.3698 97.7796 87.3666 98.0989 87.5713 98.0798C89.8386 97.8594 92.106 97.6359 94.3734 97.4156C94.5749 97.3964 94.5781 97.0771 94.3734 97.0963Z" fill="#2E303D"/>
<path d="M62.7476 97.687C60.8416 98.2905 58.8716 98.6897 56.8792 98.8685C56.6522 98.8877 56.4219 98.9068 56.1917 98.9196C55.9998 98.9324 55.8015 98.9547 55.6096 98.9164C55.4625 98.8877 55.2994 98.8174 55.3122 98.6418C55.325 98.4247 55.6032 98.2203 55.7471 98.083C56.4027 97.4635 57.1063 96.892 57.8514 96.3811C58.6925 95.8031 59.5848 95.2986 60.5122 94.8739C60.6977 94.7877 60.5378 94.5131 60.3523 94.5993C58.5454 95.4295 56.8824 96.5567 55.4465 97.9297C55.1779 98.1884 54.8261 98.5683 55.0819 98.9579C55.2674 99.2357 55.6608 99.2676 55.9646 99.2549C57.0455 99.2102 58.1297 99.0697 59.1978 98.8845C60.429 98.6705 61.6443 98.3736 62.8339 97.9968C63.029 97.9361 62.9459 97.6264 62.7476 97.6902V97.687Z" fill="#2E303D"/>
<path d="M53.1056 97.6997C52.6835 96.2884 52.6803 94.7908 53.0896 93.3762C53.1472 93.1783 52.8402 93.0952 52.7826 93.29C52.3573 94.7557 52.3605 96.3203 52.7986 97.7827C52.8562 97.9807 53.1664 97.8945 53.1056 97.6965V97.6997Z" fill="#2E303D"/>
<path d="M51.9037 92.859C51.8206 92.8112 51.7374 92.8495 51.6863 92.9165C51.0914 93.6924 50.6853 94.6057 50.5062 95.5668C50.4678 95.768 50.778 95.8542 50.8132 95.653C50.9891 94.7142 51.3793 93.8361 51.9613 93.0762C52.0157 93.0059 51.9709 92.8974 51.9037 92.859Z" fill="#2E303D"/>
<path d="M101.13 64.4883C100.206 65.4015 99.3396 66.369 98.5337 67.3876C98.4089 67.5473 98.6328 67.774 98.7607 67.6143C99.5666 66.5957 100.433 65.6282 101.358 64.715C101.505 64.5713 101.278 64.3446 101.13 64.4883Z" fill="#2E303D"/>
<path d="M106.468 69.0065C105.925 67.1833 104.984 65.5005 103.715 64.0795C103.577 63.9263 103.353 64.153 103.488 64.3063C104.719 65.6825 105.634 67.3206 106.158 69.0895C106.216 69.2875 106.526 69.2013 106.465 69.0033L106.468 69.0065Z" fill="#2E303D"/>
<path d="M101.894 69.4248C101.885 69.2204 101.565 69.2204 101.574 69.4248C101.635 70.8393 101.696 72.257 101.757 73.6716C101.766 73.876 102.086 73.876 102.077 73.6716C102.016 72.257 101.955 70.8393 101.894 69.4248Z" fill="#2E303D"/>
<path d="M103.052 70.239C102.962 70.057 102.726 69.958 102.537 70.0315C102.479 70.0538 102.428 70.089 102.384 70.1305C102.377 70.1337 102.371 70.1369 102.368 70.1432C102.358 70.1528 102.355 70.1688 102.345 70.1784C102.329 70.1975 102.31 70.2103 102.3 70.2327C102.294 70.2454 102.294 70.2582 102.291 70.2678C102.288 70.2774 102.284 70.2901 102.281 70.2997C102.268 70.338 102.259 70.3795 102.259 70.4178C102.259 70.421 102.259 70.4274 102.259 70.4306C102.259 70.4434 102.265 70.453 102.265 70.4626C102.265 70.4881 102.265 70.5136 102.272 70.5392C102.272 70.5488 102.281 70.5583 102.284 70.5679C102.291 70.5871 102.3 70.6031 102.31 70.6222C102.326 70.651 102.339 70.6765 102.361 70.702C102.364 70.7084 102.368 70.7148 102.371 70.7212C102.38 70.734 102.396 70.7404 102.409 70.7499C102.425 70.7627 102.438 70.7819 102.454 70.7914C102.46 70.7946 102.47 70.7946 102.476 70.801C102.495 70.8106 102.518 70.817 102.54 70.8234C102.566 70.833 102.591 70.8425 102.62 70.8457C102.722 70.8617 102.828 70.8425 102.908 70.7819C102.991 70.7212 103.055 70.6382 103.084 70.536C103.113 70.4338 103.1 70.3284 103.055 70.2327L103.052 70.239Z" fill="#2E303D"/>
<path d="M21.4875 98.5042L20.5377 106.321L36.8955 105.315V108.572L13.0703 111.235L6.61035 106.321L13.9786 88.9089L16.6265 82.6504L23.2048 84.3683L22.3797 91.1728L21.4875 98.5042Z" fill="#8E8E8E"/>
<path d="M30.228 39.4221L41.2835 96.9429H36.5408L25.4277 39.4221H30.228Z" fill="#8E8E8E"/>
<path d="M36.8959 105.315L20.5381 106.321L21.4879 98.5044L36.8959 105.315Z" fill="#B7B7B7"/>
<path d="M25.4274 39.4221L36.5405 96.9429L22.3797 91.1729L23.2048 84.3684L16.6265 82.6505L13.9785 88.909L12.8048 88.4109L0 39.4221H25.4274Z" fill="#B7B7B7"/>
<path d="M34.2064 84.1609C33.5924 80.5591 32.9624 76.9605 32.3196 73.365C31.6704 69.7504 31.0052 66.1422 30.324 62.534C29.646 58.9449 28.9521 55.359 28.2421 51.7732C27.5321 48.1873 26.8062 44.6078 26.0643 41.0315C25.9715 40.5845 25.8788 40.1375 25.786 39.6904C25.7445 39.4893 25.4342 39.5755 25.479 39.7766C26.2242 43.3529 26.9533 46.9324 27.6697 50.5151C28.3828 54.0978 29.08 57.6836 29.7644 61.2727C30.4487 64.8809 31.1171 68.4891 31.7695 72.1037C32.4187 75.6992 33.0519 79.2978 33.6691 82.8965C34.2863 86.4983 34.8876 90.1001 35.4728 93.7052C35.5464 94.1554 35.6199 94.6056 35.6903 95.059C35.7222 95.2602 36.0325 95.174 35.9973 94.9728C35.4152 91.3678 34.8204 87.7628 34.2064 84.1609Z" fill="#2E303D"/>
<path d="M21.2315 84.2311C20.2593 87.6924 19.2455 91.1442 18.1966 94.5864C17.1476 98.0126 16.0603 101.429 14.9346 104.83C14.2982 106.755 13.649 108.674 12.987 110.59C12.9198 110.785 13.23 110.868 13.294 110.676C14.4677 107.276 15.603 103.862 16.6999 100.436C17.7904 97.0227 18.8458 93.5965 19.8595 90.1607C20.432 88.2161 20.9948 86.2683 21.5417 84.3173C21.596 84.1193 21.289 84.0331 21.2347 84.2311H21.2315Z" fill="#2E303D"/>
<path d="M83.0703 36.6508L80.2625 31.7079C81.5065 29.693 82.2228 27.3237 82.2228 24.7852C82.2228 17.4825 76.2937 11.5625 68.9799 11.5625C61.666 11.5625 55.7369 17.4825 55.7369 24.7852C55.7369 32.0878 61.666 38.0079 68.9799 38.0079C72.034 38.0079 74.845 36.9733 77.0836 35.2394V35.2458L83.0703 36.654V36.6508Z" fill="#FAFAFA"/>
<path d="M83.0701 36.6508C82.7854 36.587 80.889 36.1527 77.0706 35.281L77.0098 35.2682L77.0482 35.2171V35.2107L77.109 35.2682C76.3542 35.8526 75.4492 36.4273 74.3842 36.9095C73.3193 37.3821 72.0977 37.7652 70.7513 37.9441C70.0797 38.0303 69.3762 38.0846 68.6534 38.0494C68.292 38.0303 67.9243 38.0207 67.5533 37.9888C67.1855 37.9345 66.8114 37.877 66.434 37.8195C64.9341 37.5226 63.4023 36.9542 61.9696 36.0697C60.5401 35.1852 59.2161 33.9878 58.1543 32.5158C57.0958 31.0437 56.2931 29.3003 55.9157 27.4068C55.5448 25.5133 55.5735 23.4856 56.0724 21.5219C56.5745 19.5645 57.5115 17.655 58.9123 16.084L59.4527 15.4901C59.6318 15.2889 59.8429 15.1261 60.0348 14.9409C60.2362 14.7684 60.4185 14.5705 60.636 14.4172L61.2724 13.9414C61.4771 13.7754 61.7041 13.6413 61.9312 13.5071C62.1551 13.3698 62.3789 13.2357 62.6028 13.0984C62.8394 12.9835 63.0729 12.8717 63.3063 12.7568C63.543 12.6482 63.77 12.5205 64.0163 12.4406C65.9415 11.6775 67.9914 11.3869 69.955 11.5306C71.9186 11.6711 73.7958 12.2331 75.4044 13.1399C77.0194 14.0372 78.3818 15.2378 79.4339 16.5757C80.4893 17.9168 81.2312 19.3921 81.6917 20.8641C82.149 22.3425 82.2737 23.8081 82.2673 25.1652C82.229 26.5255 81.9795 27.7804 81.6182 28.8788C81.2568 29.9804 80.7803 30.9288 80.291 31.7239V31.6855C82.0627 34.8563 82.9293 36.405 83.0668 36.6476C82.9261 36.405 82.0403 34.8691 80.2238 31.7239L80.211 31.7047L80.2238 31.6855C80.7067 30.8905 81.1736 29.9453 81.5286 28.8501C81.8804 27.7548 82.1234 26.5127 82.1554 25.162C82.1554 23.8145 82.0275 22.3648 81.5702 20.9024C81.1097 19.4463 80.3709 17.9871 79.3252 16.6619C78.2826 15.34 76.9331 14.1553 75.3341 13.2709C73.7414 12.3768 71.8834 11.8244 69.9454 11.6871C68.0074 11.5498 65.9799 11.8371 64.0803 12.5907C63.8372 12.6674 63.6133 12.7951 63.3799 12.9036C63.1496 13.0154 62.9162 13.1272 62.6859 13.2421C62.4653 13.3762 62.2446 13.5103 62.0239 13.6444C61.8001 13.7786 61.5762 13.9095 61.3747 14.0755L60.7479 14.5449C60.5337 14.695 60.3546 14.8898 60.1563 15.0622C59.9676 15.2442 59.7565 15.407 59.5806 15.605L59.0466 16.1926C57.6618 17.7444 56.7376 19.6315 56.2419 21.5634C55.7494 23.5016 55.7174 25.5069 56.082 27.378C56.453 29.2492 57.2429 30.9767 58.2886 32.4295C59.3344 33.8888 60.6424 35.0766 62.0559 35.9516C63.4694 36.8329 64.9853 37.398 66.4692 37.695C66.8433 37.7525 67.2143 37.8099 67.5757 37.8642C67.9434 37.8962 68.3048 37.9057 68.663 37.9281C69.3794 37.9664 70.0765 37.9121 70.7417 37.8291C72.0785 37.6567 73.2905 37.2799 74.3491 36.8169C75.4076 36.3443 76.3095 35.7791 77.0642 35.2044L77.3104 35.016L77.1217 35.2618V35.2682L77.093 35.2044C80.8986 36.1272 82.7918 36.5838 83.0732 36.654L83.0701 36.6508Z" fill="#FC7474"/>
<path d="M65.4043 24.2329C65.4043 24.945 64.8255 25.5261 64.1091 25.5261C63.3928 25.5261 62.8139 24.9482 62.8139 24.2329C62.8139 23.5177 63.3928 22.9397 64.1091 22.9397C64.8255 22.9397 65.4043 23.5177 65.4043 24.2329Z" fill="#FC7474"/>
<path d="M70.582 24.2329C70.582 24.945 70.0032 25.5261 69.2868 25.5261C68.5705 25.5261 67.9916 24.9482 67.9916 24.2329C67.9916 23.5177 68.5705 22.9397 69.2868 22.9397C70.0032 22.9397 70.582 23.5177 70.582 24.2329Z" fill="#FC7474"/>
<path d="M75.7502 23.5881C76.1083 24.2076 75.8941 24.9963 75.2769 25.3539C74.6564 25.7115 73.8665 25.4976 73.5084 24.8813C73.1502 24.2619 73.3644 23.4732 73.9817 23.1155C74.6021 22.7579 75.392 22.9719 75.7502 23.5881Z" fill="#FC7474"/>
</svg>
