<svg width="94" height="94" viewBox="0 0 94 94" fill="none" xmlns="http://www.w3.org/2000/svg">
<circle cx="47.0001" cy="46.631" r="46.631" fill="#23A26D" fill-opacity="0.12"/>
<path d="M46.1662 24.4253C33.9311 24.4253 23.9609 34.3954 23.9609 46.6305C23.9609 58.8656 33.9311 68.8358 46.1662 68.8358C58.4013 68.8358 68.3714 58.8656 68.3714 46.6305C68.3714 34.3954 58.4013 24.4253 46.1662 24.4253ZM56.7803 41.5233L44.1899 54.1137C43.879 54.4246 43.4571 54.6022 43.013 54.6022C42.5689 54.6022 42.147 54.4246 41.8361 54.1137L35.5521 47.8296C34.9081 47.1857 34.9081 46.1198 35.5521 45.4759C36.196 44.8319 37.2619 44.8319 37.9058 45.4759L43.013 50.5831L54.4265 39.1696C55.0705 38.5256 56.1363 38.5256 56.7803 39.1696C57.4242 39.8135 57.4242 40.8572 56.7803 41.5233Z" fill="#23A26D"/>
</svg>
