<svg width="16" height="16" viewBox="0 0 16 16" fill="none" xmlns="http://www.w3.org/2000/svg">
<path d="M8 2.33325L10 4.33325M8 9.66659V2.33325V9.66659ZM8 2.33325L6 4.33325L8 2.33325Z" stroke="#F8F9FD" stroke-width="1.5" stroke-linecap="round" stroke-linejoin="round"/>
<path d="M10.6663 12.6667H5.33301C4.67545 12.6667 4.46311 12.6636 4.30133 12.638C3.30291 12.4799 2.51987 11.6968 2.36173 10.6984C2.33611 10.5366 2.33301 10.3243 2.33301 9.66675C2.33301 9.00921 2.33611 8.79688 2.36173 8.63508C2.51987 7.63668 3.30291 6.85362 4.30133 6.69548C4.46311 6.66988 4.67545 6.66675 5.33301 6.66675H5.49967C5.77581 6.66675 5.99967 6.44289 5.99967 6.16675C5.99967 5.89061 5.77581 5.66675 5.49967 5.66675H5.33301C4.71367 5.66675 4.404 5.66675 4.14489 5.70779C2.71859 5.93369 1.59995 7.05235 1.37405 8.47861C1.33301 8.73775 1.33301 9.04741 1.33301 9.66675C1.33301 10.2861 1.33301 10.5957 1.37405 10.8549C1.59995 12.2811 2.71858 13.3998 4.14489 13.6257C4.404 13.6667 4.71367 13.6667 5.33301 13.6667H10.6663C11.2857 13.6667 11.5953 13.6667 11.8545 13.6257C13.2807 13.3998 14.3994 12.2811 14.6253 10.8549C14.6663 10.5957 14.6663 10.2861 14.6663 9.66675C14.6663 9.04741 14.6663 8.73775 14.6253 8.47861C14.3994 7.05235 13.2807 5.93369 11.8545 5.70779C11.5953 5.66675 11.2857 5.66675 10.6663 5.66675H10.4997C10.2235 5.66675 9.99967 5.89061 9.99967 6.16675C9.99967 6.44289 10.2235 6.66675 10.4997 6.66675H10.6663C11.3239 6.66675 11.5362 6.66988 11.698 6.69548C12.6964 6.85362 13.4795 7.63668 13.6376 8.63508C13.6632 8.79688 13.6663 9.00921 13.6663 9.66675C13.6663 10.3243 13.6632 10.5366 13.6376 10.6984C13.4795 11.6968 12.6964 12.4799 11.698 12.638C11.5362 12.6636 11.3239 12.6667 10.6663 12.6667Z" fill="#F8F9FD"/>
</svg>
