<svg width="24" height="24" viewBox="0 0 24 24" fill="none" xmlns="http://www.w3.org/2000/svg">
<path d="M10.0808 19.4387L10.0808 19.4387C10.4773 20.0846 11.1888 20.5137 12.0001 20.5137C12.8113 20.5137 13.5228 20.0847 13.9194 19.4387C13.9359 19.4117 13.9349 19.3992 13.9347 19.3975C13.9347 19.3975 13.9347 19.3974 13.9347 19.3974C13.9345 19.3936 13.9326 19.3807 13.9178 19.3605C13.885 19.3159 13.8064 19.2637 13.696 19.2637C13.5716 19.2637 13.4154 19.3502 13.1535 19.5797L10.0808 19.4387ZM10.0808 19.4387C10.0643 19.4117 10.0653 19.3992 10.0655 19.3975C10.0655 19.3975 10.0655 19.3974 10.0655 19.3974C10.0657 19.3936 10.0676 19.3807 10.0824 19.3605C10.1152 19.3159 10.1938 19.2637 10.3042 19.2637C10.4285 19.2637 10.5849 19.3503 10.8466 19.5798L10.8467 19.5798M10.0808 19.4387L10.8467 19.5798M10.8467 19.5798C11.1544 19.8496 11.5586 20.0137 12.0001 20.0137C12.4414 20.0137 12.8457 19.8497 13.1534 19.5799L10.8467 19.5798Z" fill="#303135" stroke="#303135"/>
<mask id="mask0_1889_2659" style="mask-type:alpha" maskUnits="userSpaceOnUse" x="3" y="1" width="18" height="17">
<path fill-rule="evenodd" clip-rule="evenodd" d="M19.5 10.8496C19.5 7.86124 18.0167 5.06777 15.5411 3.39392L14.2405 2.5145C12.887 1.59934 11.113 1.59934 9.75949 2.5145L8.45887 3.39391C5.9833 5.06776 4.5 7.86123 4.5 10.8496V12.7635C3.88625 13.3128 3.5 14.1111 3.5 14.9996C3.5 16.6565 4.84315 17.9996 6.5 17.9996H17.5C19.1569 17.9996 20.5 16.6565 20.5 14.9996C20.5 14.1111 20.1137 13.3128 19.5 12.7635V10.8496Z" fill="white"/>
</mask>
<g mask="url(#mask0_1889_2659)">
<mask id="path-3-inside-1_1889_2659" fill="white">
<path d="M15.5411 3.39391L14.7009 4.63652L15.5411 3.39391ZM19.5 10.8496H21H19.5ZM14.2405 2.51449L15.0807 1.27188L14.2405 2.51449ZM9.75949 2.51449L8.91931 1.27188L9.75949 2.51449ZM8.45887 3.3939L9.29906 4.63652L8.45887 3.3939ZM4.5 10.8496H6H4.5ZM4.5 12.7635L5.50037 13.8812L6 13.434V12.7635H4.5ZM19.5 12.7635H18V13.434L18.4996 13.8812L19.5 12.7635ZM14.7009 4.63652C16.7639 6.03139 18 8.35928 18 10.8496H21C21 7.36317 19.2695 4.10412 16.3813 2.15129L14.7009 4.63652ZM13.4003 3.7571L14.7009 4.63652L16.3813 2.15129L15.0807 1.27188L13.4003 3.7571ZM10.5997 3.7571C11.4456 3.18513 12.5544 3.18513 13.4003 3.7571L15.0807 1.27188C13.2196 0.0135394 10.7804 0.013539 8.91931 1.27188L10.5997 3.7571ZM9.29906 4.63652L10.5997 3.7571L8.91931 1.27188L7.61868 2.15129L9.29906 4.63652ZM6 10.8496C6 8.35928 7.23608 6.03139 9.29906 4.63652L7.61868 2.15129C4.73051 4.10412 3 7.36317 3 10.8496H6ZM6 12.7635V10.8496H3V12.7635H6ZM5 14.9996C5 14.5555 5.1911 14.158 5.50037 13.8812L3.49963 11.6458C2.5814 12.4676 2 13.6667 2 14.9996H5ZM6.5 16.4996C5.67157 16.4996 5 15.828 5 14.9996H2C2 17.4849 4.01472 19.4996 6.5 19.4996V16.4996ZM17.5 16.4996H6.5V19.4996H17.5V16.4996ZM19 14.9996C19 15.828 18.3284 16.4996 17.5 16.4996V19.4996C19.9853 19.4996 22 17.4849 22 14.9996H19ZM18.4996 13.8812C18.8089 14.158 19 14.5555 19 14.9996H22C22 13.6667 21.4186 12.4676 20.5004 11.6458L18.4996 13.8812ZM18 10.8496V12.7635H21V10.8496H18Z"/>
</mask>
<path d="M15.5411 3.39391L14.7009 4.63652L15.5411 3.39391ZM19.5 10.8496H21H19.5ZM14.2405 2.51449L15.0807 1.27188L14.2405 2.51449ZM9.75949 2.51449L8.91931 1.27188L9.75949 2.51449ZM8.45887 3.3939L9.29906 4.63652L8.45887 3.3939ZM4.5 10.8496H6H4.5ZM4.5 12.7635L5.50037 13.8812L6 13.434V12.7635H4.5ZM19.5 12.7635H18V13.434L18.4996 13.8812L19.5 12.7635ZM14.7009 4.63652C16.7639 6.03139 18 8.35928 18 10.8496H21C21 7.36317 19.2695 4.10412 16.3813 2.15129L14.7009 4.63652ZM13.4003 3.7571L14.7009 4.63652L16.3813 2.15129L15.0807 1.27188L13.4003 3.7571ZM10.5997 3.7571C11.4456 3.18513 12.5544 3.18513 13.4003 3.7571L15.0807 1.27188C13.2196 0.0135394 10.7804 0.013539 8.91931 1.27188L10.5997 3.7571ZM9.29906 4.63652L10.5997 3.7571L8.91931 1.27188L7.61868 2.15129L9.29906 4.63652ZM6 10.8496C6 8.35928 7.23608 6.03139 9.29906 4.63652L7.61868 2.15129C4.73051 4.10412 3 7.36317 3 10.8496H6ZM6 12.7635V10.8496H3V12.7635H6ZM5 14.9996C5 14.5555 5.1911 14.158 5.50037 13.8812L3.49963 11.6458C2.5814 12.4676 2 13.6667 2 14.9996H5ZM6.5 16.4996C5.67157 16.4996 5 15.828 5 14.9996H2C2 17.4849 4.01472 19.4996 6.5 19.4996V16.4996ZM17.5 16.4996H6.5V19.4996H17.5V16.4996ZM19 14.9996C19 15.828 18.3284 16.4996 17.5 16.4996V19.4996C19.9853 19.4996 22 17.4849 22 14.9996H19ZM18.4996 13.8812C18.8089 14.158 19 14.5555 19 14.9996H22C22 13.6667 21.4186 12.4676 20.5004 11.6458L18.4996 13.8812ZM18 10.8496V12.7635H21V10.8496H18Z" fill="#303135"/>
<path d="M4.5 12.7635V11.7635H2.26294L3.75487 13.4304L4.5 12.7635ZM5.50037 13.8812L4.75524 14.5481L5.42216 15.2932L6.1673 14.6263L5.50037 13.8812ZM6 13.434L6.66693 14.1791L7 13.881V13.434H6ZM6 12.7635H7V11.7635H6V12.7635ZM19.5 12.7635L20.2451 13.4304L21.7371 11.7635H19.5V12.7635ZM18 12.7635V11.7635H17V12.7635H18ZM18 13.434H17V13.881L17.333 14.1791L18 13.434ZM18.4996 13.8812L17.8326 14.6263L18.5778 15.2933L19.2447 14.5481L18.4996 13.8812ZM14.7009 4.63652L13.8725 4.07639L13.3124 4.90481L14.1408 5.46493L14.7009 4.63652ZM18 10.8496H17V11.8496H18V10.8496ZM21 10.8496V11.8496H22V10.8496H21ZM16.3813 2.15129L16.9414 1.32288L16.113 0.762766L15.5529 1.59116L16.3813 2.15129ZM13.4003 3.7571L12.5719 3.19697L12.0118 4.02537L12.8402 4.5855L13.4003 3.7571ZM14.7009 4.63652L14.1408 5.46492L14.9692 6.02506L15.5293 5.19665L14.7009 4.63652ZM16.3813 2.15129L17.2097 2.71142L17.7698 1.88302L16.9414 1.32289L16.3813 2.15129ZM15.0807 1.27188L15.6408 0.443479L14.8124 -0.116653L14.2523 0.711751L15.0807 1.27188ZM10.5997 3.7571L9.77129 4.31723L10.3314 5.14564L11.1598 4.5855L10.5997 3.7571ZM13.4003 3.7571L12.8402 4.5855L13.6686 5.14564L14.2287 4.31723L13.4003 3.7571ZM15.0807 1.27188L15.9091 1.83201L16.4692 1.00359L15.6408 0.443468L15.0807 1.27188ZM8.91931 1.27188L8.35919 0.443469L7.53077 1.00359L8.0909 1.83201L8.91931 1.27188ZM9.29906 4.63652L8.47065 5.19665L9.03078 6.02505L9.85918 5.46493L9.29906 4.63652ZM10.5997 3.7571L11.1598 4.58551L11.9882 4.02538L11.4281 3.19697L10.5997 3.7571ZM8.91931 1.27188L9.74771 0.711753L9.18759 -0.116645L8.35919 0.443473L8.91931 1.27188ZM7.61868 2.15129L7.05856 1.32288L6.23014 1.88301L6.79027 2.71142L7.61868 2.15129ZM6 10.8496V11.8496H7V10.8496H6ZM9.29906 4.63652L9.85918 5.46493L10.6876 4.90481L10.1275 4.0764L9.29906 4.63652ZM7.61868 2.15129L8.44709 1.59117L7.88696 0.762759L7.05855 1.32288L7.61868 2.15129ZM3 10.8496H2V11.8496H3V10.8496ZM6 12.7635V13.7635H7V12.7635H6ZM6 10.8496H7V9.84957H6V10.8496ZM3 10.8496V9.84957H2V10.8496H3ZM3 12.7635H2V13.7635H3V12.7635ZM5 14.9996V15.9996H6V14.9996H5ZM5.50037 13.8812L6.16728 14.6263L6.91242 13.9594L6.2455 13.2143L5.50037 13.8812ZM3.49963 11.6458L4.24476 10.9789L3.57787 10.2337L2.83273 10.9006L3.49963 11.6458ZM2 14.9996H1V15.9996H2V14.9996ZM6.5 16.4996H7.5V15.4996H6.5V16.4996ZM5 14.9996H6V13.9996H5V14.9996ZM2 14.9996V13.9996H1V14.9996H2ZM6.5 19.4996V20.4996H7.5V19.4996H6.5ZM17.5 16.4996H18.5V15.4996H17.5V16.4996ZM6.5 16.4996V15.4996H5.5V16.4996H6.5ZM6.5 19.4996H5.5V20.4996H6.5V19.4996ZM17.5 19.4996V20.4996H18.5V19.4996H17.5ZM19 14.9996V13.9996H18V14.9996H19ZM17.5 16.4996V15.4996H16.5V16.4996H17.5ZM17.5 19.4996H16.5V20.4996H17.5V19.4996ZM22 14.9996H23V13.9996H22V14.9996ZM18.4996 13.8812L17.7545 13.2142L17.0875 13.9594L17.8327 14.6263L18.4996 13.8812ZM19 14.9996H18V15.9996H19V14.9996ZM22 14.9996V15.9996H23V14.9996H22ZM20.5004 11.6458L21.1673 10.9006L20.4222 10.2337L19.7553 10.9788L20.5004 11.6458ZM18 10.8496V9.84957H17V10.8496H18ZM18 12.7635H17V13.7635H18V12.7635ZM21 12.7635V13.7635H22V12.7635H21ZM21 10.8496H22V9.84957H21V10.8496ZM14.7127 2.83378L13.8725 4.07639L15.5293 5.19665L16.3695 3.95404L14.7127 2.83378ZM15.5293 5.19665L16.3695 3.95404L14.7127 2.83378L13.8725 4.07639L15.5293 5.19665ZM19.5 11.8496H21V9.84957H19.5V11.8496ZM21 9.84957H19.5V11.8496H21V9.84957ZM15.0689 3.07462L15.9091 1.83201L14.2523 0.711751L13.4121 1.95436L15.0689 3.07462ZM14.2523 0.711751L13.4121 1.95436L15.0689 3.07462L15.9091 1.83201L14.2523 0.711751ZM10.5879 1.95437L9.74772 0.71176L8.0909 1.832L8.93108 3.07462L10.5879 1.95437ZM8.0909 1.832L8.93108 3.07462L10.5879 1.95437L9.74772 0.71176L8.0909 1.832ZM7.63046 3.95403L8.47065 5.19665L10.1275 4.0764L9.28728 2.83378L7.63046 3.95403ZM10.1275 4.0764L9.28728 2.83378L7.63046 3.95403L8.47065 5.19665L10.1275 4.0764ZM4.5 11.8496H6V9.84957H4.5V11.8496ZM6 9.84957H4.5V11.8496H6V9.84957ZM3.75487 13.4304L4.75524 14.5481L6.2455 13.2143L5.24513 12.0966L3.75487 13.4304ZM6.1673 14.6263L6.66693 14.1791L5.33307 12.6889L4.83344 13.1361L6.1673 14.6263ZM7 13.434V12.7635H5V13.434H7ZM6 11.7635H4.5V13.7635H6V11.7635ZM19.5 11.7635H18V13.7635H19.5V11.7635ZM17 12.7635V13.434H19V12.7635H17ZM17.333 14.1791L17.8326 14.6263L19.1666 13.1361L18.667 12.6889L17.333 14.1791ZM19.2447 14.5481L20.2451 13.4304L18.7549 12.0965L17.7545 13.2142L19.2447 14.5481ZM14.1408 5.46493C15.9287 6.67382 17 8.69133 17 10.8496H19C19 8.02724 17.5991 5.38896 15.261 3.80811L14.1408 5.46493ZM18 11.8496H21V9.84957H18V11.8496ZM22 10.8496C22 7.03114 20.1047 3.4617 16.9414 1.32288L15.8212 2.9797C18.4343 4.74655 20 7.69521 20 10.8496H22ZM15.5529 1.59116L13.8725 4.07639L15.5293 5.19665L17.2097 2.71142L15.5529 1.59116ZM12.8402 4.5855L14.1408 5.46492L15.261 3.80812L13.9604 2.9287L12.8402 4.5855ZM15.5293 5.19665L17.2097 2.71142L15.5529 1.59116L13.8725 4.07639L15.5293 5.19665ZM16.9414 1.32289L15.6408 0.443479L14.5206 2.10029L15.8212 2.9797L16.9414 1.32289ZM14.2523 0.711751L12.5719 3.19697L14.2287 4.31723L15.9091 1.83201L14.2523 0.711751ZM11.1598 4.5855C11.6674 4.24233 12.3326 4.24233 12.8402 4.5855L13.9604 2.9287C12.7762 2.12793 11.2238 2.12793 10.0396 2.9287L11.1598 4.5855ZM14.2287 4.31723L15.9091 1.83201L14.2523 0.711751L12.5719 3.19697L14.2287 4.31723ZM15.6408 0.443468C13.4413 -1.04366 10.5587 -1.04366 8.35919 0.443469L9.47943 2.1003C11.0021 1.07074 12.9979 1.07073 14.5206 2.1003L15.6408 0.443468ZM8.0909 1.83201L9.77129 4.31723L11.4281 3.19697L9.74771 0.711753L8.0909 1.83201ZM9.85918 5.46493L11.1598 4.58551L10.0396 2.92869L8.73894 3.80811L9.85918 5.46493ZM11.4281 3.19697L9.74771 0.711753L8.0909 1.83201L9.77129 4.31723L11.4281 3.19697ZM8.35919 0.443473L7.05856 1.32288L8.1788 2.9797L9.47943 2.10029L8.35919 0.443473ZM6.79027 2.71142L8.47065 5.19665L10.1275 4.0764L8.44709 1.59117L6.79027 2.71142ZM7 10.8496C7 8.69132 8.07127 6.67382 9.85918 5.46493L8.73894 3.80811C6.40089 5.38897 5 8.02725 5 10.8496H7ZM10.1275 4.0764L8.44709 1.59117L6.79027 2.71142L8.47065 5.19665L10.1275 4.0764ZM7.05855 1.32288C3.89532 3.4617 2 7.03114 2 10.8496H4C4 7.69521 5.5657 4.74655 8.17881 2.9797L7.05855 1.32288ZM3 11.8496H6V9.84957H3V11.8496ZM7 12.7635V10.8496H5V12.7635H7ZM6 9.84957H3V11.8496H6V9.84957ZM2 10.8496V12.7635H4V10.8496H2ZM3 13.7635H6V11.7635H3V13.7635ZM6 14.9996C6 14.8509 6.06164 14.7209 6.16728 14.6263L4.83346 13.136C4.32056 13.5951 4 14.26 4 14.9996H6ZM6.2455 13.2143L4.24476 10.9789L2.7545 12.3127L4.75524 14.5481L6.2455 13.2143ZM2.83273 10.9006C1.71171 11.9039 1 13.3701 1 14.9996H3C3 13.9632 3.45109 13.0312 4.16653 12.3909L2.83273 10.9006ZM2 15.9996H5V13.9996H2V15.9996ZM6.5 15.4996C6.22387 15.4996 6 15.2757 6 14.9996H4C4 16.3802 5.11927 17.4996 6.5 17.4996V15.4996ZM5 13.9996H2V15.9996H5V13.9996ZM1 14.9996C1 18.0372 3.46244 20.4996 6.5 20.4996V18.4996C4.567 18.4996 3 16.9326 3 14.9996H1ZM7.5 19.4996V16.4996H5.5V19.4996H7.5ZM17.5 15.4996H6.5V17.4996H17.5V15.4996ZM5.5 16.4996V19.4996H7.5V16.4996H5.5ZM6.5 20.4996H17.5V18.4996H6.5V20.4996ZM18.5 19.4996V16.4996H16.5V19.4996H18.5ZM18 14.9996C18 15.2757 17.7761 15.4996 17.5 15.4996V17.4996C18.8807 17.4996 20 16.3803 20 14.9996H18ZM16.5 16.4996V19.4996H18.5V16.4996H16.5ZM17.5 20.4996C20.5376 20.4996 23 18.0372 23 14.9996H21C21 16.9326 19.433 18.4996 17.5 18.4996V20.4996ZM22 13.9996H19V15.9996H22V13.9996ZM17.8327 14.6263C17.9384 14.7209 18 14.8509 18 14.9996H20C20 14.26 19.6794 13.5951 19.1665 13.136L17.8327 14.6263ZM19 15.9996H22V13.9996H19V15.9996ZM23 14.9996C23 13.3701 22.2883 11.9039 21.1673 10.9006L19.8335 12.3909C20.5489 13.0312 21 13.9632 21 14.9996H23ZM19.7553 10.9788L17.7545 13.2142L19.2447 14.5481L21.2455 12.3127L19.7553 10.9788ZM17 10.8496V12.7635H19V10.8496H17ZM18 13.7635H21V11.7635H18V13.7635ZM22 12.7635V10.8496H20V12.7635H22ZM21 9.84957H18V11.8496H21V9.84957Z" fill="#303135" mask="url(#path-3-inside-1_1889_2659)"/>
</g>
</svg>
