<svg width="121" height="41" viewBox="0 0 121 41" fill="none" xmlns="http://www.w3.org/2000/svg">
<path fill-rule="evenodd" clip-rule="evenodd" d="M14.0508 2.77137V11.6716C17.6604 6.60877 24.2121 9.31448 28.1013 8.05307V0C23.9325 1.42242 17.717 -0.933168 14.0508 2.77137Z" fill="#B22D30"/>
<path fill-rule="evenodd" clip-rule="evenodd" d="M14.0506 2.77137V11.6716C10.4409 6.60877 3.88923 9.31448 0 8.05307V0C4.16883 1.42242 10.3844 -0.933168 14.0506 2.77137Z" fill="#ED3237"/>
<path fill-rule="evenodd" clip-rule="evenodd" d="M9.23828 40.1608C10.7337 40.7031 12.3453 41.0001 14.026 41.0001H14.0511H14.0763C15.7554 41.0001 17.3686 40.7031 18.864 40.1608V27.2043C18.8514 29.7193 16.7858 31.7685 14.2553 31.7685H14.0527H13.8501C11.3117 31.7685 9.23985 29.7083 9.23985 27.1824V40.1608H9.23828Z" fill="#606062"/>
<path fill-rule="evenodd" clip-rule="evenodd" d="M9.23771 40.1607V27.1807V26.5727V18.8338C9.23771 17.2691 7.95596 15.9937 6.38362 15.9937H0V27.0432C0 33.058 3.85782 38.2052 9.23771 40.1607Z" fill="#848688"/>
<path fill-rule="evenodd" clip-rule="evenodd" d="M18.8633 27.2042V40.1607C24.2432 38.2068 28.101 33.0595 28.101 27.0432V15.9937H21.7174C20.145 15.9937 18.8633 17.2691 18.8633 18.8338V26.5727V27.1807C18.8633 27.1885 18.8633 27.1964 18.8633 27.2042Z" fill="#848688"/>
<path fill-rule="evenodd" clip-rule="evenodd" d="M102.003 7.06773V19.5862C102.003 20.1228 102.444 20.5597 102.985 20.5597H104.727C105.268 20.5597 105.709 20.1228 105.709 19.5862V9.87203C105.709 9.48261 106.03 9.16442 106.423 9.16442H107.425C107.918 9.16442 108.345 9.34014 108.692 9.6892C109.04 10.0383 109.215 10.4609 109.21 10.9501L109.128 19.5791C109.126 19.8474 109.222 20.0825 109.414 20.2724C109.605 20.4648 109.84 20.5597 110.111 20.5597H112.023C112.564 20.5597 113.005 20.1228 113.005 19.5862V9.86965C113.005 9.48023 113.326 9.16205 113.719 9.16205H114.608C115.591 9.16205 116.393 9.95751 116.393 10.9311L116.386 19.5933C116.386 20.1252 116.829 20.5574 117.368 20.5574H119.249C119.791 20.5574 120.232 20.1205 120.232 19.5838V10.2472C120.232 8.00803 118.389 6.17966 116.127 6.17966H113.429C112.866 6.17966 111.891 6.46223 111.474 7.08435C111.448 7.13659 111.409 7.13659 111.383 7.08435C111.055 6.52396 110.274 6.17966 109.83 6.17966H107.058C106.711 6.17966 105.949 6.41235 105.75 6.80415C105.74 6.82552 105.688 6.82315 105.683 6.80415C105.623 6.4361 105.336 6.17966 104.988 6.17966H102.904C102.403 6.18441 102.003 6.58095 102.003 7.06773ZM85.6616 9.81029V16.9362C85.6616 18.9332 87.3053 20.5621 89.3204 20.5621H94.7115C96.7265 20.5621 98.3702 18.9332 98.3702 16.9362V9.81029C98.3702 7.81332 96.7265 6.1844 94.7115 6.1844H89.3204C87.3053 6.1844 85.6616 7.81332 85.6616 9.81029ZM89.687 10.9334V15.8558C89.687 16.8294 90.4897 17.6248 91.472 17.6248H92.924C93.9064 17.6248 94.7091 16.8294 94.7091 15.8558V10.9334C94.7091 9.95989 93.9064 9.16442 92.924 9.16442H91.472C90.4873 9.16442 89.687 9.95989 89.687 10.9334ZM52.1027 14.9416H60.8938V9.98601C60.8938 7.89169 59.171 6.1844 57.0577 6.1844H51.9709C49.8576 6.1844 48.1348 7.89169 48.1348 9.98601V16.7605C48.1348 18.8548 49.8576 20.5621 51.9709 20.5621H59.9162C60.4577 20.5621 60.8962 20.1252 60.8962 19.5886V18.4179C60.8962 17.8813 60.4553 17.4467 59.9138 17.4467H53.3534C52.6658 17.4467 52.1051 16.8911 52.1051 16.2096V14.9416H52.1027ZM52.1027 11.812H56.4587C56.8037 11.812 57.0841 11.5342 57.0841 11.1923V10.3137C57.0841 9.67969 56.5617 9.16442 55.9244 9.16442H53.1737C52.5843 9.16442 52.1027 9.6417 52.1027 10.2258V11.812ZM74.9992 2.41367V12.3463C74.9992 12.3961 75.04 12.4341 75.0879 12.4341H75.1766C75.2053 12.4341 75.2293 12.4223 75.246 12.4009L79.7794 6.74954C80.0765 6.37912 80.4886 6.18203 80.9678 6.18203H83.5076C83.6825 6.18203 83.8335 6.27701 83.9101 6.43373C83.9868 6.59044 83.9652 6.76616 83.855 6.90151L79.0725 12.7856L84.0156 19.7215C84.133 19.8878 84.1473 20.092 84.0539 20.2724C83.9604 20.4529 83.7831 20.5597 83.5771 20.5597H80.709C80.4023 20.5597 80.1412 20.422 79.9686 20.1703L75.2436 13.2344C75.2269 13.2082 75.2005 13.1964 75.1694 13.1964H75.0855C75.0352 13.1964 74.9969 13.2367 74.9969 13.2842V19.5862C74.9969 20.1228 74.556 20.5597 74.0145 20.5597H72.2486C71.7071 20.5597 71.2662 20.1228 71.2662 19.5862V2.41129C71.2662 1.87465 71.7071 1.43774 72.2486 1.43774H74.0145C74.5584 1.44012 74.9992 1.8794 74.9992 2.41367ZM67.8519 2.41367V19.5886C67.8519 20.1252 67.411 20.5621 66.8695 20.5621H64.9646C64.4231 20.5621 63.9823 20.1252 63.9823 19.5886V2.41367C63.9823 1.87703 64.4231 1.44011 64.9646 1.44011H66.8695C67.411 1.44011 67.8519 1.8794 67.8519 2.41367ZM49.1963 2.99305V3.70066C49.1963 4.37265 48.6572 4.92354 47.9983 4.92354H43.8723V19.2775C43.8723 20.1276 43.2565 20.5621 42.4227 20.5621H41.5433C40.7095 20.5621 39.9572 20.1276 39.9572 19.2775V4.92354H35.5652C34.9063 4.92354 34.3672 4.37265 34.3672 3.70066V2.99305C34.3672 2.32106 34.9063 1.77018 35.5652 1.77018H47.9959C48.6572 1.77255 49.1963 2.32106 49.1963 2.99305Z" fill="#373435"/>
<path d="M51.9453 27.9883C52.7779 27.9883 53.4046 28.2031 53.8254 28.6328C54.2507 29.0626 54.4633 29.7519 54.4633 30.7009V35.5623H52.8854V30.9829C52.8854 30.4189 52.7757 29.9937 52.5564 29.7072C52.337 29.4207 52.0035 29.2774 51.5559 29.2774C50.9292 29.2774 50.4771 29.4789 50.1996 29.8818C49.9265 30.2801 49.79 30.8598 49.79 31.6208V35.5623H48.212V30.9829C48.212 30.6069 48.1628 30.2936 48.0643 30.0429C47.9703 29.7877 47.8248 29.5975 47.6279 29.4722C47.4309 29.3424 47.1825 29.2774 46.8826 29.2774C46.4484 29.2774 46.1014 29.3759 45.8418 29.5729C45.5867 29.7698 45.4031 30.0608 45.2912 30.4458C45.1793 30.8263 45.1234 31.294 45.1234 31.8491V35.5623H43.5454V28.1293H44.7742L44.9958 29.1297H45.0831C45.2353 28.8701 45.4233 28.6575 45.6471 28.4918C45.8754 28.3217 46.1283 28.1964 46.4058 28.1158C46.6834 28.0308 46.9721 27.9883 47.272 27.9883C47.8271 27.9883 48.2949 28.0867 48.6754 28.2837C49.0558 28.4762 49.3401 28.7716 49.5281 29.17H49.649C49.8817 28.7671 50.2063 28.4695 50.6226 28.277C51.0389 28.0845 51.4798 27.9883 51.9453 27.9883ZM59.6268 27.9883C60.2893 27.9883 60.8578 28.1248 61.3323 28.3978C61.8068 28.6709 62.1716 29.0581 62.4267 29.5595C62.6819 30.0608 62.8095 30.6606 62.8095 31.359V32.205H57.8474C57.8653 32.9257 58.0578 33.4807 58.4249 33.8702C58.7964 34.2596 59.3157 34.4544 59.9826 34.4544C60.4571 34.4544 60.8824 34.4096 61.2584 34.3201C61.6389 34.2261 62.0306 34.0895 62.4334 33.9105V35.193C62.0619 35.3675 61.6837 35.4951 61.2987 35.5757C60.9137 35.6563 60.4527 35.6965 59.9155 35.6965C59.1858 35.6965 58.5435 35.5555 57.9884 35.2735C57.4378 34.987 57.0059 34.5618 56.6925 33.9978C56.3836 33.4337 56.2292 32.7332 56.2292 31.8961C56.2292 31.0635 56.3702 30.3562 56.6522 29.7743C56.9342 29.1924 57.3304 28.7492 57.8407 28.4448C58.351 28.1404 58.9464 27.9883 59.6268 27.9883ZM59.6268 29.1767C59.1299 29.1767 58.727 29.3379 58.4182 29.6602C58.1138 29.9825 57.9347 30.4547 57.881 31.0769H61.2651C61.2606 30.7054 61.198 30.3764 61.0771 30.0899C60.9607 29.8034 60.7817 29.5796 60.5399 29.4184C60.3027 29.2573 59.9983 29.1767 59.6268 29.1767ZM68.4631 27.9883C69.3002 27.9883 69.9515 28.2054 70.417 28.6396C70.8871 29.0693 71.1221 29.7609 71.1221 30.7144V35.5623H69.5441V31.0098C69.5441 30.4323 69.4255 30.0004 69.1883 29.7139C68.951 29.4229 68.584 29.2774 68.0871 29.2774C67.3664 29.2774 66.865 29.499 66.583 29.9422C66.3055 30.3853 66.1667 31.0277 66.1667 31.8693V35.5623H64.5888V28.1293H65.8176L66.0392 29.1364H66.1264C66.2876 28.8768 66.4868 28.6642 66.724 28.4986C66.9658 28.3285 67.2343 28.2009 67.5298 28.1158C67.8297 28.0308 68.1408 27.9883 68.4631 27.9883ZM76.0975 34.4208C76.3035 34.4208 76.5071 34.4029 76.7086 34.3671C76.91 34.3268 77.0935 34.2798 77.2592 34.2261V35.4213C77.0846 35.4973 76.8585 35.5623 76.581 35.616C76.3035 35.6697 76.0147 35.6965 75.7148 35.6965C75.294 35.6965 74.9158 35.6272 74.5801 35.4884C74.2443 35.3452 73.978 35.1012 73.781 34.7565C73.5841 34.4118 73.4856 33.9351 73.4856 33.3263V29.3312H72.4717V28.6261L73.5594 28.0688L74.0765 26.4775H75.0702V28.1293H77.1987V29.3312H75.0702V33.3062C75.0702 33.6822 75.1642 33.962 75.3522 34.1455C75.5402 34.329 75.7887 34.4208 76.0975 34.4208ZM85.3502 31.829C85.3502 32.4467 85.2696 32.9951 85.1085 33.474C84.9473 33.953 84.7123 34.3581 84.4034 34.6894C84.0946 35.0161 83.723 35.2668 83.2888 35.4414C82.8546 35.6115 82.3644 35.6965 81.8183 35.6965C81.308 35.6965 80.8402 35.6115 80.415 35.4414C79.9897 35.2668 79.6204 35.0161 79.3071 34.6894C78.9982 34.3581 78.7587 33.953 78.5886 33.474C78.4185 32.9951 78.3335 32.4467 78.3335 31.829C78.3335 31.0098 78.4745 30.316 78.7565 29.7475C79.043 29.1745 79.4503 28.738 79.9785 28.4381C80.5068 28.1382 81.1357 27.9883 81.8653 27.9883C82.5502 27.9883 83.1545 28.1382 83.6783 28.4381C84.202 28.738 84.6116 29.1745 84.907 29.7475C85.2025 30.3204 85.3502 31.0143 85.3502 31.829ZM79.9584 31.829C79.9584 32.3706 80.0233 32.8339 80.1531 33.2189C80.2874 33.6038 80.4933 33.8993 80.7709 34.1052C81.0484 34.3066 81.4065 34.4074 81.8452 34.4074C82.2839 34.4074 82.642 34.3066 82.9195 34.1052C83.197 33.8993 83.4007 33.6038 83.5305 33.2189C83.6604 32.8339 83.7253 32.3706 83.7253 31.829C83.7253 31.2873 83.6604 30.8285 83.5305 30.4525C83.4007 30.072 83.197 29.7833 82.9195 29.5863C82.642 29.3849 82.2816 29.2842 81.8385 29.2842C81.1849 29.2842 80.7082 29.5035 80.4083 29.9422C80.1084 30.3809 79.9584 31.0098 79.9584 31.829ZM90.93 27.9883C91.0553 27.9883 91.1918 27.995 91.3396 28.0084C91.4873 28.0218 91.6148 28.0397 91.7223 28.0621L91.5746 29.5393C91.4806 29.5125 91.3642 29.4923 91.2254 29.4789C91.0911 29.4655 90.9703 29.4587 90.8628 29.4587C90.5808 29.4587 90.3122 29.5057 90.0571 29.5997C89.8019 29.6893 89.5759 29.828 89.3789 30.016C89.1819 30.1996 89.0275 30.4301 88.9156 30.7076C88.8037 30.9852 88.7477 31.3075 88.7477 31.6745V35.5623H87.1631V28.1293H88.3986L88.6134 29.4386H88.6873C88.835 29.1745 89.0186 28.9328 89.2379 28.7134C89.4572 28.4941 89.7079 28.3195 89.9899 28.1897C90.2764 28.0554 90.5898 27.9883 90.93 27.9883ZM94.6767 28.1293V35.5623H93.0988V28.1293H94.6767ZM93.8978 25.2823C94.1395 25.2823 94.3477 25.3472 94.5222 25.477C94.7013 25.6068 94.7908 25.8306 94.7908 26.1485C94.7908 26.4618 94.7013 26.6856 94.5222 26.8199C94.3477 26.9497 94.1395 27.0146 93.8978 27.0146C93.6471 27.0146 93.4345 26.9497 93.2599 26.8199C93.0898 26.6856 93.0048 26.4618 93.0048 26.1485C93.0048 25.8306 93.0898 25.6068 93.2599 25.477C93.4345 25.3472 93.6471 25.2823 93.8978 25.2823ZM100.814 27.9883C101.651 27.9883 102.302 28.2054 102.768 28.6396C103.238 29.0693 103.473 29.7609 103.473 30.7144V35.5623H101.895V31.0098C101.895 30.4323 101.776 30.0004 101.539 29.7139C101.302 29.4229 100.935 29.2774 100.438 29.2774C99.7171 29.2774 99.2157 29.499 98.9337 29.9422C98.6562 30.3853 98.5174 31.0277 98.5174 31.8693V35.5623H96.9395V28.1293H98.1682L98.3898 29.1364H98.4771C98.6383 28.8768 98.8375 28.6642 99.0747 28.4986C99.3164 28.3285 99.585 28.2009 99.8805 28.1158C100.18 28.0308 100.491 27.9883 100.814 27.9883ZM107.804 38.8658C106.796 38.8658 106.024 38.6845 105.487 38.3219C104.95 37.9593 104.681 37.4513 104.681 36.7977C104.681 36.3411 104.825 35.9539 105.111 35.6361C105.398 35.3228 105.807 35.1057 106.34 34.9848C106.138 34.8953 105.964 34.7565 105.816 34.5685C105.673 34.376 105.601 34.1634 105.601 33.9306C105.601 33.6531 105.68 33.4158 105.836 33.2189C105.993 33.0219 106.228 32.8317 106.541 32.6481C106.152 32.4825 105.838 32.2139 105.601 31.8424C105.368 31.4664 105.252 31.0255 105.252 30.5196C105.252 29.9825 105.366 29.5259 105.595 29.1499C105.823 28.7694 106.156 28.4807 106.595 28.2837C107.034 28.0823 107.564 27.9815 108.186 27.9815C108.321 27.9815 108.466 27.9905 108.623 28.0084C108.784 28.0218 108.932 28.0397 109.066 28.0621C109.205 28.08 109.31 28.1002 109.382 28.1225H111.953V29.0021L110.691 29.2372C110.812 29.4073 110.908 29.602 110.98 29.8213C111.051 30.0362 111.087 30.2712 111.087 30.5263C111.087 31.2963 110.821 31.9028 110.288 32.346C109.76 32.7847 109.03 33.004 108.099 33.004C107.875 32.9951 107.658 32.9772 107.448 32.9503C107.287 33.0488 107.163 33.1584 107.078 33.2793C106.993 33.3957 106.951 33.5277 106.951 33.6755C106.951 33.7963 106.993 33.8948 107.078 33.9709C107.163 34.0425 107.289 34.0962 107.454 34.1321C107.625 34.1679 107.83 34.1858 108.072 34.1858H109.355C110.169 34.1858 110.792 34.3581 111.221 34.7028C111.651 35.0475 111.866 35.5533 111.866 36.2203C111.866 37.0663 111.517 37.7176 110.818 38.1742C110.12 38.6353 109.115 38.8658 107.804 38.8658ZM107.864 37.7579C108.415 37.7579 108.878 37.7042 109.254 37.5968C109.63 37.4893 109.914 37.3349 110.107 37.1335C110.299 36.9365 110.395 36.7015 110.395 36.4284C110.395 36.1867 110.335 36.0009 110.214 35.8711C110.093 35.7413 109.912 35.6518 109.67 35.6025C109.429 35.5533 109.129 35.5287 108.771 35.5287H107.602C107.311 35.5287 107.054 35.5734 106.83 35.663C106.606 35.757 106.432 35.8913 106.306 36.0658C106.185 36.2404 106.125 36.4508 106.125 36.697C106.125 37.0372 106.275 37.2991 106.575 37.4826C106.879 37.6661 107.309 37.7579 107.864 37.7579ZM108.173 31.97C108.634 31.97 108.976 31.8446 109.2 31.594C109.424 31.3388 109.536 30.9807 109.536 30.5196C109.536 30.0183 109.42 29.6423 109.187 29.3916C108.959 29.1409 108.618 29.0156 108.166 29.0156C107.723 29.0156 107.385 29.1432 107.152 29.3983C106.924 29.6535 106.81 30.0317 106.81 30.5331C106.81 30.9852 106.924 31.3388 107.152 31.594C107.385 31.8446 107.725 31.97 108.173 31.97Z" fill="#303135"/>
</svg>
